<svg width="61" height="61" viewBox="0 0 61 61" fill="none" xmlns="http://www.w3.org/2000/svg">
<mask id="mask0_48_8289" style="mask-type:luminance" maskUnits="userSpaceOnUse" x="0" y="0" width="61" height="61">
<path d="M30.3301 0.879883C46.8986 0.879883 60.3301 14.3148 60.3301 30.8876C60.3301 47.4604 46.8986 60.8953 30.3301 60.8953C13.7615 60.8953 0.330078 47.4604 0.330078 30.8876C0.330078 14.3148 13.7615 0.879883 30.3301 0.879883Z" fill="white"/>
</mask>
<g mask="url(#mask0_48_8289)">
<path d="M30.3359 0.879883C46.9045 0.879883 60.3359 14.3148 60.3359 30.8876C60.3359 47.4604 46.9045 60.8953 30.3359 60.8953C13.7674 60.8953 0.335938 47.4604 0.335938 30.8876C0.335937 14.3148 13.7674 0.879883 30.3359 0.879883Z" fill="#E6E6E6"/>
<mask id="mask1_48_8289" style="mask-type:luminance" maskUnits="userSpaceOnUse" x="-2" y="4" width="53" height="54">
<path d="M50.7421 4.77979H-1.75781V57.2932H50.7421V4.77979Z" fill="white"/>
</mask>
<g mask="url(#mask1_48_8289)">
<path d="M-1.75586 14.2328L24.494 4.78052L50.744 14.233V47.8416L24.494 57.2941L-1.75586 47.8414V14.2328Z" fill="#FF7751"/>
<path d="M-1.75586 14.2329L24.494 23.6854V57.294L-1.75586 47.8415V14.2329Z" fill="#E13100"/>
<path d="M50.7442 14.2329L24.4941 23.6854V57.294L50.7442 47.8415V14.2329Z" fill="#FC4714"/>
<path d="M47.8558 41.8205C42.2199 47.2813 33.1795 50.404 27.3809 49.2747V46.3199C33.0625 47.4793 42.1789 44.6479 47.8558 38.8657V41.8205ZM34.361 41.7975L29.7077 43.4916V35.5663L34.361 33.8721V41.7975ZM47.3909 29.1287L45.5297 29.8064V37.7312L40.8764 39.4253V31.5005L39.0148 32.1782L43.2029 20.7468L47.3909 29.1287ZM36.2229 33.1941L27.8468 36.2436L32.0349 24.8122L36.2229 33.1941Z" fill="white"/>
</g>
</g>
</svg>
