<svg width="61" height="61" viewBox="0 0 61 61" fill="none" xmlns="http://www.w3.org/2000/svg">
<g clip-path="url(#clip0_48_8356)">
<mask id="mask0_48_8356" style="mask-type:alpha" maskUnits="userSpaceOnUse" x="0" y="0" width="61" height="61">
<circle cx="30.3008" cy="30.3389" r="30.002" fill="white"/>
</mask>
<g mask="url(#mask0_48_8356)">
<path d="M60.3027 0.336914H0.298828V60.3408H60.3027V0.336914Z" fill="#CDEAFE"/>
<path d="M20.3001 36.5898H0.298828V50.3407H20.3001V36.5898Z" fill="#21201F"/>
<path d="M10.2998 36.5898C13.0622 36.5901 15.2996 38.8275 15.2998 41.5898V49.0908C15.2997 51.8533 13.0622 54.0906 10.2998 54.0908H5.29883C3.25442 54.0906 1.43912 52.7164 0.298828 50.5918V40.0889C1.43913 37.9642 3.25452 36.59 5.29883 36.5898H10.2998Z" fill="#42413E"/>
<path d="M37.8018 36.5898C41.2535 36.5902 44.0518 40.5082 44.0518 45.3408C44.0516 50.1732 41.2534 54.0895 37.8018 54.0898V54.0908H32.8008C30.0383 54.0906 27.8009 51.8533 27.8008 49.0908V41.5898C27.801 38.8274 30.0384 36.59 32.8008 36.5898H37.8018Z" fill="#42413E"/>
<path fill-rule="evenodd" clip-rule="evenodd" d="M0.298828 38.2822C1.00897 37.4771 1.97484 36.9039 3.07356 36.6854C3.55658 36.5893 4.13744 36.5893 5.29915 36.5893C6.46087 36.5893 7.04172 36.5893 7.52475 36.6854C9.50833 37.0799 11.0589 38.6305 11.4535 40.6141C11.5496 41.0971 11.5496 41.678 11.5496 42.8397V43.4647C11.5496 45.2093 11.5496 46.0816 11.7649 46.7914C12.2497 48.3895 13.5003 49.6401 15.0984 50.1249C15.8082 50.3402 16.6804 50.3402 18.425 50.3402H40.0514C43.8014 50.3402 45.6764 50.3402 46.9908 49.3852C47.4153 49.0768 47.7886 48.7035 48.097 48.279C49.052 46.9645 49.052 45.0896 49.052 41.3396V16.838C49.052 13.088 49.052 11.213 48.097 9.89861C47.7886 9.47411 47.4153 9.1008 46.9908 8.79238C45.6764 7.8374 43.8014 7.8374 40.0514 7.8374H0.298828V38.2822Z" fill="#0596FA"/>
<path fill-rule="evenodd" clip-rule="evenodd" d="M0.298828 34.0892H3.54904C6.34948 34.0892 7.74971 34.0892 8.81933 33.5442C9.76021 33.0648 10.5252 32.2998 11.0046 31.359C11.5496 30.2893 11.5496 28.8891 11.5496 26.0887V18.3382C11.5496 15.5377 11.5496 14.1375 11.0046 13.0679C10.5252 12.127 9.76021 11.362 8.81933 10.8826C7.74971 10.3376 6.34948 10.3376 3.54904 10.3376H0.298828V34.0892ZM48.3699 10.3376C49.052 11.6322 49.052 13.486 49.052 16.8381V18.0882V20.3383V34.0892H22.0502C19.2498 34.0892 17.8496 34.0892 16.7799 33.5442C15.8391 33.0648 15.0741 32.2998 14.5947 31.359C14.0497 30.2893 14.0497 28.8891 14.0497 26.0887V18.3382C14.0497 15.5377 14.0497 14.1375 14.5947 13.0679C15.0741 12.127 15.8391 11.362 16.7799 10.8826C17.8496 10.3376 19.2498 10.3376 22.0502 10.3376H46.5518H47.3591H48.3699Z" fill="#42413E"/>
<path fill-rule="evenodd" clip-rule="evenodd" d="M0.298828 34.0892H3.54904C6.34948 34.0892 7.74971 34.0892 8.81933 33.5442C9.76021 33.0648 10.5252 32.2998 11.0046 31.359C11.5496 30.2893 11.5496 28.8891 11.5496 26.0887V18.3382C11.5496 15.5377 11.5496 14.1375 11.0046 13.0679C10.5252 12.127 9.76021 11.362 8.81933 10.8826C7.74971 10.3376 6.34948 10.3376 3.54904 10.3376H0.298828V34.0892ZM48.3699 10.3376C49.052 11.6322 49.052 13.486 49.052 16.8381V18.0882V20.3383V34.0892H22.0502C19.2498 34.0892 17.8496 34.0892 16.7799 33.5442C15.8391 33.0648 15.0741 32.2998 14.5947 31.359C14.0497 30.2893 14.0497 28.8891 14.0497 26.0887V18.3382C14.0497 15.5377 14.0497 14.1375 14.5947 13.0679C15.0741 12.127 15.8391 11.362 16.7799 10.8826C17.8496 10.3376 19.2498 10.3376 22.0502 10.3376H46.5518H47.3591H48.3699Z" fill="url(#paint0_linear_48_8356)"/>
<path d="M5.29907 50.3407C7.37027 50.3407 9.04932 48.102 9.04932 45.3404C9.04932 42.5788 7.37027 40.3401 5.29907 40.3401C3.22787 40.3401 1.54883 42.5788 1.54883 45.3404C1.54883 48.102 3.22787 50.3407 5.29907 50.3407Z" fill="#C4C2BE"/>
<path d="M21.5508 40.34C21.5508 38.9649 22.6759 37.8398 24.0509 37.8398C25.426 37.8398 26.5511 38.9649 26.5511 40.34V42.8402C26.5511 44.2153 25.426 45.3403 24.0509 45.3403C22.6759 45.3403 21.5508 44.2153 21.5508 42.8402V40.34Z" fill="#F1F0ED"/>
<path d="M41.5508 40.34C41.5508 38.9649 42.6759 37.8398 44.0509 37.8398C45.426 37.8398 46.5511 38.9649 46.5511 40.34V42.8402C46.5511 44.2153 45.426 45.3403 44.0509 45.3403C42.6759 45.3403 41.5508 44.2153 41.5508 42.8402V40.34Z" fill="#F1F0ED"/>
</g>
</g>
<defs>
<linearGradient id="paint0_linear_48_8356" x1="28.4257" y1="34.0892" x2="49.052" y2="10.3376" gradientUnits="userSpaceOnUse">
<stop stop-color="#4B4A45"/>
<stop offset="1" stop-color="#746F62"/>
</linearGradient>
<clipPath id="clip0_48_8356">
<rect width="60.0039" height="60.0039" fill="white" transform="translate(0.298828 0.336914)"/>
</clipPath>
</defs>
</svg>
