<svg width="61" height="61" viewBox="0 0 61 61" fill="none" xmlns="http://www.w3.org/2000/svg">
<path d="M60.2812 30.6816C60.2812 14.1131 46.8498 0.681641 30.2812 0.681641C13.7127 0.681641 0.28125 14.1131 0.28125 30.6816C0.28125 47.2502 13.7127 60.6816 30.2812 60.6816C46.8498 60.6816 60.2812 47.2502 60.2812 30.6816Z" fill="#00ADFF"/>
<path d="M45.797 24.8062H31.2049C31.044 24.8064 30.8848 24.775 30.7368 24.7139C30.5889 24.6528 30.4553 24.5632 30.3443 24.4507C30.2334 24.3382 30.1473 24.2052 30.0913 24.0595C30.0353 23.9139 30.0105 23.7586 30.0185 23.6034V8.65648C30.0084 8.39746 29.9119 8.14867 29.7434 7.94691C29.5748 7.74516 29.3432 7.60128 29.0832 7.53691C28.8231 7.47253 28.5486 7.49113 28.3002 7.58969C28.0519 7.68824 27.8432 7.86157 27.7052 8.08393L13.0539 34.7707C12.9479 34.9478 12.8929 35.149 12.8946 35.3535C12.8963 35.5579 12.9547 35.7581 13.0636 35.9333C13.1726 36.1087 13.3282 36.2526 13.5142 36.3503C13.7003 36.4479 13.9099 36.4957 14.1215 36.4888H28.6543C28.815 36.4809 28.9756 36.505 29.1264 36.559C29.2773 36.6132 29.4152 36.6962 29.5317 36.8033C29.6483 36.9104 29.7411 37.0394 29.8044 37.1822C29.8677 37.325 29.9001 37.4788 29.8999 37.6341V52.6384C29.8809 52.9044 29.9584 53.1684 30.1193 53.3849C30.2803 53.6017 30.5145 53.7572 30.7815 53.8251C31.0485 53.8929 31.3318 53.8691 31.5823 53.757C31.8329 53.6449 32.035 53.4518 32.154 53.2114L46.8647 26.5241C46.953 26.345 46.994 26.1476 46.984 25.9495C46.9742 25.7514 46.9136 25.5589 46.8078 25.3888C46.7021 25.2188 46.5548 25.0766 46.3783 24.975C46.2019 24.8733 46.0021 24.8152 45.797 24.8062Z" fill="#FFEA00"/>
</svg>
