<svg width="401" height="401" viewBox="0 0 401 401" fill="none" xmlns="http://www.w3.org/2000/svg">
<path d="M0.5 200.681C0.5 90.2237 90.0431 0.680664 200.5 0.680664C310.957 0.680664 400.5 90.2237 400.5 200.681C400.5 311.138 310.957 400.681 200.5 400.681C90.0431 400.681 0.5 311.138 0.5 200.681Z" fill="url(#paint0_radial_338_28379)"/>
<path opacity="0.7" fill-rule="evenodd" clip-rule="evenodd" d="M153.141 264.789C262.575 295.93 234.698 305.957 263.606 323.887C292.509 341.821 336.962 324.093 337.79 297.507C338.623 270.921 308.592 275.855 290.187 241.299C271.782 206.739 258.327 203.168 225.041 201.603C36.5942 192.758 73.0597 253.959 153.137 264.789" fill="white"/>
<path d="M230.17 256.04C228.896 254.341 220.652 255.531 219.975 256.89C219.125 258.589 213.052 272.342 215.601 277.015C218.061 281.52 228.833 282.748 230.885 279.455C237.371 269.617 233.783 260.406 230.17 256.044" fill="#2C1330"/>
<path d="M232.719 264.962C232.719 264.112 231.444 255.192 230.17 253.492C228.896 251.793 220.652 252.983 219.975 254.342C219.125 256.041 217.014 268.743 218.17 272.583C219.735 277.769 227.625 277.517 229.733 274.905C232.281 274.055 232.719 265.811 232.719 264.962Z" fill="#50AE32"/>
<path d="M238.194 251.115C238.194 249.075 241.941 249.697 243.216 248.991C243.497 248.709 244.99 239.645 249.663 242.619C253.751 245.218 251.787 248.141 254.336 248.991C256.885 249.84 264.956 250.265 265.806 254.088C266.47 257.062 261.587 262.479 256.91 262.054C250.441 261.466 238.189 258.589 238.189 251.115" fill="#2C1330"/>
<path d="M238.568 249.383C238.568 247.343 239.889 245.812 241.163 242.838C241.445 242.557 245.365 237.913 250.038 240.887C251.838 242.031 252.688 244.567 256.511 246.691C258.862 247.995 264.956 248.361 265.806 252.184C266.466 255.158 260.582 258.775 255.909 258.35C251.237 257.925 250.888 255.755 243.59 253.631C239.086 252.319 238.568 251.932 238.568 249.383Z" fill="#50AE32"/>
<path d="M241.219 239.898C241.219 241.307 243.313 242.447 245.892 242.447C248.47 242.447 250.14 241.303 250.14 239.898C250.14 239.276 248.474 238.199 245.892 238.199C243.309 238.199 241.219 238.489 241.219 239.898Z" fill="#161616"/>
<path d="M219.975 254.509C219.975 256.763 222.565 258.589 225.762 258.589C228.959 258.589 231.024 256.763 231.024 254.509C231.024 253.512 228.959 251.792 225.762 251.792C222.565 251.792 219.975 252.259 219.975 254.509Z" fill="#161616"/>
<path d="M221.249 257.315L217.426 207.18L234.418 209.304L228.895 258.16C227.629 261.386 223.381 260.111 221.249 257.31" fill="#FACDB9"/>
<path d="M242.067 241.598L241.643 210.158L251.838 208.459L248.864 241.598C248.015 242.447 243.767 242.872 242.067 241.598Z" fill="#FACDB9"/>
<path d="M250.14 239.898C250.14 241.598 250.564 241.598 249.715 243.297C248.865 245.421 241.219 244.996 241.219 242.872V239.898C243.343 242.022 248.865 241.598 250.14 239.898Z" fill="#161616"/>
<path d="M230.889 255.191C230.595 256.891 230.595 258.165 229.32 259.439C227.621 261.988 222.523 261.563 221.249 259.439C219.975 257.74 219.975 254.767 219.975 254.767C222.099 258.165 229.333 257.299 230.889 255.191Z" fill="#161616"/>
<path d="M256.503 229.022L259.477 198.008L208.93 201.659V236.244C214.452 244.143 228.895 242.444 235.263 238.368L237.395 225.027L239.936 236.244C239.936 236.244 248.815 237.359 256.503 229.022Z" fill="#2C1330"/>
<path d="M246.74 235.221C244.254 236.583 242.652 236.722 239.518 236.07C238.669 231.397 238.29 227.095 237.344 224.601C240.54 229.934 242.378 232.802 246.74 235.221Z" fill="#161616"/>
<path d="M200.434 186.79L207.655 188.914C205.569 191.29 205.519 196.241 206.806 203.357C204.324 197.839 202.94 194.155 200.434 186.79Z" fill="#161616"/>
<path fill-rule="evenodd" clip-rule="evenodd" d="M181.494 117.207C210.149 203.475 171.787 172.553 258.392 179.922C264.94 180.477 280.115 115.567 273.626 99.8364C269.054 88.7495 268.166 93.1784 246.11 92.9933C243.082 92.9681 167.972 100.261 181.494 117.207Z" fill="#FFE907"/>
<path fill-rule="evenodd" clip-rule="evenodd" d="M180.018 90.25C168.241 99.6629 175.9 116.571 181.679 118.169C189.384 120.297 205.409 110.594 230.544 108.285C251.809 106.329 267.657 112.878 275.101 107.751C279.694 104.588 283.505 87.2806 274.635 80.1136C261.209 69.2707 199.226 81.8212 180.018 90.2542" fill="#E94B39"/>
<path d="M197.823 96.4256C197.823 96.4256 203.623 88.3712 206.218 85.3093C208.813 82.2474 212.481 79.2233 212.481 79.2233C212.481 79.2233 208.329 77.7723 206.946 76.7965C205.503 75.7787 204.216 74.5295 203.274 73.028C200.452 68.5402 203.972 63.6361 214.663 61.8444C224.013 60.2713 233.266 63.6866 237.371 66.0335C248.05 72.1237 257.244 85.6752 249.611 97.6706C248.118 100.017 246.204 102.091 243.983 103.773C237.8 108.459 230.028 109.767 222.47 108.951C217.372 108.4 213.044 107.723 207.194 104.295C201.343 100.867 197.814 96.434 197.814 96.434H197.823V96.4256Z" fill="black"/>
<path d="M225.518 107.218C221.329 108.573 217.649 111.172 214.557 114.339C210.936 118.044 208.905 123.323 206.524 127.84C201.607 137.169 182.802 187.459 182.802 187.459C182.802 187.459 175.749 175.342 174.353 174.11C174.328 174.084 161.727 183.863 159.586 183.367C154.888 182.278 169.095 152.478 164.519 154.005C160.919 155.208 158.749 157.664 155.792 159.738C152.238 162.232 152.137 194.874 148.621 197.562C142.446 202.285 119.894 211.412 124.605 217.599C132.087 227.424 148.251 236.568 159.981 239.731C171.24 242.772 186.285 242.603 196.262 235.314C200.106 232.505 206.078 219.105 207.319 216.354C204.623 215.698 234.586 223.504 257.088 203.597C261.462 199.728 263.96 194.1 262.139 188.216C259.557 179.872 257.504 170.673 255.027 161.075C257.504 168.533 264.856 177.491 269.47 182.972C273.718 188.027 278.303 193.512 283.627 197.453C285.823 199.076 288.288 200.157 290.63 201.465C294.773 203.783 300.119 205.852 304.817 206.1C310.726 206.407 317.01 203.644 321.178 199.484C348.18 172.541 358.775 125.131 357.993 122.112C356.891 117.864 352.866 119.281 349.429 120.122C341.186 122.145 333.026 124.526 324.791 126.65C319.634 127.983 314.444 129.312 309.178 130.179C305.549 130.772 301.418 130.309 297.785 130.41C297.591 134.157 293.982 154.304 291.572 168.6C290.496 168.646 276.027 151.696 272.974 146.838C270.606 143.07 268.305 139.255 266.038 135.423C261.777 128.219 257.824 120.635 253.101 113.729C251.187 110.932 249.122 109.086 246.043 107.588C240.121 104.716 235.162 105.464 228.862 106.415C227.714 106.587 226.599 106.857 225.518 107.206V107.214V107.218Z" fill="#50AE32"/>
<path d="M348.525 131.204C344.752 133.105 340.748 134.489 338.742 135.221C332.361 137.542 326.12 139.835 319.289 140.486C314.562 140.936 309.039 141.445 304.455 140.188C301.246 139.305 298.02 137.437 297.313 134.064C296.283 129.147 301.187 126.085 304.661 123.755C309.233 120.697 315.298 119.6 320.56 118.372C325.855 117.135 331.365 116.185 336.761 116.206C341.223 116.218 345.74 115.57 350.102 116.639C352.579 117.244 356.348 118.304 357.084 121.143C358.14 125.219 353.534 128.676 348.516 131.208L348.525 131.204Z" fill="black"/>
<path fill-rule="evenodd" clip-rule="evenodd" d="M312.53 123.777L311.146 140.975C311.769 141.038 324.87 141.177 334.271 136.824C338.027 129.69 337.93 123.167 337.93 123.167L312.526 123.777H312.53Z" fill="#FACAB5"/>
<path fill-rule="evenodd" clip-rule="evenodd" d="M373.352 88.2153C367.594 114.082 356.243 133.93 329.526 134.628C302.814 135.326 284.645 114.738 290.407 88.8715C295.652 65.3056 317.367 42.8122 337.211 40.2466C365.883 36.5411 377.933 67.6272 373.352 88.2153Z" fill="#FFE907"/>
<path fill-rule="evenodd" clip-rule="evenodd" d="M358.72 86.5118C356.049 99.3104 351.465 105.952 343.146 115.836C336.79 123.385 328.921 127.377 318.839 126.506C308.661 125.623 301.267 119.772 296.582 110.923C292.758 103.323 292.371 95.3358 293.873 87.088C297.974 69.7216 309.258 53.9872 326.229 47.2451C341.926 41.0077 350.434 46.4333 356.495 61.4023C359.801 69.566 360.062 77.9064 358.72 86.5118Z" fill="#1D112D"/>
<path d="M175.85 175.392C171.374 169.138 155.27 181.045 151.442 183.556C141.016 190.39 131.527 198.81 125.168 209.573C121.198 216.286 124.276 219.819 131.519 218.73C139.043 217.603 144.339 214.747 150.799 210.97C159.774 205.725 165.688 197.868 171.534 189.461C173.869 186.104 178.386 180.355 176.245 176.052C176.127 175.812 175.993 175.594 175.85 175.392Z" fill="black"/>
<path d="M232.092 148.651C230.729 148.516 229.838 147.074 229.27 145.787C224.395 134.738 223.045 120.45 225.977 110.491C226.12 110.003 227.104 110.015 227.508 109.7C227.777 109.49 226.898 108.787 227.23 108.72C230.363 108.051 233.4 107.021 236.206 105.485C237.106 104.993 238.094 104.299 238.119 103.277C239.457 108.396 240.416 113.944 240.361 119.239C240.327 122.461 239.982 125.682 239.478 128.862C238.83 132.925 237.926 136.942 236.963 140.942C236.513 142.817 236.02 144.744 235.078 146.456C234.477 147.549 233.531 148.668 232.286 148.668C232.218 148.668 232.151 148.668 232.088 148.659L232.092 148.651Z" fill="black"/>
<path d="M226.591 107.714C226.499 108.353 226.347 108.984 226.128 109.59C226.027 109.88 225.905 110.187 225.969 110.486C226.04 110.81 226.301 111.045 226.566 111.243C231.142 114.667 236.046 111.933 238.616 108C238.763 107.777 239.167 107.058 239.196 106.797C239.234 106.436 238.212 97.9942 237.905 93.1153C239.175 92.8504 240.105 92.3162 241.379 90.6423C242.267 89.473 242.797 87.9252 242.801 86.4615C242.801 84.8843 242.553 82.8739 241.375 81.7004C239.558 79.8919 237.228 81.3934 235.461 82.5248C234.523 80.3924 233.531 78.4703 232.341 76.4766C232.307 76.4178 232.265 76.3505 232.198 76.3294C232.122 76.3042 232.038 76.3505 231.966 76.3925C227.256 79.2357 221.275 80.2325 215.841 79.9718C214.894 79.9213 214.007 79.6143 213.061 79.6101C213.481 81.9107 213.881 84.0473 214.432 86.3396C214.57 86.9158 214.709 87.5004 214.663 88.0892C214.608 88.8253 214.276 89.5066 214.07 90.2132C213.557 91.9882 213.889 93.9229 214.663 95.6011C215.437 97.2792 216.619 98.7303 217.864 100.093C220.181 102.633 223.071 104.753 226.562 104.98C226.793 105.843 226.726 106.835 226.599 107.718H226.591V107.714Z" fill="#FACDB9"/>
<path d="M127.806 183.888C127.537 184.048 127.288 184.22 127.049 184.405C124.912 186.054 124.765 190.239 125.446 192.624C127.309 192.464 129.181 192.148 130.918 191.45C133.812 190.289 136.941 187.715 137.118 184.405C137.134 184.073 137.122 183.711 136.928 183.442C136.588 182.971 135.578 182.668 135.023 182.475C134.3 182.226 133.425 182.306 132.68 182.374C130.985 182.525 129.269 183.013 127.801 183.892" fill="#FACDB9"/>
<path d="M232.478 150.304C232.814 150.321 233.146 150.258 233.458 150.136C235.552 149.307 236.33 145.943 236.94 144.037C238.85 138.094 240.284 122.591 240.355 121.859C239.422 124.829 236.137 126.385 232.389 126.557C228.642 126.73 225.576 124.173 224.449 122.629C224.39 123.571 224.449 124.547 224.495 125.493C224.697 129.767 225.445 133.914 226.383 138.094C227.115 141.358 228.036 144.588 229.42 147.638C229.988 148.883 230.98 150.224 232.473 150.308H232.478V150.304Z" fill="black"/>
<path d="M235.002 94.4824C234.708 97.4686 231.705 105.102 223.873 105.872" stroke="black" stroke-width="0.841188" stroke-linecap="round" stroke-linejoin="round"/>
<path d="M221.094 86.8984C221.852 88.6733 221.406 90.5071 220.909 92.2736C220.863 92.4419 220.825 92.6438 220.947 92.7657C221.031 92.8498 221.166 92.8625 221.288 92.8667C222.596 92.9003 224.026 92.1432 225.38 91.239" stroke="black" stroke-width="0.841188" stroke-linecap="round" stroke-linejoin="round"/>
<path d="M229.897 84.0723C228.678 85.4728 226.768 86.5958 223.635 86.415L229.897 84.0723Z" fill="#FBCFB9"/>
<path d="M223.637 86.4323C224.856 85.0275 226.766 83.9087 229.899 84.0895" stroke="black" stroke-width="0.841188" stroke-linecap="round" stroke-linejoin="round"/>
<path d="M215.053 88.7068C216.613 86.9992 218.447 86.608 220.466 88.0212" stroke="black" stroke-width="0.841188" stroke-linecap="round" stroke-linejoin="round"/>
<path d="M227.065 94.4824C226.522 96.0554 223.561 97.4939 222.375 97.4686" stroke="black" stroke-width="0.841188" stroke-linecap="round" stroke-linejoin="round"/>
<path d="M168.847 193.258C168.885 193.191 164.157 185.872 167.51 176.59C169.844 169.831 169.057 161.941 168.721 155.14C168.7 154.685 168.683 154.235 168.67 153.789C174.306 138.534 166.206 131.389 159.102 113.724C157.365 105.236 167.875 81.1066 148.902 72.0554C134.892 68.1396 131.015 101.278 139.784 116.125C144.873 127.767 156.772 142.728 160.553 154.004C160.919 155.102 161.192 156.191 161.39 157.28C161.154 157.465 160.906 157.65 160.645 157.827C156.629 160.578 151.851 161.44 147.578 163.488C143.153 165.608 139.422 169.175 135.166 171.648C132.647 173.112 129.929 173.726 127.536 175.421C123.822 178.049 120.626 181.515 116.693 183.593C114.784 184.602 103.684 187.483 108.576 191.13C117.846 205.905 131.7 196.089 135.149 198.28C141.538 202.347 145.348 205.161 153.188 209.48C158.505 205.279 165.449 200.909 168.851 193.266" fill="#FACDB9"/>
<path d="M16.1384 85.0011C14.0228 97.5853 108.69 179.652 125.998 191.176C130.401 194.107 132.454 194.377 136.681 192.841C145.803 189.531 161.63 177.225 167.712 169.768C170.753 165.768 173.012 163.257 165.676 152.069C152.899 129.803 133.013 92.555 118.843 72.7156C112.972 64.8463 110.835 61.8306 91.1766 64.1397C71.0302 65.9398 26.0645 67.5423 21.0131 74.9321C18.8891 77.8847 16.7988 81.1064 16.1426 85.0053" fill="black"/>
<path d="M35.9523 75.5046C30.0178 77.3805 27.4017 83.9249 34.0513 90.9657C45.4746 103.474 121.518 176.334 127.776 182.243C132.487 187.177 136.436 186.798 138.636 185.57C147.793 180.746 162.543 167.619 163.847 165.777C168.196 160.965 165.176 157.1 163.35 154.459C154.8 141.799 125.35 91.075 113.001 73.4689C107.512 66.3525 102.406 67.6647 96.8375 68.1653C90.6254 69.4943 63.1143 70.5206 35.9481 75.5088" fill="white"/>
<mask id="mask0_338_28379" style="mask-type:luminance" maskUnits="userSpaceOnUse" x="30" y="67" width="137" height="120">
<path d="M35.9523 75.5046C30.0178 77.3805 27.4017 83.9249 34.0513 90.9657C45.4746 103.474 121.518 176.334 127.776 182.243C132.487 187.177 136.436 186.798 138.636 185.57C147.793 180.746 162.543 167.619 163.847 165.777C168.196 160.965 165.176 157.1 163.35 154.459C154.8 141.799 125.35 91.075 113.001 73.4689C107.512 66.3525 102.406 67.6647 96.8375 68.1653C90.6254 69.4943 63.1143 70.5206 35.9481 75.5088" fill="white"/>
</mask>
<g mask="url(#mask0_338_28379)">
<path d="M169.959 161.613C166.291 158.013 162.779 154.349 159.44 150.581C154.611 144.701 150.115 138.712 145.896 132.689C146.733 130.464 147.604 128.26 148.546 126.148C154.569 126.838 160.634 127.511 166.859 128.193C173.761 135.132 181.138 141.752 189.041 147.986C185.575 149.975 182.198 152.078 179.073 154.366C175.914 156.679 172.945 159.14 169.959 161.617" fill="white"/>
<path d="M166.859 128.189C160.634 127.512 154.569 126.835 148.546 126.145C144.521 119.466 140.723 112.879 137.068 106.364C139.117 104.236 141.173 102.2 143.327 100.224C147.07 104.888 150.767 109.561 154.649 114.255C158.519 118.927 162.649 123.592 166.855 128.193" fill="#E7E6E8"/>
<path d="M143.329 100.224C141.175 102.201 139.118 104.236 137.07 106.364C133.192 102.655 129.268 98.9535 125.31 95.2355C123.893 89.2967 122.45 83.5934 120.869 78.1257C120.377 76.5863 119.843 75.0764 119.338 73.5791C123.817 77.9112 128.133 82.2938 132.019 86.7101C135.972 91.1978 139.611 95.6645 143.329 100.228" fill="white"/>
<path d="M119.339 73.5789C119.844 75.0762 120.378 76.5904 120.87 78.1256C105.804 73.0237 105.741 80.2538 105.728 80.6365C102.158 78.1508 98.4606 75.644 94.6374 73.1079C93.9014 69.4361 93.0013 65.8779 91.9961 62.4037C96.2735 62.0673 100.572 61.7518 104.9 61.4658C110.086 65.5035 114.881 69.537 119.335 73.5789" fill="#E7E6E8"/>
<path d="M120.872 78.1262C122.453 83.5939 123.896 89.2972 125.313 95.2359C119.042 90.4075 112.523 85.5286 105.73 80.6371C105.743 80.2544 105.806 73.0244 120.872 78.1262Z" fill="#E7E6E8"/>
<path d="M137.072 106.365C140.722 112.88 144.525 119.466 148.55 126.145C147.608 128.261 146.737 130.46 145.9 132.685C140.235 127.239 134.687 121.72 129.24 116.156C131.743 112.762 134.346 109.477 137.072 106.36" fill="white"/>
<path d="M125.311 95.2347C129.269 98.9527 133.193 102.654 137.071 106.364C134.341 109.48 131.738 112.765 129.24 116.159C134.682 121.724 140.23 127.242 145.899 132.689C144.036 138.064 142.408 143.607 140.915 149.26C140.205 152.414 139.477 155.569 138.863 158.744C132.053 154.53 125.366 150.093 118.754 145.47C121.324 142.863 123.843 140.23 126.38 137.626C127.864 136.18 129.282 134.72 130.716 133.248C126.586 126.998 122.603 120.777 118.746 114.616C117.307 112.395 115.932 110.199 114.553 108C112.832 105.27 110.826 102.633 108.58 100.105C108.82 100.013 109.064 99.9033 109.303 99.8107C114.599 98.2377 119.945 96.7025 125.311 95.2305" fill="#E7E6E8"/>
<path d="M92.0003 62.4033C93.0013 65.8774 93.9014 69.4357 94.6416 73.1074C92.9214 76.8507 91.1969 80.7538 89.4262 84.8294C86.7134 83.2522 83.8281 81.7927 80.9218 80.4931C80.9344 80.4805 80.9681 80.4636 80.9807 80.451C77.0355 75.0842 72.716 69.8352 67.8203 64.6493C75.8705 63.8838 83.9038 63.1099 92.0045 62.4075" fill="#E7E6E8"/>
<path d="M105.728 80.6409C112.517 85.5324 119.04 90.4113 125.311 95.2398C119.944 96.7118 114.599 98.247 109.303 99.82C109.064 99.9126 108.82 100.022 108.58 100.114C105.451 96.5983 101.829 93.3092 97.8758 90.3609C95.1756 88.363 92.3618 86.5166 89.4219 84.8343C91.1926 80.7587 92.917 76.8556 94.6372 73.1123C98.4604 75.6485 102.157 78.1552 105.728 80.6409Z" fill="#E7E6E8"/>
<path d="M145.894 132.688C150.113 138.711 154.609 144.701 159.438 150.581C153.28 150.295 147.093 149.878 140.906 149.264C142.399 143.611 144.031 138.064 145.89 132.693" fill="#E7E6E8"/>
<path d="M159.439 150.581C162.775 154.35 166.291 158.013 169.958 161.613C166.51 164.499 163.069 167.388 159.591 170.257C156.133 173.108 152.554 175.876 148.916 178.576C145.177 172.132 141.808 165.453 138.855 158.749C139.47 155.574 140.197 152.419 140.908 149.265C147.095 149.879 153.282 150.295 159.439 150.581Z" fill="#E7E6E8"/>
<path d="M108.58 100.114C110.826 102.642 112.833 105.275 114.553 108.009C115.928 110.208 117.303 112.404 118.746 114.625C118.46 114.393 114.153 110.633 107.255 108.068C100.253 105.464 90.4527 103.786 79.6603 108.236C77.9611 105.199 76.2997 102.188 74.5879 99.1805C78.4574 97.7084 82.3605 96.2363 86.2257 94.7559C90.0994 93.2754 93.9773 91.8075 97.8804 90.3564C101.834 93.309 105.455 96.5939 108.585 100.11" fill="#E7E6E8"/>
<path d="M118.742 114.621C122.599 120.783 126.582 127.003 130.712 133.253C129.278 134.725 127.861 136.181 126.376 137.632C115.735 131.339 105.031 124.681 94.1121 117.67C89.3678 114.583 84.5562 111.445 79.6562 108.236C90.4487 103.786 100.249 105.465 107.251 108.068C114.149 110.634 118.456 114.39 118.742 114.625" fill="#E7E6E8"/>
<path d="M97.8714 90.3568C93.9683 91.8078 90.0904 93.2715 86.2167 94.7562C82.3515 96.2367 78.4483 97.7046 74.5789 99.1808C72.0006 94.7898 69.3635 90.4787 66.5918 86.1761C71.3908 84.2918 76.1435 82.3655 80.913 80.498C83.8193 81.7977 86.7088 83.2571 89.4174 84.8344C92.3574 86.5167 95.167 88.3632 97.8714 90.361" fill="#E7E6E8"/>
<path d="M67.8111 64.6458C72.7068 69.8359 77.0305 75.085 80.9715 80.4475C80.9589 80.4601 80.9252 80.477 80.9126 80.4896C79.9074 80.048 78.8853 79.6232 77.8675 79.1984C68.1308 75.2532 57.8472 71.0767 46.752 66.7488C53.7464 66.0338 60.7704 65.3482 67.8111 64.6416V64.6458Z" fill="#E7E6E8"/>
<path d="M67.8111 64.6458C72.7068 69.8359 77.0305 75.085 80.9715 80.4475C80.9589 80.4601 80.9252 80.477 80.9126 80.4896C79.9074 80.048 78.8853 79.6232 77.8675 79.1984C68.1308 75.2532 57.8472 71.0767 46.752 66.7488C53.7464 66.0338 60.7704 65.3482 67.8111 64.6416V64.6458Z" stroke="#E7E6E8" stroke-width="0.0925307" stroke-miterlimit="22.93"/>
<path d="M80.9165 80.4937C76.147 82.3654 71.3943 84.2875 66.5953 86.1718C54.5621 80.5568 41.7256 74.7022 27.623 68.5825C34.0329 68.0105 40.3965 67.3754 46.7559 66.7529C57.8511 71.0766 68.1389 75.2573 77.8714 79.2025C78.8935 79.6273 79.9113 80.0563 80.9165 80.4937Z" fill="white"/>
<path d="M94.1114 117.67C105.034 124.681 115.734 131.339 126.375 137.631C123.839 140.239 121.315 142.868 118.75 145.475C115.549 148.714 112.298 151.906 108.946 155.036C103.465 147.204 98.1365 139.352 93.0137 131.541C93.3291 126.856 93.7076 122.229 94.1114 117.67Z" fill="#E7E6E8"/>
<path d="M98.4375 133.072C98.5973 130.397 98.774 127.739 98.9675 125.089C105.398 129.249 111.766 133.24 118.155 137.101C114.744 140.445 111.282 143.742 107.766 146.947C104.624 142.35 101.508 137.702 98.4375 133.072Z" fill="#E7E6E8"/>
<path d="M118.753 145.476C125.365 150.098 132.052 154.535 138.862 158.75C141.81 165.454 145.183 172.133 148.922 178.577C145.835 180.793 142.63 182.875 139.337 184.865C130.004 181.42 120.805 177.391 111.754 172.873C110.753 167.04 109.803 161.084 108.953 155.032C112.305 151.903 115.556 148.71 118.757 145.472" fill="#E7E6E8"/>
<path d="M79.6564 108.232C84.5521 111.442 89.3637 114.579 94.1122 117.666C93.7085 122.226 93.3299 126.852 93.0145 131.538C92.5687 138.486 92.1228 145.463 91.6854 152.332C85.4564 145.442 79.3662 138.532 73.3223 131.584C69.8608 123.815 66.4329 116.14 62.9883 108.556V108.544C68.8472 110.062 74.542 110.218 79.6606 108.232" fill="#E7E6E8"/>
<path d="M74.583 99.1763C76.2948 102.184 77.9562 105.195 79.6554 108.232C74.5368 110.217 68.8419 110.061 62.983 108.543V108.556C61.1324 104.619 59.2524 100.737 57.3092 96.8757C56.3503 94.9704 55.324 93.0399 54.2852 91.1388C58.4196 89.5027 62.5414 87.8582 66.5917 86.1758C69.3677 90.4785 72.0006 94.7895 74.5788 99.1806" fill="#E7E6E8"/>
<path d="M66.597 86.1713C62.5425 87.8537 58.4249 89.5024 54.2904 91.1343C55.3293 93.0354 56.3513 94.9659 57.3145 96.8712C48.9363 96.0216 40.4024 94.9533 31.5657 93.6326C24.3778 85.7591 16.4328 77.9613 7.17969 70.2013C14.0185 69.7092 20.8406 69.1751 27.6248 68.582C41.7315 74.7017 54.5638 80.5563 66.597 86.1713Z" fill="#E7E6E8"/>
<path d="M93.0146 131.541C98.1375 139.351 103.466 147.204 108.947 155.035C109.796 161.088 110.747 167.043 111.748 172.877C104.8 166.152 98.1711 159.3 91.6855 152.335C92.123 145.467 92.5688 138.489 93.0146 131.541Z" fill="#E7E6E8"/>
<path d="M111.746 172.877C120.797 177.394 129.996 181.423 139.329 184.868C135.981 186.744 132.608 188.502 128.755 189.873C125.003 191.206 120.688 192.077 116.213 192.636C114.623 186.706 113.109 180.006 111.746 172.877Z" fill="#E7E6E8"/>
<path d="M111.746 172.877C120.797 177.394 129.996 181.423 139.329 184.868C135.981 186.744 132.608 188.502 128.755 189.873C125.003 191.206 120.688 192.077 116.213 192.636C114.623 186.706 113.109 180.006 111.746 172.877Z" stroke="#E7E6E8" stroke-width="0.0925307" stroke-miterlimit="22.93"/>
<path d="M57.3096 96.8749C59.2486 100.74 61.1286 104.622 62.9834 108.555C66.4323 116.138 69.8559 123.818 73.3174 131.582C79.3656 138.535 85.4516 145.445 91.6806 152.33C89.5229 155.363 87.2097 158.231 84.7197 160.822C75.6139 149.521 66.9034 138.173 58.2223 126.851C49.6338 115.654 40.8181 104.58 31.5566 93.6279C40.3933 94.9528 48.9314 96.0169 57.3054 96.8665" fill="#E7E6E8"/>
<path d="M91.6854 152.335C98.171 159.3 104.8 166.151 111.748 172.877C113.111 180.006 114.625 186.706 116.214 192.636C110.225 187.816 104.446 182.672 99.3571 177.411C94.0786 171.956 89.4058 166.45 84.7246 160.827C87.2187 158.236 89.5278 155.367 91.6854 152.335Z" fill="#E7E6E8"/>
<path d="M91.3203 164.738C92.5064 163.48 93.5747 162.096 94.6094 160.688C98.3148 164.565 102.159 168.418 105.999 172.245C106.525 175.627 107.067 179.025 107.543 182.159C101.902 176.489 96.4978 170.656 91.3245 164.734" fill="#D1D3D4"/>
<path d="M119.82 114.452C119.08 114.574 118.357 114.688 117.587 114.785C116.212 112.572 114.82 110.364 113.444 108.164C111.766 105.536 109.827 102.966 107.648 100.497C104.608 97.107 101.133 93.9147 97.2639 91.0252C94.6941 89.0989 91.9813 87.3114 89.1717 85.6879C86.4925 84.1359 83.7502 82.7311 81.0038 81.4862C80.1289 81.1034 79.1573 80.687 78.0722 80.2538C67.7803 76.01 56.8322 71.5728 44.9883 66.921C46.1491 66.799 47.3394 66.6854 48.5002 66.5635C58.8679 70.6054 68.4869 74.4664 77.6726 78.1551C78.804 78.6135 79.8429 79.0509 80.7977 79.4673C83.8007 80.8006 86.8038 82.3189 89.6932 83.9677C92.7467 85.7089 95.6741 87.6142 98.4584 89.6751C102.576 92.7202 106.302 96.1228 109.533 99.7231C111.85 102.352 113.911 105.073 115.699 107.866C117.057 110.053 118.466 112.248 119.825 114.448" fill="white"/>
<path d="M113.965 190.807C112.652 185.545 111.357 179.699 110.305 173.516C109.212 167.115 108.265 160.545 107.336 153.904C111.079 150.459 114.751 146.96 118.322 143.376C121.905 139.776 125.472 136.168 129.051 132.588C125.119 126.616 121.312 120.69 117.607 114.797C118.377 114.696 119.104 114.587 119.84 114.465C123.878 120.904 128.059 127.415 132.412 133.943C128.782 137.644 125.186 141.417 121.581 145.16C117.998 148.878 114.293 152.562 110.545 156.167C111.546 162.711 112.501 169.121 113.779 175.417C115.016 181.508 116.488 187.278 117.914 192.426C117.342 192.502 116.77 192.573 116.215 192.636C115.491 192.035 114.722 191.421 113.965 190.807Z" fill="white"/>
<path d="M140.129 160.675C132.765 156.188 125.535 151.431 118.443 146.497C118.654 145.837 118.872 145.151 119.095 144.478C125.143 148.726 131.318 152.848 137.543 156.785C138.821 151.17 140.112 145.547 141.761 140.193C143.401 134.864 145.374 129.77 147.477 124.841C153.487 125.598 159.54 126.271 165.706 127.019C166.475 127.819 167.232 128.601 168.019 129.4C161.735 128.752 155.67 128.105 149.605 127.427C147.565 132.563 145.639 137.879 144.087 143.427C142.514 149.042 141.311 154.842 140.129 160.675Z" fill="white"/>
<path d="M147.913 179.27C143.993 172.52 140.519 165.542 137.428 158.48C138.395 158.661 139.312 158.813 140.25 158.981C143.144 165.374 146.34 171.704 149.915 177.87C149.238 178.32 148.607 178.82 147.913 179.27Z" fill="white"/>
<path d="M118.415 114.982C117.961 114.587 113.797 111.041 107.332 108.652C102.882 106.982 98.3567 106.196 93.7807 106.229C89.2509 106.263 84.6159 107.1 80.2291 108.896C75.4932 110.793 69.8236 110.936 63.3128 109.262C63.0983 108.787 62.888 108.311 62.6777 107.849C68.9656 109.472 74.446 109.325 79.0557 107.542C83.6275 105.695 88.3592 104.841 93.0573 104.833C97.7679 104.825 102.479 105.674 107.156 107.449C114.087 109.998 118.537 113.813 119.025 114.246C119.042 114.271 119.092 114.309 119.126 114.317C119.147 114.355 119.18 114.393 119.214 114.431C119.05 114.507 118.882 114.557 118.718 114.633C118.604 114.759 118.52 114.868 118.419 114.982" fill="white"/>
<path d="M138.186 185.529C129.059 182.113 120.134 178.156 111.298 173.773C104.282 166.997 97.3466 159.994 90.9493 153.013C84.4259 145.892 78.2306 138.75 71.9932 131.575C68.885 124.471 65.7726 117.388 62.5508 110.39C59.3795 103.504 55.8886 96.6571 52.3809 89.9865C56.8518 88.241 61.3143 86.4619 65.7684 84.7081C70.2014 82.9584 74.5798 81.2087 79.0213 79.5011C75.2822 74.5044 71.2067 69.5961 66.6096 64.7719C67.4129 64.6836 68.2204 64.6079 69.0069 64.5195C74.2476 70.0714 78.79 75.6905 82.9496 81.4358C82.7099 81.5284 82.466 81.5957 82.2388 81.6756C77.503 83.5851 72.7544 85.5324 67.9555 87.4461C64.086 89.0906 60.1661 90.6847 56.2125 92.2703C59.4595 98.5877 62.677 105.027 65.6632 111.529C68.7125 118.166 71.6146 124.803 74.6009 131.558C80.5102 138.346 86.5079 145.118 92.6149 151.881C98.928 158.686 105.422 165.386 112.202 171.977C121.447 176.545 130.868 180.671 140.474 184.204C139.717 184.645 138.943 185.087 138.186 185.529Z" fill="white"/>
<path d="M126.073 95.7312C120.601 97.237 115.179 98.8016 109.791 100.421C109.476 100.017 109.144 99.6175 108.799 99.2138C114.006 97.6996 119.246 96.1939 124.537 94.7555C123.145 88.905 121.707 83.2985 120.121 77.9233C119.545 76.1273 118.923 74.3566 118.304 72.5859C119.002 73.2421 119.696 73.9108 120.395 74.5711C120.798 75.8119 121.265 77.0653 121.623 78.3355C123.192 83.8831 124.647 89.6747 126.073 95.7354" fill="white"/>
<path d="M126.288 138.766C115.6 132.453 104.812 125.749 93.8893 118.721C88.8968 115.461 83.8034 112.147 78.7185 108.774C74.563 101.325 70.2645 93.9898 65.7431 86.8145C53.4618 81.0313 40.314 74.9958 25.9297 68.7331C27.0443 68.628 28.1757 68.5312 29.3071 68.4219C43.1025 74.3775 55.6909 80.0892 67.476 85.5611C72.0478 92.7743 76.4136 100.156 80.5901 107.684C85.2208 110.713 89.8179 113.69 94.3141 116.622C105.216 123.583 115.903 130.228 126.527 136.52C126.435 137.252 126.359 138.022 126.283 138.762" fill="white"/>
<path d="M83.3828 159.203C85.7592 156.714 87.9967 154.047 90.0913 151.191C90.5203 145.484 90.8904 139.675 91.2816 133.871C91.6727 128.1 92.1522 122.414 92.6359 116.795C93.6369 117.38 94.5916 117.943 95.58 118.528C95.0879 124.214 94.6463 129.997 94.2972 135.865C93.9439 141.761 93.6621 147.679 93.3046 153.488C93.2626 153.555 93.2205 153.584 93.2247 153.626C90.9998 156.793 88.6655 159.742 86.0704 162.434C85.1829 161.365 84.2787 160.289 83.387 159.208" fill="white"/>
<path d="M169.549 161.911C165.882 158.298 162.315 154.585 158.929 150.766C154.147 144.898 149.651 138.922 145.449 132.911C139.628 127.33 133.98 121.686 128.398 115.987C130.577 112.992 132.781 110.044 135.204 107.322C137.601 104.626 140.2 102.09 142.875 99.6592C143.191 100.05 143.489 100.425 143.784 100.791C141.672 102.738 139.645 104.744 137.673 106.843C135.031 109.875 132.512 113.038 130.064 116.336C135.385 121.761 140.814 127.145 146.358 132.449C149.798 137.408 153.256 142.328 157.327 147.266C161.238 152.002 165.747 156.751 170.332 161.259C170.071 161.499 169.823 161.714 169.545 161.916" fill="white"/>
<path d="M149.652 125.947C148.9 126.073 148.176 126.208 147.419 126.304C143.432 119.701 139.651 113.152 136.034 106.688C132.257 103.079 128.417 99.4495 124.577 95.8323C118.322 90.9913 111.833 86.1208 105.086 81.2167C101.234 78.5207 97.2505 75.7952 93.0993 73.0404C92.3674 69.4317 91.4589 65.9533 90.4453 62.5339C91.4674 62.4456 92.5399 62.3657 93.5745 62.2773C94.5503 65.8061 95.4546 69.4274 96.1822 73.1539C99.6774 75.4756 103.076 77.7847 106.377 80.0517C113.246 84.9768 119.769 89.8431 126.053 94.6715C130.112 98.4611 134.137 102.251 138.115 106.032C141.754 112.589 145.589 119.238 149.648 125.943" fill="white"/>
<path d="M75.777 100.543H75.7308C75.3312 100.068 74.9443 99.5884 74.5447 99.1131C74.1325 98.6883 73.7372 98.2635 73.3418 97.843C77.2449 96.3919 81.1438 94.9577 85.0175 93.4982C88.887 92.0388 92.8027 90.5877 96.71 89.1787C97.4965 89.9736 98.2326 90.7475 99.0022 91.534C95.1202 93.0229 91.2633 94.5287 87.4023 96.0344C83.5328 97.5443 79.6549 99.0501 75.7728 100.547" fill="white"/>
<path d="M109.53 154.946C109.147 155.009 108.76 155.085 108.39 155.136C102.876 147.283 97.5769 139.426 92.4414 131.629C92.8115 131.566 93.2153 131.54 93.5854 131.481C98.7377 139.292 104.004 147.123 109.53 154.951" fill="white"/>
<path d="M160.094 151.844C153.907 151.6 147.725 151.196 141.525 150.632C141.121 149.749 140.701 148.837 140.322 147.924C146.509 148.551 152.667 149.009 158.799 149.324C159.232 150.17 159.661 150.998 160.094 151.844Z" fill="white"/>
<path d="M90.1802 85.2838C89.6881 84.9978 89.1918 84.6824 88.666 84.3585C90.4073 80.283 92.1485 76.4093 93.8393 72.666C94.3819 72.9646 94.9034 73.2464 95.4586 73.5324C93.7089 77.2926 91.9845 81.2041 90.1802 85.2838Z" fill="white"/>
<path d="M120.967 79.0429C107.285 74.4122 107.259 80.9819 107.234 81.2595L107.251 81.2847C106.233 80.8725 105.245 80.4435 104.223 80.0187L104.235 80.0061C104.206 79.6528 104.042 71.5942 120.79 77.226C120.828 77.8316 120.912 78.4457 120.962 79.0471" fill="white"/>
<path d="M58.5249 98.302C58.4786 98.302 58.4324 98.3062 58.3861 98.323C50.0878 97.4944 41.617 96.4261 32.8729 95.1096C32.0064 94.1339 31.1274 93.1329 30.2441 92.1318C39.1649 93.4904 47.9049 94.5839 56.3925 95.4545C56.6827 95.9256 56.9729 96.3967 57.2757 96.8509C57.6921 97.3388 58.1085 97.8309 58.5249 98.3062" fill="white"/>
<path d="M69.113 122.044C63.3256 120.811 57.349 119.394 51.2672 117.796C50.8466 117.266 50.4597 116.748 50.0391 116.21C56.2975 117.85 62.434 119.297 68.3938 120.559C68.6251 121.059 68.9027 121.556 69.113 122.044Z" fill="white"/>
<path d="M152.625 166.909C149.138 169.533 144.612 170.282 144.394 170.294C144.028 169.84 143.708 169.399 143.338 168.936C143.414 168.932 148.267 168.175 151.695 165.399C156.149 161.66 156.385 156.608 152.629 150.325C153.037 150.325 153.47 150.299 153.874 150.291C157.933 156.983 157.743 162.581 153.079 166.572C152.898 166.661 152.772 166.804 152.625 166.917" fill="white"/>
<path d="M41.7253 95.4832C41.1365 95.1636 40.5645 94.8565 39.9883 94.5453C39.2396 86.9578 37.9863 79.4754 36.0137 72.1865C36.6782 72.4641 37.3259 72.7543 38.0073 73.0403C39.8074 80.3545 40.9851 87.8537 41.7211 95.4832" fill="white"/>
<path d="M94.3896 69.8653C86.7222 69.2764 78.9412 68.6371 70.9835 67.9347C70.5924 67.5478 70.1676 67.1398 69.7891 66.7402C77.7509 67.4847 85.6413 68.1408 93.4054 68.7507C93.7167 69.1124 94.0447 69.4909 94.3896 69.8653Z" fill="white"/>
<path d="M95.8106 105.526C95.39 105.551 95.003 105.589 94.5824 105.589C92.1304 101.758 89.6447 97.9387 87.1211 94.1744C87.5291 94.1744 87.9497 94.1744 88.3703 94.166C90.8602 97.9051 93.3417 101.699 95.8106 105.53" fill="white"/>
<path d="M40.3844 85.7428C40.2203 85.6755 36.1995 84.4263 31.085 81.6125C24.6415 78.2183 19.0014 74.1301 14.2949 69.6929C15.1025 69.6298 15.9268 69.5961 16.7133 69.5078C25.6047 78.845 38.3908 82.9122 38.9712 83.1014C39.438 83.9847 39.9175 84.8637 40.3844 85.747" fill="white"/>
<path d="M164.595 139.427C162.442 140.693 160.305 141.992 158.219 143.334C159.43 144.882 160.704 146.455 162.021 147.982C164.258 146.434 166.568 144.962 168.889 143.49C167.417 142.156 166.004 140.802 164.591 139.427" fill="#D1D3D4"/>
<path d="M156.549 131.15C155.195 131.02 153.811 130.881 152.469 130.738C152.015 131.794 151.624 132.888 151.203 133.964C152.41 135.63 153.63 137.312 154.866 138.99C156.81 137.829 158.791 136.723 160.772 135.613C159.363 134.128 157.954 132.631 156.549 131.146" fill="#D1D3D4"/>
<path d="M161.741 131.625C162.493 132.399 163.25 133.194 164.003 133.968C165.223 135.238 166.514 136.479 167.776 137.72C169.172 139.057 170.565 140.399 172.02 141.707C173.076 141.101 174.165 140.521 175.288 139.978C172.491 137.392 169.749 134.763 167.086 132.101C165.29 131.92 163.515 131.764 161.736 131.621" fill="#D1D3D4"/>
<path d="M127.795 176.216C131.08 177.588 134.382 178.929 137.759 180.094C136.758 177.15 135.917 174.113 135.143 171.089C131.98 169.882 128.906 168.62 125.844 167.3C126.462 170.32 127.063 173.306 127.8 176.212" fill="#E7E6E8"/>
<path d="M55.3122 73.3263C52.9316 72.3505 50.5258 71.3747 48.0191 70.3779C47.2326 70.4789 46.4587 70.563 45.668 70.6387C48.1284 71.6649 50.4754 72.6533 52.7928 73.6502C53.6088 73.5366 54.4584 73.4314 55.308 73.3263" fill="#D1D3D4"/>
<path d="M50.9247 73.8688C48.6366 72.872 46.2729 71.871 43.7956 70.8447C42.8829 70.9541 41.9744 71.0592 41.0449 71.156C43.4928 72.1948 45.8271 73.2001 48.1445 74.2347C49.0699 74.1127 49.9952 73.9908 50.9205 73.8688" fill="#D1D3D4"/>
<path d="M56.637 78.0203C58.8451 79.0213 61.0406 80.0223 63.1983 81.0107C63.8628 80.7331 64.5736 80.4808 65.2676 80.199C63.3539 79.3409 61.436 78.4913 59.455 77.6123C58.5129 77.7343 57.5918 77.8815 56.6328 78.0203" fill="#D1D3D4"/>
<path d="M102.75 90.0875C104.659 91.6185 106.514 93.1957 108.201 94.8192C111.01 94.0832 113.782 93.3219 116.609 92.5943C114.72 91.1264 112.764 89.6627 110.796 88.1738C108.104 88.7963 105.425 89.4356 102.75 90.0833" fill="#E7E6E8"/>
<path d="M107.941 86.0153C104.942 83.8366 101.88 81.6243 98.7214 79.3867C97.855 81.2962 96.9297 83.2394 96.0254 85.233C97.3292 86.0784 98.591 86.949 99.8065 87.8238C102.519 87.2266 105.211 86.6125 107.937 86.0111" fill="#E7E6E8"/>
<path d="M74.3008 123.415C75.4995 126.098 76.6982 128.781 77.88 131.452C80.7695 134.758 83.6632 138.064 86.5863 141.353C87.1752 134.051 87.7598 126.737 88.357 119.516C83.781 120.912 79.1166 122.237 74.305 123.41" fill="#E7E6E8"/>
<path d="M148.976 111.352C147.575 109.602 146.179 107.857 144.744 106.095C144.012 106.839 143.281 107.592 142.549 108.336C143.377 109.804 144.206 111.255 145.001 112.698C146.301 112.223 147.621 111.773 148.976 111.348" fill="#D1D3D4"/>
<path d="M148.364 118.616C149.095 119.853 149.857 121.085 150.567 122.292C153.36 122.662 156.187 123.02 159.059 123.411C157.167 121.203 155.24 118.961 153.364 116.74C151.653 117.321 150.021 117.973 148.359 118.612" fill="#D1D3D4"/>
<path d="M100.283 64.6953C99.6482 64.7332 99.0299 64.7963 98.3906 64.8509C98.7061 65.9781 99.0047 67.0927 99.2613 68.2409C101.053 69.8224 102.841 71.387 104.582 72.9432C105.04 72.8086 105.545 72.6992 106.13 72.6109C107.164 72.4973 108.304 72.4679 109.557 72.5352C106.584 69.9191 103.581 67.3072 100.283 64.6995" fill="#D1D3D4"/>
<path d="M108.572 69.6418C109.805 70.7017 110.97 71.7532 112.122 72.8004C112.803 72.9056 113.502 73.0318 114.246 73.2C114.015 72.527 113.771 71.8709 113.464 71.1896C112.757 70.5881 112.046 69.9698 111.34 69.3516C110.427 69.4483 109.485 69.545 108.572 69.6376" fill="#D1D3D4"/>
<path d="M167.34 148.294C166.293 149.017 165.25 149.741 164.236 150.473C166.015 152.475 167.891 154.472 169.818 156.386C171.075 155.415 172.337 154.456 173.595 153.492C171.454 151.814 169.384 150.081 167.34 148.294Z" fill="#D1D3D4"/>
<path d="M115.348 163.061C115.84 165.866 116.361 168.684 116.925 171.405C119.158 172.524 121.442 173.638 123.688 174.703C122.956 171.636 122.287 168.591 121.636 165.546C119.52 164.726 117.451 163.914 115.352 163.065" fill="#E7E6E8"/>
<path d="M121.188 163.3C121.05 162.585 120.907 161.84 120.797 161.121C122.656 159.149 124.477 157.113 126.286 155.081C124.713 154.042 123.153 152.978 121.609 151.897C119.338 154.328 117.012 156.684 114.652 159.031C114.766 159.645 114.884 160.255 114.964 160.843C117.05 161.68 119.119 162.517 121.184 163.3" fill="#E7E6E8"/>
<path d="M68.2288 96.0552C67.6232 95.0247 67.0049 93.9816 66.3866 92.9512C64.6117 93.704 62.8662 94.4569 61.0703 95.1971C61.4404 95.8869 61.7853 96.5893 62.126 97.2833C64.1827 96.8963 66.2226 96.48 68.233 96.0552" fill="#E7E6E8"/>
<path d="M63.4554 99.879C64.1956 101.402 64.919 102.928 65.6593 104.468C68.2417 104.72 70.6644 104.598 72.9187 104.119C71.8546 102.26 70.82 100.422 69.7222 98.5625C67.6403 99.0294 65.5373 99.4626 63.4512 99.879" fill="#E7E6E8"/>
<path d="M79.3523 119.908C78.3302 120.194 77.3082 120.467 76.2693 120.728C74.5828 118.562 72.8835 116.396 71.2012 114.242C72.2442 114.007 73.2957 113.759 74.3346 113.498C76.0001 115.626 77.6993 117.763 79.3523 119.904" fill="#E7E6E8"/>
<path d="M82.686 115.116C81.5756 115.436 80.4947 115.751 79.3633 116.042C80.2045 117.097 81.0288 118.157 81.8532 119.225C82.9678 118.923 84.0445 118.59 85.1549 118.262C84.3305 117.207 83.5061 116.159 82.6818 115.116" fill="#E7E6E8"/>
<path d="M30.4426 86.2769C29.4626 86.3358 28.4868 86.4199 27.5279 86.4914C26.0558 84.9731 24.5669 83.4421 23.1074 81.907C24.0706 81.8481 25.0295 81.764 26.0221 81.7051C27.4984 83.236 28.9705 84.7586 30.4426 86.2769Z" fill="#D1D3D4"/>
<path d="M37.0451 89.5702C36.5026 89.6164 35.9768 89.6627 35.4511 89.7174C34.0505 88.1275 32.5237 86.5461 30.9844 84.9647C31.4933 84.9058 32.0359 84.8763 32.5658 84.8301C34.0884 86.3989 35.6151 87.9677 37.0493 89.5702" fill="#D1D3D4"/>
<path d="M49.7915 83.6693C47.7432 82.6977 45.6571 81.7177 43.5793 80.7504C43.3732 79.8124 43.0872 78.8661 42.8223 77.9492C44.9967 78.925 47.1249 79.905 49.1732 80.8471C49.3962 81.785 49.6022 82.7314 49.7915 83.6693Z" fill="#D1D3D4"/>
<path d="M48.3676 87.2605C47.3119 86.7558 46.2015 86.2175 45.1122 85.6917C45.007 85.2123 44.9187 84.716 44.8262 84.207C45.9029 84.737 46.9922 85.2627 48.0816 85.7506C48.1867 86.2595 48.2792 86.7685 48.3676 87.2648" fill="#D1D3D4"/>
</g>
<path d="M48.7086 123.074C47.1986 121.669 35.5314 112.492 35.9982 110.965C34.3116 116.479 31.6619 121.097 31.4011 127.09C31.1572 132.731 31.6787 138.215 35.1781 142.594C38.2568 146.446 43.2577 149.613 48.4436 150.715C48.2922 150.682 50.2479 157.722 50.5634 158.404C52.4182 162.45 56.0521 166.744 60.195 168.527C63.5471 169.97 70.9412 169.562 70.9412 169.562C70.9412 169.562 69.2252 173.225 72.4848 178.117C75.7444 183.008 79.2942 184.531 82.0995 184.96C84.2193 185.284 87.786 185.107 87.7986 185.111C87.0878 185.145 89.6198 188.918 89.7628 189.246C91.34 192.842 95.5039 197.086 99.3313 197.759C106.435 199.008 111.398 198.209 117.938 195.164C122.111 193.22 125.442 188.893 124.483 184.043C123.877 180.985 121.942 178.845 119.162 177.772C118.09 177.356 111.68 175.871 111.1 177.137C115.541 167.48 104.719 157.979 95.4786 160.704C97.3923 154.976 96.7404 147.99 91.5629 144.234C91.5629 144.234 86.0784 140.259 75.1597 141.147C77.2964 139.801 77.7085 134.989 77.6034 133.727C77.2206 129.458 73.5993 126.569 69.8014 124.975C65.0949 122.994 59.3664 123.621 54.3656 123.562C52.7126 123.541 48.7128 123.086 48.7128 123.086L48.7086 123.074Z" fill="#FACDB9"/>
<path d="M83.7683 74.2602C82.9271 74.1256 82.0607 74.1593 81.2111 74.2139C76.5677 74.5168 71.4491 75.0047 67.3735 77.6418C66.6543 78.1086 65.9099 78.6764 65.5986 79.6017C64.9846 81.4271 66.4987 83.5595 68.1264 83.9759C69.7541 84.3923 71.3692 83.6857 72.9422 83.1558C75.9957 82.1337 79.1838 81.7846 82.3635 81.629C83.987 81.5491 86.5442 81.9655 87.6504 80.2158C89.0131 78.0666 86.7714 75.3664 85.0722 74.6261C84.6474 74.4411 84.2099 74.3233 83.7641 74.2518L83.7683 74.2602Z" fill="black"/>
<mask id="mask1_338_28379" style="mask-type:luminance" maskUnits="userSpaceOnUse" x="87" y="176" width="26" height="10">
<path d="M112.476 176.128H87.0801V185.957H112.476V176.128Z" fill="white"/>
</mask>
<g mask="url(#mask1_338_28379)">
<mask id="mask2_338_28379" style="mask-type:luminance" maskUnits="userSpaceOnUse" x="87" y="176" width="26" height="10">
<path d="M112.476 176.129H87.0801V185.958H112.476V176.129Z" fill="white"/>
</mask>
<g mask="url(#mask2_338_28379)">
<path d="M111.629 176.97C111.629 176.97 98.6706 184.532 87.916 185.117" stroke="black" stroke-width="1.68238" stroke-linecap="round" stroke-linejoin="round"/>
</g>
</g>
<mask id="mask3_338_28379" style="mask-type:luminance" maskUnits="userSpaceOnUse" x="47" y="139" width="30" height="13">
<path d="M76.5983 139.469H47.3418V151.628H76.5983V139.469Z" fill="white"/>
</mask>
<g mask="url(#mask3_338_28379)">
<mask id="mask4_338_28379" style="mask-type:luminance" maskUnits="userSpaceOnUse" x="47" y="139" width="30" height="13">
<path d="M76.5983 139.469H47.3418V151.628H76.5983V139.469Z" fill="white"/>
</mask>
<g mask="url(#mask4_338_28379)">
<path d="M75.7558 140.31C75.7558 140.31 62.7847 153.672 48.1816 150.215" stroke="black" stroke-width="1.68238" stroke-linecap="round" stroke-linejoin="round"/>
</g>
</g>
<mask id="mask5_338_28379" style="mask-type:luminance" maskUnits="userSpaceOnUse" x="70" y="159" width="27" height="12">
<path d="M96.3219 159.855H70.3418V170.37H96.3219V159.855Z" fill="white"/>
</mask>
<g mask="url(#mask5_338_28379)">
<mask id="mask6_338_28379" style="mask-type:luminance" maskUnits="userSpaceOnUse" x="70" y="159" width="27" height="12">
<path d="M96.3219 159.855H70.3418V170.37H96.3219V159.855Z" fill="white"/>
</mask>
<g mask="url(#mask6_338_28379)">
<path d="M95.4794 160.696C93.5741 163.468 80.7628 168.709 71.1816 169.529" stroke="black" stroke-width="1.68238" stroke-linecap="round" stroke-linejoin="round"/>
</g>
</g>
<path d="M213.88 175.548C213.703 185.873 210.742 203.791 207.895 213.944C204.904 224.623 199.163 234.818 188.346 239.381" stroke="black" stroke-width="1.26178" stroke-linecap="round" stroke-linejoin="round"/>
<path fill-rule="evenodd" clip-rule="evenodd" d="M190.469 117.447C190.339 117.767 212.521 159.422 213.463 181.945C222.38 163.275 210.027 122.717 200.176 114.709C198.843 114.852 192.088 117.001 190.465 117.447" fill="black"/>
<path fill-rule="evenodd" clip-rule="evenodd" d="M261.132 172.99C243.303 135.01 258.436 113.257 262.784 109.619C260.707 108.837 254.999 108.365 253.001 108.698C234.731 137.773 251.462 165.743 258.982 173.242C259.992 173.183 260.602 173.234 261.132 172.986" fill="black"/>
<path d="M271.136 106.919C282.08 100.661 276.318 81.759 271.267 81.6959C262.131 81.5782 258.396 98.0276 265.281 102.482C268.97 104.866 272.024 99.567 272.524 93.6072C272.776 90.5663 269.694 88.7661 268.646 95.0835" stroke="black" stroke-width="1.26178" stroke-linecap="round" stroke-linejoin="round"/>
<path fill-rule="evenodd" clip-rule="evenodd" d="M193.762 85.4184C191.743 87.9588 189.014 92.0343 188.025 98.0531C186.759 105.788 190.334 115.264 193.417 116.572C194.73 117.127 198.019 117.371 196.706 115.76C195.394 114.149 189.426 107.319 189.746 99.2644C190.065 91.21 195.23 85.9736 196.404 84.9473C197.182 83.9674 194.679 83.8874 193.758 85.4268" fill="black"/>
<path fill-rule="evenodd" clip-rule="evenodd" d="M259.405 76.5724C257.386 79.3988 254.656 83.9328 253.672 90.6203C252.406 99.2214 255.094 107.768 258.177 109.223C259.489 109.841 261.55 110.388 261.398 109.24C261.243 108.092 254.025 103.448 255.392 91.9619C256.759 80.4755 260.877 77.1823 262.05 76.0383C262.828 74.9447 260.326 74.8606 259.405 76.5682" fill="black"/>
<mask id="mask7_338_28379" style="mask-type:luminance" maskUnits="userSpaceOnUse" x="97" y="186" width="30" height="13">
<path d="M126.127 186.837H97.5938V198.866H126.127V186.837Z" fill="white"/>
</mask>
<g mask="url(#mask7_338_28379)">
<mask id="mask8_338_28379" style="mask-type:luminance" maskUnits="userSpaceOnUse" x="97" y="186" width="30" height="13">
<path d="M126.127 186.838H97.5938V198.867H126.127V186.838Z" fill="white"/>
</mask>
<g mask="url(#mask8_338_28379)">
<path d="M125.288 187.679C123.332 193.992 113.911 200.141 98.4375 197.319" stroke="black" stroke-width="1.68238" stroke-linecap="round" stroke-linejoin="round"/>
</g>
</g>
<path d="M224.651 268.179C224.651 268.179 228.529 270.547 228.268 272.793C228.007 275.039 221.206 270.879 221.206 270.879C221.206 270.879 218.716 269.226 219.158 267.666C219.49 266.488 221.774 266.429 221.774 266.429C221.774 266.429 219.023 265.781 219.415 264.494C219.801 263.203 223.982 262.699 223.982 262.699C223.982 262.699 227.086 262.438 227.267 263.578C227.448 264.713 225.29 264.898 224.159 264.806C224.159 264.806 228.605 265.533 228.483 267.275C228.356 269.016 224.647 268.183 224.647 268.183L224.651 268.179Z" fill="white"/>
<path d="M255.443 250.073C255.443 250.073 251.233 251.784 249.584 250.245C247.935 248.701 255.317 245.698 255.317 245.698C255.317 245.698 258.126 244.676 259.119 245.959C259.867 246.926 258.559 248.798 258.559 248.798C258.559 248.798 260.713 246.969 261.52 248.049C262.328 249.126 260.254 252.794 260.254 252.794C260.254 252.794 258.618 255.448 257.596 254.918C256.574 254.388 257.71 252.546 258.454 251.688C258.454 251.688 255.228 254.834 253.903 253.698C252.574 252.562 255.451 250.073 255.451 250.073H255.443Z" fill="white"/>
<path fill-rule="evenodd" clip-rule="evenodd" d="M125.745 120.306C123.844 120.306 122.3 121.846 122.3 123.751C122.3 125.656 123.844 127.196 125.745 127.196C127.646 127.196 129.19 125.652 129.19 123.751C129.19 121.85 127.646 120.306 125.745 120.306ZM125.745 116.012C127.882 116.012 129.816 116.878 131.217 118.279C132.618 119.68 133.484 121.614 133.484 123.751C133.484 125.109 133.131 126.384 132.517 127.494C131.385 129.614 130.254 131.73 129.127 133.841C127.999 135.957 126.868 138.072 125.741 140.188C124.609 138.072 123.482 135.952 122.351 133.837C121.219 131.721 120.092 129.601 118.961 127.482C118.351 126.375 118.002 125.101 118.002 123.747C118.002 121.61 118.868 119.675 120.269 118.275C121.67 116.874 123.604 116.008 125.741 116.008L125.745 116.012Z" fill="#E94B39"/>
<path fill-rule="evenodd" clip-rule="evenodd" d="M126.001 119.937C128.083 119.937 129.769 121.623 129.769 123.705C129.769 125.787 128.083 127.474 126.001 127.474C123.919 127.474 122.232 125.787 122.232 123.705C122.232 121.623 123.919 119.937 126.001 119.937Z" fill="white"/>
<path fill-rule="evenodd" clip-rule="evenodd" d="M358.745 87.6593C356.133 99.8187 351.292 106.784 343.347 116.188C336.971 123.734 328.677 127.696 318.65 126.337C308.694 124.991 301.755 118.766 297.645 109.841C294.579 102.801 294.377 95.6801 295.732 88.2145C300.072 69.9902 313.569 51.9761 332.504 47.665C344.794 44.8639 351.284 51.4756 356.049 62.0199C359.755 70.2089 360.104 78.8942 358.745 87.6593Z" fill="white"/>
<path d="M370.924 61.5029C370.924 61.5029 388.534 65.3766 386.359 78.1374C386.359 78.1374 385.657 84.4253 378.322 84.5851C378.322 84.5851 386.99 89.5902 388.324 98.2839C389.657 106.978 384.101 108.311 384.101 108.311C384.101 108.311 388.992 109.421 386.103 119.423C383.213 129.425 373.88 128.314 373.88 128.314C373.88 128.314 377.779 133.189 375.104 138.531C373.62 141.496 370.65 143.418 367.344 143.695C363.732 143.998 357.746 143.456 349.457 139.288C347.244 138.173 345.76 135.961 345.68 133.483C345.595 130.981 346.874 128.096 352.321 126.539C352.321 126.539 344.986 118.54 359.21 110.09C359.21 110.09 349.225 107.394 352.657 98.8517C353.911 95.7309 356.392 93.2704 359.484 91.9413C361.805 90.9445 365.124 90.0066 369.54 89.8762L370.011 85.5147C370.011 85.5147 358.293 87.2517 357.347 81.8891C356.19 75.3194 359.286 68.6867 372.539 67.7698L370.924 61.5071V61.5029Z" fill="#FACDB9"/>
<path d="M378.323 84.5898C378.323 84.5898 373.322 86.1965 373.183 89.4856L369.574 89.5318C369.574 89.3005 370.007 85.5194 370.007 85.5194L378.318 84.5898H378.323Z" fill="#2C1330"/>
<path d="M374.375 128.538C374.375 128.538 359.705 131.76 351.869 126.372" stroke="#2C1330" stroke-width="1.26178" stroke-miterlimit="22.93" stroke-linecap="round"/>
<path d="M384.654 108.201C384.654 108.201 370.816 112.647 358.539 110.035" stroke="#2C1330" stroke-width="1.26178" stroke-miterlimit="22.93" stroke-linecap="round"/>
<path d="M377.452 90.1576C377.452 90.1576 372.846 89.4888 366.23 90.1576" stroke="#2C1330" stroke-width="1.26178" stroke-miterlimit="22.93" stroke-linecap="round"/>
<path d="M376.343 67.5684C376.343 67.5684 370.842 67.7324 368.76 68.2371" stroke="#2C1330" stroke-width="1.26178" stroke-miterlimit="22.93" stroke-linecap="round"/>
<path fill-rule="evenodd" clip-rule="evenodd" d="M346.825 34.5429C347.51 32.7217 348.528 31.0267 349.697 29.2055C354.715 27.3801 361.836 31.1276 364.574 33.2054L362.891 39.0979C359.606 37.5753 350.109 36.0696 346.82 34.5471" fill="#FFE907"/>
<path fill-rule="evenodd" clip-rule="evenodd" d="M355.418 34.8412C359.855 36.0988 363.203 38.0041 362.892 39.0934C362.58 40.1869 358.732 40.0524 354.295 38.7948C349.858 37.5372 346.51 35.6319 346.821 34.5426C347.132 33.449 350.981 33.5836 355.418 34.8412Z" fill="#1D112D"/>
<path fill-rule="evenodd" clip-rule="evenodd" d="M346.67 41.1884L348.731 35.7207L359.578 38.1391L356.529 45.7561L346.67 41.1884Z" fill="#FFE907"/>
<path fill-rule="evenodd" clip-rule="evenodd" d="M351.297 64.6571C354.044 72.497 354.078 82.1033 351.609 91.1419C349.136 100.189 343.929 108.542 336.926 114.073C329.847 119.507 322.533 121.118 316.451 119.385C310.378 117.656 305.297 112.731 302.508 105.139C299.606 97.741 299.678 89.1231 302.42 81.1234C305.167 73.1152 310.538 65.4268 317.57 59.7151C324.518 53.8689 331.757 51.1434 337.775 51.8837C343.769 52.6197 348.69 57.0023 351.297 64.6613" fill="white"/>
<path fill-rule="evenodd" clip-rule="evenodd" d="M333.422 86.9119C329.296 86.0287 325.136 85.1833 320.98 84.3547C323.395 80.1992 325.83 76.0101 328.223 71.8084C330.637 67.573 333.039 63.3166 335.462 59.0518C335.066 63.6194 334.696 68.2207 334.368 72.8557C334.036 77.5201 333.737 82.2055 333.422 86.9161" fill="#E94B39"/>
<path fill-rule="evenodd" clip-rule="evenodd" d="M320.978 84.3535C325.133 85.1821 329.293 86.0275 333.419 86.9107C331.03 91.184 328.637 95.4488 326.21 99.6631C323.783 103.873 321.318 108.05 318.85 112.205C319.258 107.516 319.632 102.847 319.977 98.1911C320.322 93.5519 320.641 88.9422 320.974 84.3535" fill="#7D83BF"/>
<path fill-rule="evenodd" clip-rule="evenodd" d="M352.933 74.6173C352.966 75.0421 352.992 75.4669 353.013 75.8917C353.021 76.0515 353.025 76.2071 353.03 76.3754C353.038 76.6656 353.046 76.9642 353.051 77.2628C353.059 77.5699 353.051 77.8643 353.055 78.1545C353.059 78.3269 353.055 78.4952 353.055 78.6592C353.046 79.0966 353.03 79.5298 353.017 79.9588C353.017 79.9925 353.017 80.0261 353.017 80.0598C352.887 83.0334 352.479 86.0448 351.814 89.0058C351.305 88.8922 350.792 88.7661 350.291 88.6441C349.526 88.4717 348.647 89.2329 348.344 90.3475C348.029 91.4705 348.403 92.5178 349.168 92.7112C349.682 92.8374 350.182 92.9678 350.704 93.0856C349.48 96.8583 347.823 100.488 345.728 103.781C343.625 107.087 341.106 110.061 338.254 112.551C338.061 111.941 337.871 111.327 337.674 110.708C337.379 109.796 336.483 109.564 335.684 110.187C334.889 110.826 334.464 112.092 334.759 113.009C334.936 113.627 335.129 114.246 335.314 114.856C332.319 116.954 329.283 118.338 326.347 119.078C323.428 119.81 320.585 119.915 317.948 119.406C318.2 118.67 318.444 117.934 318.688 117.198C319.05 116.13 318.717 115.078 317.96 114.872C317.199 114.675 316.286 115.373 315.937 116.437C315.693 117.173 315.441 117.909 315.197 118.645C312.682 117.724 310.394 116.206 308.388 114.174C306.381 112.143 304.636 109.581 303.311 106.54C303.845 106.124 304.4 105.691 304.956 105.274C305.717 104.681 306.091 103.483 305.767 102.62C305.439 101.75 304.535 101.544 303.765 102.145C303.214 102.578 302.655 102.999 302.104 103.424C301.402 101.249 300.926 99.0075 300.695 96.7237C300.695 96.6396 300.682 96.5723 300.67 96.4882C300.636 96.1265 300.607 95.7774 300.586 95.4283C300.573 95.2769 300.565 95.1297 300.56 94.9782C300.535 94.6922 300.531 94.4189 300.527 94.1329C300.518 93.9015 300.514 93.6954 300.51 93.4683C300.51 93.2538 300.518 93.0393 300.518 92.8164C300.518 92.5346 300.527 92.2402 300.535 91.9416C300.527 91.7985 300.535 91.6513 300.544 91.5041C300.556 91.134 300.577 90.7723 300.607 90.4064C300.619 90.3265 300.619 90.2508 300.628 90.1877C300.842 87.8197 301.292 85.4013 302.003 82.9493C302.558 83.0544 303.13 83.1469 303.702 83.2353C304.497 83.3698 305.414 82.6632 305.755 81.658C306.095 80.6528 305.734 79.7401 304.943 79.6097C304.375 79.5298 303.812 79.4373 303.244 79.3574C304.682 75.7697 306.562 72.426 308.762 69.3935C310.979 66.3358 313.498 63.5641 316.19 61.1793C316.387 61.7092 316.589 62.2476 316.795 62.7776C317.09 63.5514 317.994 63.644 318.785 62.9879C319.584 62.3317 319.992 61.1541 319.706 60.3802C319.5 59.8418 319.31 59.3119 319.109 58.7735C321.88 56.6537 324.791 54.9629 327.697 53.7937C330.582 52.6328 333.476 52.044 336.269 52.1323C336.021 52.8515 335.789 53.5665 335.554 54.2774C335.217 55.3415 335.545 56.2836 336.29 56.3803C337.043 56.4771 337.934 55.6863 338.279 54.6138C338.506 53.8988 338.738 53.1796 338.973 52.4646C341.577 53.066 343.852 54.3362 345.753 56.1784C347.667 58.0333 349.219 60.4685 350.397 63.3411C349.904 63.7912 349.412 64.2286 348.92 64.6702C348.18 65.36 347.818 66.626 348.121 67.5177C348.432 68.4009 349.295 68.5775 350.047 67.9088C350.535 67.4588 351.019 67.0256 351.52 66.5713C352.226 69.0192 352.701 71.6984 352.908 74.5332C352.916 74.5584 352.912 74.592 352.916 74.6173M355.061 87.8744C355.132 87.4875 355.204 87.1005 355.267 86.7178C355.309 86.4486 355.355 86.192 355.389 85.9397C355.456 85.5191 355.515 85.0901 355.57 84.6653C355.604 84.455 355.633 84.2363 355.654 84.0091C355.717 83.5801 355.759 83.1469 355.793 82.7221C355.814 82.5202 355.843 82.2889 355.856 82.0702C355.89 81.6622 355.915 81.2501 355.936 80.8337C355.953 80.6065 355.969 80.3668 355.995 80.1313C356.016 79.7527 356.02 79.3574 356.028 78.9788C356.033 78.7223 356.041 78.4615 356.054 78.1965C356.058 77.8517 356.054 77.511 356.054 77.1619C356.054 76.8633 356.054 76.5646 356.041 76.266C356.041 75.9674 356.028 75.6772 356.02 75.3786C356.003 75.0463 355.995 74.6972 355.978 74.3565C355.961 74.1084 355.94 73.8644 355.927 73.6079C355.894 73.2419 355.869 72.8634 355.839 72.4975C355.814 72.2788 355.793 72.0601 355.768 71.854C355.721 71.467 355.692 71.0843 355.633 70.6889C355.612 70.487 355.583 70.302 355.553 70.1001C355.503 69.7132 355.452 69.3178 355.385 68.9308C355.343 68.7374 355.305 68.5481 355.271 68.3546C355.204 67.9761 355.137 67.6018 355.065 67.2274C355.019 67.0045 354.973 66.7942 354.918 66.5797C354.838 66.2475 354.767 65.9068 354.691 65.5745C354.628 65.2843 354.552 65.0109 354.468 64.7375C354.392 64.481 354.333 64.216 354.258 63.9678C354.11 63.4295 353.942 62.9037 353.761 62.399C353.593 61.8817 353.412 61.377 353.21 60.8891C353.118 60.6451 353.021 60.4264 352.92 60.2077C352.819 59.9554 352.718 59.7114 352.609 59.4717C352.483 59.1815 352.348 58.9081 352.214 58.6431C352.125 58.4749 352.05 58.2898 351.961 58.1216C351.814 57.8314 351.646 57.5622 351.503 57.2762C351.419 57.1332 351.343 56.9986 351.259 56.8556C351.091 56.5864 350.927 56.3172 350.758 56.048C350.666 55.9303 350.582 55.7873 350.498 55.6653C350.329 55.4045 350.161 55.169 349.976 54.9377C349.879 54.7947 349.795 54.6643 349.69 54.5297C349.522 54.3194 349.354 54.1049 349.177 53.8946C349.059 53.7642 348.933 53.6254 348.824 53.4866C348.651 53.3058 348.487 53.1375 348.327 52.9693C348.184 52.8179 348.041 52.6749 347.89 52.5319C347.747 52.3889 347.587 52.2543 347.436 52.1197C347.259 51.9641 347.087 51.8169 346.914 51.657C346.784 51.5561 346.641 51.4552 346.502 51.3374C346.313 51.1902 346.102 51.0304 345.896 50.8958C345.778 50.8074 345.648 50.7317 345.513 50.6392C345.295 50.5046 345.063 50.349 344.832 50.227C344.71 50.1639 344.584 50.0966 344.466 50.0209C344.226 49.8906 343.991 49.7602 343.739 49.655C343.612 49.5961 343.482 49.5373 343.347 49.4868C343.103 49.3816 342.86 49.2681 342.607 49.1755C342.452 49.1209 342.3 49.0788 342.145 49.0241C341.909 48.9442 341.678 48.8643 341.442 48.8012C341.228 48.7339 341.017 48.6877 340.807 48.6372C340.614 48.6035 340.433 48.5489 340.231 48.511C339.814 48.4311 339.394 48.3596 338.965 48.3133V48.3217C338.536 48.2755 338.098 48.2502 337.674 48.2376C337.463 48.225 337.253 48.225 337.043 48.2292C336.82 48.225 336.588 48.2124 336.357 48.2292C336.092 48.2292 335.831 48.2671 335.558 48.2839C335.39 48.2839 335.209 48.2965 335.045 48.3259C334.742 48.3512 334.443 48.3974 334.157 48.4269C333.998 48.4479 333.846 48.4689 333.695 48.4984C333.388 48.5489 333.077 48.6162 332.782 48.6708C332.626 48.7087 332.467 48.7381 332.319 48.776C332.017 48.8433 331.718 48.919 331.419 49.0073C331.243 49.0494 331.083 49.0956 330.906 49.1461C330.624 49.226 330.343 49.3185 330.065 49.4069C329.867 49.4784 329.674 49.5288 329.485 49.6045C329.224 49.6845 328.959 49.7938 328.715 49.8948C328.488 49.9789 328.256 50.0672 328.034 50.1597C327.806 50.2438 327.584 50.3406 327.344 50.4415C327.091 50.5593 326.826 50.6729 326.574 50.7864C326.381 50.8747 326.183 50.9757 325.981 51.0724C325.699 51.2112 325.413 51.3542 325.123 51.4972C324.946 51.5898 324.774 51.6823 324.597 51.7748C324.29 51.9346 323.983 52.1071 323.676 52.2753C323.512 52.3763 323.361 52.4646 323.193 52.5613C322.877 52.7506 322.566 52.9525 322.25 53.1333C322.095 53.2385 321.918 53.3478 321.763 53.4488C321.451 53.6465 321.148 53.8399 320.846 54.0418C320.661 54.168 320.467 54.2984 320.278 54.4288C319.996 54.6222 319.714 54.8115 319.432 55.0218C319.184 55.1942 318.945 55.3877 318.696 55.5686C318.473 55.7284 318.255 55.9008 318.036 56.0691C317.094 56.7883 316.173 57.5454 315.26 58.3529C315.046 58.5464 314.835 58.7441 314.629 58.9333C314.39 59.1562 314.154 59.3497 313.927 59.5768C313.658 59.8208 313.401 60.0773 313.136 60.3255C312.955 60.5021 312.791 60.6704 312.623 60.8386C312.341 61.1162 312.059 61.4022 311.794 61.6882C311.647 61.8354 311.496 61.9868 311.357 62.134C311.079 62.4369 310.798 62.7397 310.533 63.0425C310.394 63.1813 310.255 63.3369 310.12 63.4842C309.851 63.7786 309.603 64.0856 309.347 64.3842C309.195 64.5609 309.048 64.7333 308.913 64.8974C308.674 65.1791 308.438 65.4736 308.203 65.7554C308.047 65.9572 307.887 66.1591 307.736 66.3652C307.542 66.6134 307.336 66.8826 307.13 67.1601C306.958 67.3873 306.777 67.6186 306.604 67.8583C306.432 68.0855 306.264 68.3336 306.1 68.5691C305.906 68.8425 305.717 69.1159 305.54 69.3893C305.385 69.5996 305.25 69.8057 305.111 70.0286C304.909 70.3314 304.72 70.6469 304.514 70.9581C304.396 71.139 304.283 71.3324 304.169 71.5259C303.971 71.854 303.761 72.1989 303.563 72.5395C303.458 72.7162 303.362 72.8844 303.265 73.0611C303.076 73.4144 302.874 73.7719 302.684 74.1252C302.588 74.3018 302.495 74.4869 302.394 74.6762C302.213 75.0337 302.037 75.3828 301.864 75.7403C301.767 75.9506 301.667 76.1609 301.566 76.3712C301.414 76.7076 301.254 77.0315 301.12 77.3638C300.989 77.6371 300.867 77.9358 300.758 78.2176C300.64 78.4825 300.539 78.7517 300.43 79.0167C300.001 80.1355 299.593 81.2627 299.265 82.4025C299.168 82.6717 299.109 82.9366 299.038 83.2058C298.954 83.5002 298.861 83.7946 298.785 84.0891C298.693 84.4339 298.621 84.7704 298.546 85.1069C298.491 85.3298 298.436 85.5485 298.386 85.763C298.314 86.1416 298.243 86.5117 298.188 86.8776C298.15 87.0795 298.108 87.273 298.083 87.4664C298.016 87.8366 297.957 88.2193 297.911 88.5936C297.885 88.7703 297.856 88.9764 297.831 89.1698C297.784 89.5273 297.742 89.8848 297.717 90.255C297.705 90.4611 297.675 90.6798 297.658 90.8732C297.633 91.2265 297.625 91.5546 297.591 91.8953C297.591 92.1266 297.578 92.3579 297.57 92.5851C297.566 92.8879 297.557 93.1949 297.562 93.502C297.562 93.7753 297.545 94.0361 297.553 94.3011C297.557 94.5661 297.574 94.831 297.578 95.096C297.587 95.403 297.599 95.7017 297.625 96.0003C297.633 96.2316 297.654 96.4587 297.671 96.6774C297.7 97.0181 297.726 97.3546 297.759 97.6785C297.78 97.8803 297.801 98.0822 297.827 98.2673C297.873 98.6374 297.911 98.9823 297.965 99.3356C297.991 99.5207 298.028 99.6889 298.066 99.8782C298.117 100.231 298.184 100.597 298.247 100.951C298.285 101.127 298.327 101.317 298.361 101.493C298.436 101.842 298.499 102.187 298.592 102.532C298.638 102.747 298.689 102.94 298.743 103.129C298.823 103.445 298.903 103.769 298.987 104.071C299.071 104.353 299.147 104.614 299.236 104.862C299.311 105.11 299.379 105.367 299.458 105.602C299.635 106.111 299.808 106.624 299.997 107.108C300.19 107.613 300.392 108.092 300.594 108.563C300.699 108.807 300.804 109.03 300.905 109.249C301.019 109.485 301.128 109.733 301.246 109.977C301.381 110.25 301.528 110.519 301.671 110.793C301.763 110.961 301.847 111.154 301.94 111.323C302.1 111.609 302.268 111.886 302.432 112.172C302.516 112.315 302.596 112.467 302.689 112.601C302.861 112.904 303.042 113.169 303.219 113.438C303.307 113.581 303.399 113.712 303.492 113.846C303.673 114.119 303.854 114.363 304.03 114.628C304.148 114.759 304.245 114.906 304.346 115.057C304.522 115.28 304.699 115.507 304.884 115.73C305.006 115.886 305.136 116.037 305.258 116.193C305.431 116.391 305.603 116.576 305.767 116.773C305.915 116.933 306.066 117.101 306.226 117.253C306.369 117.421 306.529 117.573 306.684 117.732C306.865 117.905 307.046 118.086 307.227 118.258C307.366 118.401 307.504 118.51 307.647 118.637C307.858 118.839 308.068 119.015 308.274 119.179C308.396 119.293 308.531 119.385 308.657 119.486C308.884 119.663 309.119 119.852 309.355 120.016C309.477 120.105 309.603 120.197 309.721 120.277C309.969 120.449 310.213 120.613 310.47 120.777C310.596 120.845 310.73 120.92 310.857 121C311.109 121.148 311.353 121.303 311.609 121.429C311.761 121.514 311.921 121.593 312.08 121.665C312.308 121.787 312.543 121.909 312.795 122.022C313.006 122.115 313.212 122.199 313.426 122.296C313.62 122.372 313.813 122.451 314.015 122.527C314.44 122.666 314.861 122.801 315.285 122.939C315.719 123.061 316.152 123.166 316.593 123.259C316.795 123.309 317.01 123.347 317.22 123.381C317.447 123.419 317.67 123.465 317.901 123.503C318.162 123.537 318.436 123.558 318.713 123.591C318.881 123.604 319.054 123.629 319.239 123.633C319.525 123.663 319.832 123.663 320.122 123.684C320.278 123.68 320.433 123.692 320.589 123.684C320.892 123.696 321.199 123.684 321.514 123.684C321.666 123.671 321.821 123.684 321.973 123.667C322.28 123.642 322.578 123.604 322.881 123.579C323.054 123.558 323.218 123.541 323.39 123.528C323.68 123.482 323.962 123.444 324.248 123.402C324.442 123.368 324.635 123.339 324.837 123.305C325.094 123.255 325.354 123.2 325.607 123.141C325.838 123.082 326.069 123.036 326.292 122.973C326.524 122.914 326.759 122.843 326.986 122.792C327.247 122.712 327.504 122.637 327.769 122.565C327.966 122.494 328.172 122.426 328.366 122.363C328.656 122.262 328.955 122.157 329.241 122.056C329.426 121.989 329.598 121.913 329.779 121.837C330.095 121.72 330.393 121.585 330.713 121.455C330.881 121.379 331.037 121.307 331.205 121.228C331.525 121.072 331.836 120.92 332.16 120.765C332.319 120.672 332.496 120.576 332.656 120.508C332.971 120.336 333.287 120.159 333.598 119.987C333.787 119.886 333.972 119.764 334.166 119.654C334.452 119.486 334.738 119.314 335.028 119.12C335.276 118.977 335.533 118.796 335.785 118.632C336.008 118.489 336.244 118.346 336.462 118.182C337.413 117.514 338.347 116.799 339.268 116.012C339.482 115.827 339.697 115.646 339.915 115.453C340.147 115.242 340.391 115.045 340.626 114.834C340.891 114.578 341.152 114.326 341.408 114.077C341.577 113.918 341.749 113.741 341.922 113.573C342.195 113.295 342.481 112.992 342.754 112.706C342.897 112.551 343.036 112.403 343.179 112.248C343.465 111.937 343.734 111.625 344.008 111.314C344.151 111.167 344.285 111.003 344.42 110.847C344.685 110.536 344.937 110.221 345.185 109.905C345.333 109.707 345.471 109.539 345.61 109.358C345.837 109.06 346.069 108.748 346.292 108.441C346.447 108.24 346.603 108.029 346.763 107.802C346.96 107.52 347.154 107.234 347.347 106.953C347.524 106.704 347.696 106.444 347.869 106.187C348.037 105.926 348.201 105.67 348.357 105.409C348.538 105.11 348.718 104.812 348.895 104.505C349.034 104.273 349.164 104.046 349.29 103.807C349.488 103.478 349.677 103.138 349.862 102.789C349.98 102.574 350.081 102.372 350.191 102.154C350.388 101.783 350.577 101.409 350.763 101.031C350.863 100.82 350.952 100.627 351.044 100.425C351.229 100.038 351.41 99.6384 351.587 99.2389C351.675 99.037 351.764 98.8225 351.848 98.629C352.007 98.221 352.184 97.8299 352.336 97.4219C352.428 97.1864 352.525 96.9424 352.613 96.6985C352.752 96.3199 352.891 95.9582 353.025 95.5797C353.135 95.2558 353.248 94.9236 353.349 94.5955C353.45 94.2927 353.551 93.9941 353.635 93.6912C354.047 92.4084 354.384 91.113 354.682 89.8133C354.754 89.5105 354.809 89.2035 354.876 88.8965C354.939 88.56 355.023 88.2235 355.09 87.8828L355.061 87.8744Z" fill="#7D83BF"/>
<path d="M289.565 97.1281L291.681 83.7952C291.681 83.7952 305.867 93.124 312 75.396C312.227 74.7356 311.886 74.0164 311.23 73.7725C308.883 72.9061 303.449 69.8736 298.499 59.5438C298.499 59.5438 294.061 51.3632 283.273 62.5174C283.155 62.6394 283.046 62.7739 282.953 62.9169C282.415 63.7287 280.897 66.5004 281.187 71.5728C284.623 90.7645 284.379 93.3722 289.569 97.1323" fill="#FACDB9"/>
<path d="M285.49 73.6367C285.78 73.8386 285.995 80.097 291.681 83.7899" stroke="#2C1330" stroke-width="1.26178" stroke-miterlimit="22.93" stroke-linecap="round"/>
<path fill-rule="evenodd" clip-rule="evenodd" d="M80.3252 91.0335C78.4241 91.0335 76.8805 92.5729 76.8805 94.4782C76.8805 96.3835 78.4199 97.9229 80.3252 97.9229C82.2305 97.9229 83.7698 96.3793 83.7698 94.4782C83.7698 92.5771 82.2305 91.0335 80.3252 91.0335ZM80.3252 86.7393C82.4618 86.7393 84.3965 87.6057 85.7971 89.0063C87.1977 90.4068 88.0641 92.3416 88.0641 94.4782C88.0641 95.8367 87.7108 97.1111 87.0967 98.2215C85.9653 100.341 84.8339 102.457 83.7067 104.572C82.5796 106.688 81.4482 108.804 80.321 110.919C79.1896 108.804 78.0624 106.684 76.931 104.568C75.7996 102.453 74.6724 100.333 73.541 98.2131C72.9311 97.1069 72.582 95.8325 72.582 94.4782C72.582 92.3416 73.4485 90.4068 74.849 89.0063C76.2496 87.6057 78.1843 86.7393 80.321 86.7393H80.3252Z" fill="#E94B39"/>
<path fill-rule="evenodd" clip-rule="evenodd" d="M80.583 90.6631C82.6649 90.6631 84.3515 92.3497 84.3515 94.4316C84.3515 96.5136 82.6649 98.2001 80.583 98.2001C78.501 98.2001 76.8145 96.5136 76.8145 94.4316C76.8145 92.3497 78.501 90.6631 80.583 90.6631Z" fill="white"/>
<defs>
<radialGradient id="paint0_radial_338_28379" cx="0" cy="0" r="1" gradientUnits="userSpaceOnUse" gradientTransform="translate(200.5 200.681) rotate(90) scale(368.704)">
<stop stop-color="#FFEA00"/>
<stop offset="1" stop-color="white"/>
</radialGradient>
</defs>
</svg>
