<svg width="401" height="400" viewBox="0 0 401 400" fill="none" xmlns="http://www.w3.org/2000/svg">
<path d="M0.5 200C0.5 89.5431 90.0431 0 200.5 0C310.957 0 400.5 89.5431 400.5 200C400.5 310.457 310.957 400 200.5 400C90.0431 400 0.5 310.457 0.5 200Z" fill="url(#paint0_radial_338_28703)"/>
<path fill-rule="evenodd" clip-rule="evenodd" d="M254.365 67.5259C256.429 81.1286 326.24 79.9025 322.724 69.8393C320.303 62.911 305.713 51.9273 281.305 53.328C256.893 54.7288 254.365 67.5259 254.365 67.5259Z" fill="#FFE907"/>
<path fill-rule="evenodd" clip-rule="evenodd" d="M278.818 57.3213L281.088 85.2727L288.183 88.6098L295.754 88.4829L291.933 57.2578L278.818 57.3213Z" fill="black"/>
<path fill-rule="evenodd" clip-rule="evenodd" d="M254.365 67.5274C255.373 65.5711 266.94 9.7596 266.94 9.7596C275.214 3.04952 291.677 1.87893 301.625 9.3985C303.915 32.9969 308.824 51.6033 322.724 69.8408C318.113 60.8649 271.746 50.0875 254.365 67.5274Z" fill="white"/>
<path d="M295.213 59.0107C293.471 76.4942 306.518 95.3031 315.387 104.112" stroke="black" stroke-width="1.19043" stroke-linecap="round" stroke-linejoin="round"/>
<path fill-rule="evenodd" clip-rule="evenodd" d="M317.622 108.35C316.202 108.811 314.479 107.839 313.773 106.18C313.071 104.521 313.65 102.803 315.071 102.343C316.491 101.882 318.213 102.855 318.92 104.513C319.622 106.172 319.043 107.89 317.622 108.35Z" fill="#FFE907"/>
<path fill-rule="evenodd" clip-rule="evenodd" d="M281.322 85.0417C282.83 84.2045 287.318 84.5973 290.468 85.4742C293.619 86.3512 296.909 88.0773 295.389 89.3035C293.869 90.5256 285.627 89.9423 283.338 88.1408C281.048 86.3393 281.076 85.0774 281.322 85.0417Z" fill="#FFE907"/>
<path fill-rule="evenodd" clip-rule="evenodd" d="M290.067 203.098L285.238 61.9484L288.353 61.25L301.174 204.32L290.067 203.098Z" fill="black"/>
<path opacity="0.7" d="M306.592 168.858C339.234 181.318 377.498 213.916 376.955 214.932C389.966 235.534 372.757 256.144 351.21 271.854C313.517 299.333 191.993 287.425 147.777 268.68C96.822 253.323 90.1397 186.012 112.798 167.255C143.4 141.918 174.414 147.871 177.109 150.188C199.66 169.576 258.868 146.89 306.596 168.858" fill="white"/>
<path fill-rule="evenodd" clip-rule="evenodd" d="M120.272 135.235C120.272 135.235 142.239 123.581 158.377 122.235C174.516 120.89 187.515 125.823 187.515 125.823C187.515 125.823 192.448 135.235 197.824 147.342C203.205 159.444 197.376 179.618 197.376 179.618C197.376 179.618 169.583 191.273 152.997 187.685C136.41 184.098 133.719 180.959 133.719 180.959C133.719 180.959 132.374 163.476 126.545 153.167C120.716 142.858 120.268 135.235 120.268 135.235" fill="#5A9CD5"/>
<path fill-rule="evenodd" clip-rule="evenodd" d="M127.379 138.184C127.379 138.184 135.577 143.306 138.394 150.223C141.212 157.139 138.652 178.912 138.652 178.912C138.652 178.912 134.041 163.798 130.712 154.576C127.383 145.354 127.383 138.18 127.383 138.18" fill="#2877BC"/>
<path d="M182.396 161.658C180.606 163.464 177.622 163.127 175.559 162.436C155.171 163.504 127.763 177.301 85.2409 224.692C47.0716 259.377 81.6299 303.55 121.077 295.749C180.047 277.432 161.996 207.486 170.174 182.34C174.738 187.07 176.75 199.451 179.583 200.189C180.563 200.443 185.257 194.649 186.261 194.51C188.324 194.225 190.404 193.935 192.344 193.181C193.066 192.899 195.229 192.312 195.697 191.693C196.487 190.645 194.999 189.602 194.372 188.967C191.801 186.376 202.808 187.225 202.991 183.912C203.197 180.059 193.435 170.579 194.015 166.765C235.013 150.421 235.089 128.334 234.855 123.207C235.505 90.53 183.634 110.319 195.058 129.54C196.094 129.013 189.376 154.615 182.404 161.65V161.658H182.396Z" fill="#13A538"/>
<path d="M182.266 154.983C182.293 154.666 182.301 154.344 182.282 154.023C182.238 153.281 182.067 152.547 181.845 151.833C181.238 149.856 180.353 147.916 179.178 146.202C178.424 145.103 177.401 143.884 176.175 143.289C175.091 142.765 173.647 143.416 172.56 143.666C170.687 144.103 168.845 144.496 166.98 145.019C167.849 146.142 168.818 147.186 169.695 148.305C170.349 149.134 171.27 150.241 171.599 151.257C170.722 151.174 169.964 152.384 169.881 153.138C169.806 153.825 170.008 154.515 170.282 155.15C170.873 156.547 171.568 157.594 173.064 157.059C173.187 157.015 173.322 156.602 173.441 156.654C173.575 156.713 173.198 157.007 173.234 157.154C173.754 159.428 174.603 163.277 173.314 164.622C173.314 164.622 175.913 165.979 178.948 165.654C181.98 165.324 182.885 163.523 182.885 163.523C182.885 163.523 180.579 160.324 179.984 158.936C181.131 158.689 181.48 157.674 181.877 156.626C182.075 156.094 182.206 155.539 182.258 154.975V154.983H182.266Z" fill="#FACDB9"/>
<path d="M169.98 153.262C170.297 152.159 171.615 152.119 172.547 152.31C172.333 151.445 172.154 150.572 172.015 149.691C171.762 148.088 171.67 146.326 173.059 145.239C174.523 144.088 177.245 143.544 178.519 145.33C178.618 145.469 178.737 145.643 178.908 145.62C179.043 145.6 179.122 145.461 179.182 145.334C179.626 144.298 179.757 143.132 179.555 142.024C179.507 141.755 179.428 141.473 179.23 141.282C179.198 141.255 179.162 141.227 179.118 141.219C179.019 141.207 178.952 141.31 178.904 141.397C178.313 142.485 176.96 142.778 175.809 142.58C174.591 142.37 173.543 141.624 172.381 141.203C170.841 140.651 168.988 140.743 167.73 141.782C165.924 143.27 166.234 146.123 166.797 148.147C167.182 149.54 167.655 150.905 168.258 152.219C168.785 153.361 169.436 154.528 170.162 155.56" fill="black"/>
<path d="M173.992 150.273C175.456 150.832 175.837 150.662 177.107 150.186" stroke="black" stroke-width="0.793622" stroke-miterlimit="22.93" stroke-linecap="round"/>
<path d="M178.371 149.949C179.613 150.155 180.308 149.794 181.014 149.488" stroke="black" stroke-width="0.793622" stroke-miterlimit="22.93" stroke-linecap="round"/>
<path d="M177.105 152.682C177.796 152.881 178.748 152.762 179.629 152.135C178.423 151.103 178.117 149.579 178.117 149.579" stroke="black" stroke-width="0.793622" stroke-miterlimit="22.93" stroke-linecap="round"/>
<path d="M175.838 154.962C177.782 155.962 179.286 155.74 180.187 155.295" stroke="black" stroke-width="0.793622" stroke-miterlimit="22.93" stroke-linecap="round"/>
<path d="M331.045 220.446C332.803 217.629 333.632 214.077 331.497 211.736C329.934 210.022 327.386 209.712 325.073 209.657C310.204 209.308 296.046 214.978 282.951 221.49C277.384 224.256 273.579 224.704 271.158 230.95C269 236.517 268.48 242.652 268.079 248.56C268 249.735 267.956 250.961 268.428 252.036C269.127 253.616 270.837 254.556 272.543 254.786C279.237 255.687 288.57 248.497 294.233 245.37C301.514 241.346 308.645 237.057 315.776 232.771C320.811 229.744 325.938 226.64 329.771 222.184C330.228 221.653 330.66 221.069 331.045 220.45V220.446Z" fill="black"/>
<path d="M337.282 214.503C332.985 215.435 328.719 216.844 324.509 217.745C321.049 218.483 317.704 219.403 314.188 219.875C311.204 220.276 308.45 219.312 305.664 218.149C304.629 217.717 303.597 217.229 302.728 216.518C301.78 215.745 301.046 214.737 300.434 213.677C298.081 209.606 297.403 204.606 298.589 200.055C288.451 206.642 278.312 213.225 268.174 219.812C271.162 231.927 265.344 244.498 262.21 255.957C261.456 258.711 260.821 261.588 261.289 264.41C261.972 268.509 265.277 271.913 269.197 273.167C274.293 274.794 275.614 270.683 279.876 269.005C283.026 267.767 286.399 267.223 289.713 266.505C298.141 264.679 306.49 261.584 313.085 256.045C318.239 251.716 322.16 246.041 327.493 241.93C332.326 238.2 338.826 235.72 344.667 234.097C347.084 233.423 350.23 233.057 352.718 233.462C353.44 233.581 359.722 236.704 359.039 237.16C365.742 232.677 363.738 222.732 358.448 218.129C354.893 215.034 350.079 213.622 345.357 213.562C342.655 213.53 339.957 213.923 337.278 214.507L337.282 214.503Z" fill="#FACAB5"/>
<path d="M306.358 223.716C305.374 224.764 304.497 225.97 303.739 227.327C301.271 231.74 300.414 236.858 300.005 241.898C299.791 244.561 299.636 247.386 298.124 249.592C296.831 251.481 294.724 252.624 292.676 253.655C287.295 256.37 281.76 258.814 276.105 260.893C271.955 262.421 266.864 264.203 264.61 268.401C263.098 271.218 262.753 274.607 263.427 277.71C263.788 279.365 264.975 283.69 266.879 283.059C267.832 282.746 268.304 281.119 268.891 280.409C269.947 279.131 271.451 278.119 272.717 277.055C274.526 275.532 275.772 273.484 277.601 271.956C280.907 269.195 283.97 267.603 288.121 266.965C296.954 265.607 306.251 261.913 313.108 256.144C318.263 251.806 322.179 246.12 327.508 242.001C332.341 238.267 338.837 235.779 344.674 234.152C347.091 233.478 350.234 233.109 352.726 233.517C353.444 233.636 359.725 236.767 359.043 237.22C365.745 232.728 363.737 222.764 358.452 218.149C354.9 215.05 350.087 213.633 345.365 213.574C342.639 213.538 339.952 213.919 337.282 214.486C330.655 215.895 324.191 218.55 317.358 218.819C312.925 218.998 309.187 220.696 306.35 223.716H306.358Z" fill="#13A538"/>
<path d="M333.031 232.833C328.091 236.801 323.655 241.543 319.353 245.892C312.54 252.777 305.004 259.495 295.838 263.058C289.354 265.578 283.362 265.899 276.704 267.955C269.494 270.185 261.268 277.288 267.541 285.264C272.406 291.45 282.688 290.859 289.553 289.891C316.333 286.105 342.146 266.546 342.975 265.955C344.939 264.554 346.868 263.09 348.65 261.463C355.197 255.503 361.36 246.36 363.359 237.662C364.153 234.194 364.038 228.397 361.217 225.786C357.745 222.572 352.618 223.671 348.479 224.683C342.69 226.099 337.638 229.135 333.027 232.837L333.031 232.833Z" fill="black"/>
<path d="M324.271 181.11C325.097 184.745 326.569 188.249 328.319 191.551C329.192 193.193 330.156 194.824 331.525 196.086C332.223 196.729 333.009 197.261 333.795 197.788C334.537 198.292 335.283 198.792 336.025 199.292C336.509 199.618 336.997 199.951 337.545 200.161C338.834 200.665 340.342 200.443 341.541 199.745C344.378 198.086 345.699 193.598 346.342 190.602C347.124 186.956 347.068 183.142 346.322 179.495C345.06 173.321 341.941 167.647 338.12 162.631C336.711 160.786 335.096 158.937 332.906 158.163C329.759 157.052 326.255 159.401 325.359 162.488C324.942 163.921 324.716 165.496 324.43 166.964C323.827 170.083 323.422 173.266 323.605 176.448C323.696 178.023 323.926 179.579 324.275 181.11H324.271Z" fill="black"/>
<path d="M349.445 204.499C348.346 204.483 347.254 204.439 346.159 204.352C343.314 204.122 340.477 203.868 337.632 203.67C331.549 203.241 325.319 202.999 319.196 203.007C317.097 203.007 314.998 203.019 312.903 203.158C311.176 203.273 309.458 203.475 307.756 203.765C309.434 200.884 309.668 197.424 309.823 194.174C310.01 190.313 310.192 186.456 310.375 182.599C315.942 184.928 322.029 186.242 328.037 185.654C333.477 185.119 338.505 182.579 342.481 178.889C347.004 174.69 349.659 169.488 352.052 163.913C353.992 171.024 360.254 176.385 362.048 183.535C362.694 186.107 362.726 188.801 363.373 191.376C363.567 192.15 363.833 192.904 364.099 193.654C364.766 195.531 365.555 197.495 365.512 199.519C365.48 201.082 364.845 202.828 363.385 203.566C362.198 204.166 360.746 204.293 359.441 204.443C357.266 204.689 355.04 204.503 352.849 204.515C351.711 204.515 350.572 204.527 349.433 204.511H349.437L349.445 204.499Z" fill="#FACAB5"/>
<path d="M361.305 198.88C361.535 199.384 361.789 199.884 362.071 200.376C363.523 202.908 366.258 205.031 369.253 204.856C370.249 204.797 374.67 205.202 375.392 204.321C375.928 203.67 372.595 201.48 372.353 200.845C371.269 197.976 370.412 194.984 370.305 191.901C370.118 187.833 368.73 183.746 367.972 179.73C366.476 171.798 364.75 163.886 362.27 156.199C361.436 153.624 360.547 151.065 359.571 148.553C358.659 146.204 358.964 143.787 359.25 141.343C359.405 140.002 359.206 138.902 359.182 137.585C359.178 137.264 360.647 134.855 360.901 135.077C359.401 133.784 356.702 132.2 354.722 132.288C346.048 132.669 342.75 141.283 342.584 148.672C342.473 153.517 343.365 158.287 343.615 163.112C343.746 165.596 343.643 168.048 343.274 170.508C342.957 172.623 342.889 174.492 344.397 176.223C345.596 177.603 347.33 178.429 349.099 178.901C351.512 179.548 354.147 179.584 356.456 178.635C359.607 184.814 358.397 192.528 361.305 198.888V198.88Z" fill="#13A538"/>
<path d="M354.155 154.702C354.949 156.995 355.885 159.249 356.861 161.459C359.524 167.475 362.548 173.403 364.028 179.812C365.254 185.129 365.389 190.665 366.829 195.926C367.916 199.906 370.658 206.732 376.103 204.224C381.94 201.529 380.388 191.478 380.023 186.55C379.448 178.812 378.142 171.808 376.361 164.253C374.003 154.277 370.254 144.281 363.472 136.425C361.734 134.409 357.484 131.806 354.992 133.814C352.524 135.798 351.857 139.551 351.857 142.528C351.857 146.69 352.794 150.753 354.159 154.706L354.155 154.702Z" fill="black"/>
<path d="M329.302 157.568C330.072 157.485 330.83 157.505 331.583 157.679C332.302 157.842 332.917 158.231 333.627 158.409C332.254 158.068 330.457 158.036 329.234 158.858C328.338 159.457 327.647 160.338 327.171 161.298C325.83 164 325.806 167.215 325.925 170.163C326.04 173.071 326.504 175.964 327.262 178.774C328.992 185.178 332.226 191.162 336.452 196.269C339.817 200.34 344.186 204.094 349.448 204.602C340.809 205.019 332.278 204.185 323.663 203.765C322.334 203.701 321.004 203.642 319.675 203.59C309.537 203.201 298.894 205.816 288.676 206.701C276.978 207.717 265.074 209.269 253.34 209.82C229.881 210.915 218.099 213.114 194.628 212.336C176.776 205.265 186.938 197.856 183.763 191.678C183.664 191.491 183.577 191.241 183.728 191.095C183.783 191.039 183.863 191.011 183.938 190.987C186.759 190.059 189.513 188.995 192.239 187.825C192.644 188.551 193.457 188.94 194.227 189.253C196.755 190.269 199.414 190.948 202.12 191.269C204.743 191.579 207.286 192.13 209.957 192.285C215.865 192.626 221.79 192.099 227.651 191.368C239.702 189.861 255.233 188.452 266.86 185.031C276.296 182.254 285.53 178.782 294.482 174.71C303.632 170.548 312.544 165.893 321.286 160.937C323.365 159.758 325.584 158.461 327.901 157.834C328.357 157.711 328.83 157.62 329.31 157.568H329.302Z" fill="#D0A26E"/>
<path d="M311.662 211.979C314.209 211.376 316.793 210.891 319.384 210.538C323.812 209.935 328.749 209.586 332.276 212.748C332.066 211.514 328.261 203.289 327.269 201.602C324.816 197.432 322.423 193.225 319.967 189.055C315.067 180.754 309.908 172.54 303.603 165.222C298.035 158.762 291.198 153.104 283.377 149.604C276.251 146.414 266.58 144.906 258.866 146.898C251.993 148.675 241.78 153.636 235.871 157.207C224.475 164.084 213.578 171.948 202.9 179.889C198.011 183.519 192.904 186.924 187.793 190.317C186.714 191.035 186.48 191.622 187.186 192.606C187.718 193.336 188.762 194.289 189.698 194.372C194.702 194.809 199.595 194.702 204.594 194.836C209.745 194.991 214.828 194.42 219.943 194.666C227.907 195.047 224.776 196.932 229.748 191.967C235.367 186.361 250.049 171.377 257.434 168.29C257.791 168.139 258.172 167.992 258.561 168.032C260.763 168.266 260.438 178.508 260.525 180.416C260.731 184.964 260.791 189.511 260.846 194.067C261.088 212.943 261.33 231.819 261.572 250.696C264.354 240.525 273.822 232.462 282 226.24C290.794 219.55 300.9 214.55 311.666 211.995L311.662 211.979Z" fill="#D0A26E"/>
<path d="M295.594 157.298C295.594 157.298 319.224 177.412 332.029 213.086" stroke="black" stroke-width="1.19043" stroke-linecap="round" stroke-linejoin="round"/>
<path d="M173.586 157.055C174.753 156.384 175.07 154.757 174.3 153.424C173.527 152.091 171.959 151.555 170.792 152.226C169.626 152.896 169.308 154.523 170.078 155.856C170.848 157.19 172.419 157.725 173.586 157.055Z" fill="#FACDB9"/>
<path fill-rule="evenodd" clip-rule="evenodd" d="M301.528 162.911C301.528 162.911 308.127 156.125 299.956 150.935C291.786 145.744 281.715 148.903 281.715 148.903L301.528 162.911Z" fill="black"/>
<path fill-rule="evenodd" clip-rule="evenodd" d="M252.781 147.112C281.816 137.06 291.645 142.235 301.053 151.711C290.561 145.326 253.416 151.429 268.36 196.058C283.304 240.692 239.821 252.846 239.821 252.846C239.821 252.846 241.797 210.915 220.473 214.328C199.148 217.74 174.208 205.439 176.204 201.538C194.005 166.766 223.742 157.159 252.777 147.112" fill="#FFE907"/>
<path d="M224.967 228.095C229.018 218.35 228.709 211.449 228.709 211.449" stroke="#FFE907" stroke-width="3.17449" stroke-linecap="round" stroke-linejoin="round"/>
<path d="M229.107 233.01C236.468 228.367 232.849 213.276 232.849 213.276" stroke="#FFE907" stroke-width="3.17449" stroke-linecap="round" stroke-linejoin="round"/>
<path d="M231.736 242.196C239.097 234.684 238.565 226.871 238.565 226.871" stroke="#FFE907" stroke-width="3.17449" stroke-linecap="round" stroke-linejoin="round"/>
<path d="M232.459 248.629C239.82 243.986 241.276 237.717 241.276 237.717" stroke="#FFE907" stroke-width="3.17449" stroke-linecap="round" stroke-linejoin="round"/>
<path d="M233.307 258.792C240.667 254.149 242.124 247.88 242.124 247.88" stroke="#FFE907" stroke-width="3.17449" stroke-linecap="round" stroke-linejoin="round"/>
<path d="M203.047 224.084C204.809 215.561 203.281 213.601 203.281 213.601" stroke="#FFE907" stroke-width="3.17449" stroke-linecap="round" stroke-linejoin="round"/>
<path d="M211.731 226.443C211.069 217.038 213.561 212.332 213.561 212.332" stroke="#FFE907" stroke-width="3.17449" stroke-linecap="round" stroke-linejoin="round"/>
<path d="M217.639 225.811C219.547 218.078 221.46 210.348 221.46 210.348" stroke="#FFE907" stroke-width="3.17449" stroke-linecap="round" stroke-linejoin="round"/>
<path fill-rule="evenodd" clip-rule="evenodd" d="M222.709 108.668C210.654 106.985 200.654 114.35 199.722 120.017C197.647 132.6 225.955 131.814 229.205 121.017C230.626 116.295 226.284 109.188 222.709 108.672" fill="black"/>
<path fill-rule="evenodd" clip-rule="evenodd" d="M207.326 128.604L211.679 103.03C211.679 103.03 208.806 99.8157 208.128 97.1095C207.453 94.4032 214.989 71.9199 214.989 71.9199L223.611 86.8003L242.424 94.8556C242.853 101.296 234.337 109.272 226.655 109.966C226.655 109.966 223.349 123.537 221.322 127.835C218.211 129.577 210.981 129.346 207.322 128.604" fill="#FACAB5"/>
<path fill-rule="evenodd" clip-rule="evenodd" d="M203.952 66.0876C201.42 70.9208 201.995 79.7815 198.543 82.1981C195.091 84.6147 184.504 89.5629 182.893 92.0946C181.282 94.6262 178.52 101.186 182.663 99.2293C186.805 97.273 188.762 92.7851 188.762 92.7851C188.762 92.7851 190.956 92.174 190.956 94.3604C190.956 96.5468 192.373 101.836 196.055 98.9277C199.741 96.0151 194.853 93.6263 200.904 94.5032C217.078 96.8484 206.277 80.6387 225.812 82.0831C232.026 82.5434 235.593 80.1268 234.558 76.3293C233.522 72.5318 220.463 61.1354 215.979 60.9052C210.138 60.6037 207.197 59.8894 203.952 66.0876Z" fill="#FFE907"/>
<path d="M224.32 75.6376C224.32 75.6376 213.733 72.0702 211.086 79.8954C208.439 87.7205 207.971 92.7481 203.598 92.5179C194.547 92.0417 186.904 88.9347 182.893 95.7757" stroke="black" stroke-width="0.793622" stroke-linecap="round" stroke-linejoin="round"/>
<path fill-rule="evenodd" clip-rule="evenodd" d="M229.428 64.2417C229.428 64.2417 222.432 61.1823 220.357 63.3687C218.281 65.5551 217.297 67.4122 221.122 71.1303C224.948 74.8484 229.868 77.2491 229.868 77.2491C229.868 77.2491 217.051 75.9039 215.412 79.4038C213.773 82.8997 217.952 86.2131 217.952 86.2131C217.952 86.2131 213.801 88.4035 217.206 92.0264C220.614 95.6532 226.146 92.5502 226.146 92.5502C226.146 92.5502 223.412 95.062 225.273 97.1413C227.13 99.2166 232.051 99.7642 233.578 98.5619C235.11 97.3595 238.872 103.216 238.872 103.216C238.872 103.216 241.388 100.633 242.209 96.4826C243.03 92.3319 242.229 90.213 242.229 90.213C243.554 88.9273 243.391 86.3639 241.955 85.5584C244.221 84.1536 242.856 81.1101 240.899 80.5268C241.653 80.6022 243.872 79.6736 241.991 75.1698C240.114 70.67 229.42 64.2417 229.42 64.2417" fill="#FACAB5"/>
<path d="M240.907 80.5265C238.78 78.9829 230.197 77.1615 226.788 76.9473C208.309 75.7886 216.384 85.9866 218.558 85.808" stroke="black" stroke-width="0.793622" stroke-linecap="round" stroke-linejoin="round"/>
<path d="M241.962 85.5591C240.005 84.6504 226.915 80.3252 217.336 86.6266C213.709 89.0114 217.375 95.5707 226.149 92.551C221.24 102.852 234.704 97.8325 234.704 97.8325" stroke="black" stroke-width="0.793622" stroke-linecap="round" stroke-linejoin="round"/>
<path d="M236.104 153.017C211.387 163.203 222.291 197.832 207.367 209.884" stroke="white" stroke-width="1.19043" stroke-linecap="round" stroke-linejoin="round"/>
<path d="M259.958 144.816C236.455 154.233 246.8 206.187 228.709 211.445" stroke="white" stroke-width="1.19043" stroke-linecap="round" stroke-linejoin="round"/>
<path d="M264.813 214.608C256.536 198.399 214.295 183.352 194.74 196.561" stroke="white" stroke-width="1.19043" stroke-linecap="round" stroke-linejoin="round"/>
<path d="M260.542 169.034C238.606 160.106 211.115 169.034 197.115 181.779" stroke="white" stroke-width="1.19043" stroke-linecap="round" stroke-linejoin="round"/>
<path d="M200.929 211.439C203.016 201.344 197.818 194.689 188.938 193.122" stroke="#FFE907" stroke-width="3.17449" stroke-linecap="round" stroke-linejoin="round"/>
<path d="M182.245 215.216C184.332 205.121 179.951 201.848 179.951 201.848" stroke="#FFE907" stroke-width="3.17449" stroke-linecap="round" stroke-linejoin="round"/>
<path fill-rule="evenodd" clip-rule="evenodd" d="M84.3418 275.087C84.3418 275.087 79.83 277.261 97.3968 280.638C114.964 284.019 127.301 275.936 131.13 268.282C134.959 260.627 126.876 250.842 119.221 251.266C111.563 251.691 82.2148 258.921 82.2148 261.476C82.2148 264.032 84.3418 275.087 84.3418 275.087Z" fill="black"/>
<path d="M63.2808 215.371C58.3801 216.038 60.4594 221.625 67.0505 225.712L71.9154 222.315C70.6654 219.78 67.1973 214.836 63.2768 215.371H63.2808Z" fill="#FACDB9"/>
<path d="M71.3545 217.983C68.0173 216.749 70.1998 213.336 71.6164 211.178C75.1996 205.702 84.0405 199.599 90.0046 197.261C93.8775 195.742 98.6194 195.599 94.437 200.666C93.7188 201.535 95.2028 201.015 97.0083 201.884C99.3733 203.027 95.5838 203.94 95.0203 207.257C94.683 209.253 100.155 207.42 95.2425 214.554C92.7664 218.15 82.8858 230.177 78.8383 222.705C77.5725 220.364 76.6479 223.518 74.9178 221.55C72.5092 218.804 77.6995 217.86 73.8703 218.027L71.3545 217.991V217.983Z" fill="#FACDB9"/>
<path d="M93.887 201.061C101.68 205.195 92.2561 209.917 88.3038 213.262C85.0857 215.989 82.1017 218.905 78.8359 221.623" stroke="#2C1330" stroke-width="0.892825" stroke-miterlimit="22.93" stroke-linecap="round"/>
<path d="M94.5969 207.724C98.2476 213.402 95.2993 216.402 90.7399 220.358C87.4067 223.251 85.0377 224.009 80.8633 225.092" stroke="#2C1330" stroke-width="0.892825" stroke-miterlimit="22.93" stroke-linecap="round"/>
<path d="M95.3967 197.029C93.3333 204.382 89.1707 204.481 83.8574 209.418C81.0559 212.021 78.3933 214.783 75.5879 217.406" stroke="#2C1330" stroke-width="0.892825" stroke-miterlimit="22.93" stroke-linecap="round"/>
<path d="M48.8518 208.407C47.2169 211.2 43.4234 217.807 43.3123 217.771C32.4754 214.133 21.6107 209.05 15.7617 198.641C12.5833 192.987 11.8214 180.432 21.5036 181.07C23.7733 181.221 25.8526 182.328 27.8922 183.348C35.6023 187.221 44.5226 191.122 52.9905 192.82C55.5817 193.34 58.3197 192.431 60.899 193.018C60.395 193.649 59.7086 194.11 59.1133 194.653C58.0777 195.59 57.2999 196.776 56.5341 197.943C54.4072 201.185 51.693 203.927 49.5502 207.248C49.447 207.403 49.201 207.819 48.8597 208.411L48.8518 208.407Z" fill="#FACDB9"/>
<path d="M42.693 211.467L41.701 206.05C25.8999 185.091 15.3963 158.639 9.01562 130.811L97.8577 92.9434L103.881 96.3797L100.183 97.6456C105.163 122.232 114.635 144.576 128.134 164.905C149.3 179.412 177.168 185.956 201.314 195.202C201.036 197.92 200.945 200.32 200.671 203.039L119.718 264.794C91.5126 256.957 57.0258 231.494 42.7009 211.467" fill="#D0A26E"/>
<path d="M124.139 169.341L48.5469 206.181C67.0422 225.716 95.5253 242.711 118.032 252.008L187.05 201.887L124.139 169.341Z" fill="white"/>
<path d="M45.4255 199.633L123.677 161.761C111.399 144.19 102.217 123.806 98.6181 98.3389L17.6726 134.389L11.1133 130.413L12.4029 132.028C18.7281 158.543 28.6365 182.014 45.4295 199.633" fill="#7D6351"/>
<path d="M121.676 169.441C123.43 164.369 123.136 165.917 128.616 169.155C139.949 175.71 154.941 183.127 167.023 188.17C175.876 191.864 184.499 193.924 193.745 196.253C191.765 198.035 189.785 199.813 187.793 201.582C169.039 195.884 155.214 188.952 138.167 179.615C132.096 176.282 127.402 173.262 121.672 169.445" fill="#7D6351"/>
<path d="M150.084 217.36C155.032 212.801 159.77 205.389 158.286 198.365C154.417 180.036 123.017 182.362 101.732 188.25C91.3678 191.119 78.7373 200.524 79.7134 213.408C81.3483 234.963 113.788 237.725 130.815 230.237C138.501 226.856 143.91 222.963 150.084 217.356" fill="#FFEA09"/>
<path d="M107.803 194.213C112.081 186.805 95.6291 189.821 93.3315 196.257C91.6451 200.983 102.299 200.527 106.986 195.154L107.803 194.213Z" fill="#E94B39"/>
<path d="M95.5922 220.414C92.632 212.799 82.1443 217.656 86.2552 222.886C88.6956 225.993 95.9771 226.168 95.5922 220.414Z" fill="#E94B39"/>
<path d="M131.041 223.465C141.521 220.124 141.62 211.612 129.573 215.91C120.78 219.045 119.22 226.786 130.268 223.683L131.041 223.465Z" fill="#E94B39"/>
<path d="M140.914 196.633C141.398 202.466 155.017 197.026 151.16 192.657C148.64 189.804 142.466 192.474 140.914 196.633Z" fill="#E94B39"/>
<path d="M131.872 185.519C124.217 186.332 124.059 196.661 132.983 192.494C137.495 190.387 137.558 186.538 131.872 185.519Z" fill="#E94B39"/>
<path d="M116.687 210.69C129.116 203.186 119.306 198.032 108.386 206.789C102.668 211.377 107.537 215.995 116.687 210.69Z" fill="#E94B39"/>
<path d="M102.797 208.384C102.15 210.972 100.348 213.122 100.154 208.88C100.039 206.325 97.4912 204.194 99.7887 203.674C102.34 203.099 102.868 206.547 102.797 208.384Z" fill="#50AE32"/>
<path d="M117.542 195.677C109.265 202.153 120.55 189.189 123.03 189.225C125.074 189.256 117.701 195.542 117.542 195.677Z" fill="#50AE32"/>
<path d="M110.283 223.709C109.672 226.518 108.152 225.431 107.16 229.046C105.918 232.815 104.037 229.704 104.204 228.109C104.541 224.915 107.279 223.494 110.283 223.709Z" fill="#50AE32"/>
<path d="M94.9298 205.641C92.4299 205.514 90.672 210.411 94.2473 208.212C95.1719 207.645 96.5409 206.391 94.9298 205.641Z" fill="white"/>
<path d="M118.602 218.291C119.165 220.549 125.308 215.481 121.189 215.965C119.792 216.128 118.986 217.005 118.602 218.291Z" fill="white"/>
<path d="M103.756 220.007C101.221 221.38 104.991 224.241 105.709 220.792C105.991 219.451 104.53 219.761 103.756 220.007Z" fill="white"/>
<path d="M144.777 189.4C146.094 187.881 142.499 187.381 143.142 189.511C143.388 190.337 144.364 189.71 144.777 189.4Z" fill="white"/>
<path d="M99.253 230.002C97.3007 230.637 101.693 233.07 101.237 230.931C101.058 230.094 99.9434 229.967 99.253 230.002Z" fill="white"/>
<path d="M120.613 185.964C119.34 184.856 117.705 188.118 120.193 187.535C121.078 187.329 120.971 186.602 120.613 185.964Z" fill="white"/>
<path d="M131.042 197.081C128.546 198.184 131.661 200.299 132.518 197.676C132.839 196.688 131.573 196.946 131.042 197.081Z" fill="white"/>
<path d="M152.627 204.927C151.766 203.451 148.838 205.276 151.155 206.078C152.024 206.229 152.524 205.768 152.627 204.927Z" fill="white"/>
<path fill-rule="evenodd" clip-rule="evenodd" d="M162.059 201.068C160.587 205.683 159.019 210.251 157.634 214.893C148.599 211.27 140.286 209.501 131.409 206.433C126.072 204.592 127.334 205.132 132.433 204.493C142.313 203.255 152.138 202.021 162.059 201.064" fill="white"/>
<path d="M51.3447 215.489C49.313 217.699 48.19 221.021 47.7535 223.679C48.1265 221.418 48.5035 219.128 48.321 216.838C48.1384 214.549 48.3448 209.906 46.6821 208.327C39.0356 201.045 30.9525 208.271 29.6669 215.084C29.0002 218.616 25.7662 247.552 36 258.416C39.0118 261.376 41.8847 258.94 41.8847 258.94C41.8847 258.94 42.337 261.809 46.6226 265.38C49.8963 268.106 54.6223 268.789 58.7095 267.749C66.1576 277.967 74.0343 274.666 74.4629 275.741C83.6689 297.875 118.799 266.924 118.433 264.432C110.029 261.531 101.133 257.635 98.7755 256.476C100.521 251.948 102.2 243.484 100.696 238.877C98.9858 233.643 89.7679 232.624 85.3514 236.6C82.2245 239.417 80.5182 243.556 78.9786 247.329C81.2325 241.822 82.6213 235.953 82.0856 229.977C81.9467 228.441 81.6809 226.866 80.8793 225.544C79.3079 222.957 76.5223 221.195 73.451 221.259C68.7409 221.35 66.8798 225.83 65.237 229.552C64.4077 231.437 63.5744 233.322 62.745 235.207C63.6101 233.25 63.7172 230.687 64.0823 228.592C64.5069 226.183 64.7212 223.715 64.2926 221.295C63.6736 217.807 61.4594 214.386 58.0825 213.307C55.6382 212.525 53.0232 213.66 51.3367 215.489H51.3447Z" fill="#FACDB9"/>
<path d="M42.2038 212.077C41.561 214.827 40.5571 217.672 38.8032 219.922C37.9461 221.021 36.8667 221.989 35.5414 222.469C34.5732 222.818 31.6685 223.247 31.1527 222.001C31.0058 221.652 31.0654 221.263 31.1209 220.894C31.7518 216.926 32.6169 212.993 33.8073 209.156C33.9581 208.664 34.1367 208.144 34.5295 207.807C35.2557 207.176 36.6842 207.367 37.585 207.402C38.9024 207.454 40.2039 208.125 41.434 208.533C41.7912 208.648 42.1721 208.783 42.3903 209.097C42.6324 209.446 42.5927 209.91 42.5292 210.331C42.4459 210.89 42.3388 211.478 42.1999 212.077H42.2038Z" fill="#FACDB9"/>
<path d="M61.154 216.003C60.1898 219.443 59.1224 222.721 56.5193 225.343C55.3963 226.407 54.2178 227.49 52.7575 228.014C51.0512 228.629 49.1704 228.423 47.3688 228.212C47.1942 228.193 47.0077 228.165 46.8887 228.038C46.7339 227.867 46.7617 227.605 46.7974 227.379C47.5196 223.288 48.1783 213.522 53.3726 212.646C55.9955 212.201 58.8724 213.312 60.9239 214.903C61.0191 214.979 61.1144 215.05 61.1699 215.153C61.3048 215.384 61.2374 215.673 61.1699 215.931C61.162 215.955 61.1501 215.983 61.1461 216.01H61.1501L61.154 216.003Z" fill="#FACDB9"/>
<path d="M80.0567 224.772C80.0924 225.372 79.8662 225.963 79.6083 226.514C78.7115 228.499 77.4377 230.209 76.2711 232.01C75.2235 233.629 73.8029 235.034 71.9419 235.657C69.0094 236.637 65.3786 234.744 65.2675 231.518C65.1643 228.55 66.4619 225.538 67.3944 222.784C68.7039 218.923 72.4577 219.538 75.6878 220.594C76.8187 220.963 77.8425 221.784 78.7194 222.578C79.3622 223.157 79.9813 223.876 80.0487 224.733C80.0487 224.745 80.0487 224.757 80.0487 224.768H80.0567V224.772Z" fill="#FACDB9"/>
<path d="M47.5135 220.462C38.5574 242.255 39.8391 257.401 42.9343 263.921L47.5135 220.462Z" fill="#FBCFB9"/>
<mask id="mask0_338_28703" style="mask-type:luminance" maskUnits="userSpaceOnUse" x="40" y="219" width="9" height="41">
<path d="M48.1085 219.866H40.1445V259.531H48.1085V219.866Z" fill="white"/>
</mask>
<g mask="url(#mask0_338_28703)">
<mask id="mask1_338_28703" style="mask-type:luminance" maskUnits="userSpaceOnUse" x="40" y="219" width="9" height="41">
<path d="M48.1085 219.866H40.1445V259.531H48.1085V219.866Z" fill="white"/>
</mask>
<g mask="url(#mask1_338_28703)">
<path d="M47.5135 220.462C38.5574 242.255 40.6169 251.27 41.8906 258.937" stroke="black" stroke-width="1.19043" stroke-linecap="round" stroke-linejoin="round"/>
</g>
</g>
<mask id="mask2_338_28703" style="mask-type:luminance" maskUnits="userSpaceOnUse" x="57" y="231" width="8" height="38">
<path d="M64.3485 231.924H57.5273V268.343H64.3485V231.924Z" fill="white"/>
</mask>
<g mask="url(#mask2_338_28703)">
<mask id="mask3_338_28703" style="mask-type:luminance" maskUnits="userSpaceOnUse" x="57" y="231" width="8" height="38">
<path d="M64.3485 231.926H57.5273V268.345H64.3485V231.926Z" fill="white"/>
</mask>
<g mask="url(#mask3_338_28703)">
<path d="M58.7152 267.748C57.2668 264.288 58.3025 246.638 63.7547 232.52" stroke="black" stroke-width="1.19043" stroke-linecap="round" stroke-linejoin="round"/>
</g>
</g>
<mask id="mask4_338_28703" style="mask-type:luminance" maskUnits="userSpaceOnUse" x="73" y="238" width="10" height="39">
<path d="M82.7055 238.199H73.6582V276.333H82.7055V238.199Z" fill="white"/>
</mask>
<g mask="url(#mask4_338_28703)">
<mask id="mask5_338_28703" style="mask-type:luminance" maskUnits="userSpaceOnUse" x="73" y="238" width="10" height="39">
<path d="M82.7055 238.199H73.6582V276.333H82.7055V238.199Z" fill="white"/>
</mask>
<g mask="url(#mask5_338_28703)">
<path d="M74.4679 275.736C74.3806 268.895 72.4481 258.903 82.1105 238.793" stroke="black" stroke-width="1.19043" stroke-linecap="round" stroke-linejoin="round"/>
</g>
</g>
<path d="M98.8059 256.42C101.183 257.591 103.234 258.384 105.651 259.519L97.2266 262.82L98.8059 256.424V256.42Z" fill="black"/>
<path d="M86.9671 201.623C84.4275 202.996 88.2012 205.857 88.9195 202.409C89.2012 201.067 87.7449 201.377 86.9671 201.623Z" fill="white"/>
<path d="M212.951 65.5505C204.17 64.491 202.773 77.1374 207.947 74.3081C209.396 73.5145 215.154 69.2726 215.519 68.0663C215.987 66.5029 214.019 65.8958 212.951 65.5505Z" fill="#E94B39"/>
<path d="M204.389 87.0664C203.357 85.0942 199.143 86.0466 197.349 86.4236C189.667 88.0505 202.345 92.7051 204.389 87.0664Z" fill="#E94B39"/>
<path d="M207.965 82.6415C207.521 84.4193 206.279 85.9033 206.148 82.9828C206.069 81.2249 204.319 79.7567 205.898 79.4036C207.652 79.0067 208.017 81.3797 207.965 82.6415Z" fill="#50AE32"/>
<path d="M200.17 83.2882C200.773 83.9667 202.626 81.824 200.9 82.1811C200.32 82.3001 200.07 82.7247 200.17 83.2882Z" fill="white"/>
<path d="M205.26 75.4785C203.343 75.3793 201.994 79.1371 204.736 77.4506C205.446 77.0142 206.494 76.0539 205.26 75.4785Z" fill="white"/>
<path d="M190.636 89.2834C191.977 88.2953 189.426 87.9223 189.707 89.2556C189.807 89.7199 190.386 89.4262 190.636 89.2834Z" fill="white"/>
<path d="M190.911 87.422C189.439 85.2713 192.236 86.3665 192.419 86.5649C193.248 87.4617 192.51 89.918 190.911 87.422Z" fill="#50AE32"/>
<path d="M242.235 90.2122C234.351 88.0416 227.978 90.5376 226.148 92.5494" stroke="black" stroke-width="0.793622" stroke-linecap="round" stroke-linejoin="round"/>
<path d="M211.332 63.3957C209.856 61.2449 212.658 62.3401 212.84 62.5385C213.67 63.4353 212.931 65.8916 211.332 63.3957Z" fill="#50AE32"/>
<path d="M206.755 62.1381C206.215 63.1539 207.91 64.8404 207.692 62.9238C207.636 62.4278 207.378 61.6143 206.755 62.1381Z" fill="white"/>
<path d="M218.698 71.5463C218.159 72.5621 219.853 74.2486 219.635 72.332C219.579 71.836 219.321 71.0225 218.698 71.5463Z" fill="white"/>
<defs>
<radialGradient id="paint0_radial_338_28703" cx="0" cy="0" r="1" gradientUnits="userSpaceOnUse" gradientTransform="translate(200.5 200) rotate(90) scale(368.704)">
<stop stop-color="#FFEA00"/>
<stop offset="1" stop-color="white"/>
</radialGradient>
</defs>
</svg>
