<svg width="401" height="400" viewBox="0 0 401 400" fill="none" xmlns="http://www.w3.org/2000/svg">
<path d="M0.5 200C0.5 89.5431 90.0431 0 200.5 0C310.957 0 400.5 89.5431 400.5 200C400.5 310.457 310.957 400 200.5 400C90.0431 400 0.5 310.457 0.5 200Z" fill="url(#paint0_radial_338_28900)"/>
<path d="M198.714 267.254C153.727 266.471 63.9162 263.326 21.9216 241.476C3.10992 231.687 8.3535 211.894 76.9809 198.191C159.198 181.776 147.243 161.06 276.673 167.428C298.64 168.509 300.813 166.308 324.89 174.533C358.258 185.935 382.966 181.999 375.684 221.377C381.803 222.902 376.637 224.987 361.91 229.124C345.839 233.641 252.575 268.194 198.714 267.254Z" fill="#161616"/>
<path d="M366.448 215.404C366.749 210.018 368.933 205.041 372.039 205.516C374.988 206.14 374.754 214.946 372.18 219.545C369.61 224.143 366.086 221.757 366.448 215.404Z" fill="white"/>
<path d="M184.307 255.41C105.129 254.028 36.0051 243.608 36.0051 243.608C17.8848 240.669 8.2556 234.684 12.5951 222.112C16.9311 209.541 36.6751 181.266 51.2253 167.865C63.4177 156.63 106.114 154.971 153.551 148.766C178.351 144.522 221.796 146.004 231.645 138.549C319.009 137.761 341.019 151.216 355.966 166.486C365.794 176.53 369.832 184.9 369.832 184.9C373.859 186.446 375.643 189.187 376.905 192.342C379.759 199.486 378.227 211.561 377.398 216.511L376.295 217.436C377.958 205.861 375.111 199.837 370.42 201.241C364.957 202.882 362.777 214.674 360.742 223.867L301.02 238.68C301.02 238.68 302.796 232.936 303.927 227.672C306.32 215.685 311.589 178.696 289.895 170.751C260.741 160.076 242.383 185.858 223.93 229.728C218.481 242.675 211.507 255.882 184.314 255.41" fill="white"/>
<path d="M355.64 180.896L317.197 228.45L350.435 221.689C368.073 192.238 364.652 187.278 363.737 183.353L355.643 180.896H355.64Z" fill="#FFEA09"/>
<path d="M359.147 205.671L345.395 193.521L317.191 228.447L350.454 221.65C350.454 221.65 356.08 212.347 359.147 205.671Z" fill="#161616"/>
<path d="M325.079 149.637C315.521 150.966 305.314 154.051 291.246 161.489C276.533 156.717 240.984 150.286 205.598 149.669L153.562 148.761C169.665 145.57 209.207 138.831 233.152 138.338C259.015 137.81 299.847 141.39 325.079 149.637Z" fill="#161616"/>
<path d="M325.079 149.637C315.521 150.966 305.314 154.051 291.246 161.489C276.533 156.717 240.984 150.286 205.598 149.669L153.562 148.761C169.665 145.57 209.207 138.831 233.152 138.338C259.015 137.81 299.847 141.39 325.079 149.637Z" stroke="#FACAB5" stroke-width="0.0779977" stroke-miterlimit="22.93"/>
<path d="M317.576 158.622C310.843 161.788 304.008 165.235 304.008 165.235L363.726 183.358C363.726 183.358 360.918 174.86 354.011 167.84C337.565 151.113 325.695 154.808 317.576 158.626" fill="#161616"/>
<mask id="mask0_338_28900" style="mask-type:luminance" maskUnits="userSpaceOnUse" x="304" y="155" width="60" height="29">
<path d="M317.58 158.622C310.847 161.788 304.012 165.235 304.012 165.235L363.726 183.358C363.726 183.358 360.918 174.86 354.012 167.84C337.568 151.113 325.695 154.808 317.576 158.626" fill="white"/>
</mask>
<g mask="url(#mask0_338_28900)">
<path d="M281.411 146.21C309.285 136.294 269.687 137.021 136.906 164.813L339.122 209.58L370.931 207.162C371.86 196.405 362.178 165.905 345.55 156.697C348.457 192.427 332.17 219.486 339.434 182.834C346.695 146.185 344.703 144.664 339.785 152.379C318.584 211.448 241.278 182.979 286.513 167.422C331.745 151.865 402.715 102.209 317.407 139.726C232.095 177.243 253.541 156.123 281.411 146.207" fill="#696969"/>
</g>
<path d="M223.504 167.83C223.504 167.83 196.106 171.379 158.592 171.432C120.558 171.485 48.899 168.918 48.899 168.918C44.6801 171.843 39.4648 178.512 39.4648 178.512C39.4648 178.512 155.114 188.088 182.612 187.301C211.209 186.482 224.082 170.542 223.508 167.83" fill="#FFEA09"/>
<path d="M295.036 213.541C291.582 229.644 282.308 244.648 267.421 246.754C248.049 249.495 241.713 229.57 249.23 209.666C258.135 186.068 272.391 177.737 283.361 180.64C293.156 183.236 298.368 198.027 295.039 213.538" fill="white"/>
<path d="M290.453 213.541C287.659 226.542 280.175 238.656 268.156 240.358" stroke="#161616" stroke-width="1.06361" stroke-miterlimit="22.93"/>
<path d="M283.746 114.396C282.391 112.021 282.281 108.922 285.462 108.132C286.653 107.838 289.599 99.7152 294.913 105.71C305.195 108.139 300.132 114.549 298.959 115.925C297.775 117.307 289.769 117.091 289.773 117.095C289.507 117.403 291.301 118.754 290.312 119.644C292.013 123.065 279.169 120.782 283.749 114.393" fill="#201230"/>
<path d="M317.805 240.177C321.191 238.6 325.048 236.717 328.877 236.728C332.277 236.738 336.081 238.912 339.424 237.827C340.062 237.621 340.204 236.947 340.821 236.657L322.077 171.724C322.098 170.44 334.603 183.413 336.194 183.927C336.155 184.1 338.96 223.301 342.573 228.368C344.749 231.417 359.328 227.917 362.653 228.276C363.192 228.332 363.752 228.382 364.259 228.201C371.939 225.429 355.038 188.915 353.748 183.739C352.212 177.573 348.341 172.525 343.767 168.256C340.275 164.995 336.648 161.868 332.734 159.116C328.345 156.032 322.91 155.567 317.72 155.192C312.944 154.844 296.061 154.171 292.48 150.781C287.056 167.774 304.41 173.826 303.584 180.693C299.844 211.775 292.246 233.104 289.332 264.279C289.839 258.925 296.944 252.76 301.081 250.101C306.644 246.52 311.7 243.003 317.783 240.174H317.798L317.805 240.177Z" fill="#CDA383"/>
<path d="M372.129 264.344C366.332 266.397 358.125 264.95 354.594 258.693C352.867 256.718 350.587 244.83 350.343 242.161C350.258 241.235 343.876 236.332 343.011 233.748C341.302 228.635 344.567 227.713 345.904 226.451C348.038 228.624 359.217 245.986 361.773 247.645C364.329 249.305 367.353 250.404 370.392 250.162C371.562 250.07 372.037 249.585 372.735 248.751C373.054 248.372 373.951 250.528 374.012 250.726C375.033 254.112 375.685 263.585 372.129 264.34" fill="#201230"/>
<path d="M360.098 226.794C359.817 227.018 355.538 232.414 355.538 232.414L351.291 229.28L351.117 223.43L360.101 226.794H360.098Z" fill="white"/>
<path d="M361.098 229.169C362.148 232.604 363.608 235.916 365.505 238.965C367.022 241.407 368.909 243.51 370.745 245.694C372.138 247.349 376.184 251.143 374.574 253.547C374.677 257.762 362.931 258.524 357.96 253.756C356.596 252.646 355.149 240.829 355.149 239.33C353.752 236.213 349.718 234.831 348.558 231.608C347.902 229.782 347.612 227.69 347.356 225.758C347.261 225.042 346.069 212.928 346.849 215.75C350.444 218.136 355.379 222.486 359.666 223C360.003 225.085 360.481 227.152 361.102 229.176L361.098 229.169Z" fill="#AEACD7"/>
<path d="M345.187 182.949C343.116 180.879 341.858 178.329 339.45 176.465C336.855 174.451 334.235 173.579 331.133 172.586C333.739 175.28 336.036 178.099 336.16 182.017C336.582 195.375 333.299 217.562 342.166 225.383C349.196 231.042 343.839 229.499 360.772 228.053C361.126 228.12 361.555 228.156 361.782 227.876C361.931 227.695 361.935 227.44 361.935 227.206C361.889 219.743 351.416 203.888 350.022 196.446C349.14 191.724 347.704 187.047 345.187 182.953V182.949Z" fill="#CDA383"/>
<path d="M289.461 268.377C288.635 263.757 290.418 259.159 292.042 254.983C293.361 251.583 295.038 248.321 297.044 245.272C299.877 240.968 303.125 236.632 307.078 233.285C309.46 231.278 312.055 229.516 314.863 228.176C320.397 225.535 326.74 224.73 332.515 227.098C332.881 227.247 333.239 227.407 333.593 227.58C342.513 231.916 343.29 243.389 339.259 251.313C336.944 255.862 333.381 259.811 329.796 263.417C326.105 267.125 322.046 270.462 317.685 273.351C316.235 274.315 314.746 275.237 313.122 275.875C308.613 277.655 304.472 279.371 299.522 278.722C298.363 278.57 297.207 278.311 296.154 277.804C295.381 277.435 294.69 276.939 294.038 276.386C291.776 274.443 290.177 271.748 289.553 268.834C289.514 268.682 289.486 268.529 289.461 268.377Z" fill="#161616"/>
<path d="M306.083 286.673C303.888 273.009 306.136 261.661 308.451 249.628C309.064 246.423 309.742 243.158 311.404 240.35C312.83 249.263 313.748 260.246 319.736 267.269C323.207 271.332 331.925 276.711 337.477 274.743C340.7 273.601 342.94 273.162 344.954 270.372C348.336 265.695 351.463 259.58 346.702 254.552C350.364 257.69 359.047 266.897 360.678 271.439C365.109 283.791 366.297 294.267 355.959 303.329C347.992 310.31 310.305 312.781 306.076 286.673" fill="#201230"/>
<path d="M310.951 248.28C311.072 247.521 311.178 246.763 311.299 246.004C312.082 240.629 312.763 229.525 312.749 229.284C318.765 225.693 323.846 225.742 323.846 225.742C323.846 225.742 325.36 233.85 327.412 237.47C328.004 238.513 328.685 239.498 329.483 240.424C330.447 241.54 331.596 242.597 331.979 244.019C332.649 246.507 330.692 248.954 328.536 250.372C325.498 252.371 321.768 253.247 318.152 252.956C316.276 252.804 310.409 251.925 310.951 248.28Z" fill="white"/>
<path d="M359.484 268.744C356.361 264.259 355.822 256.233 335.971 246.281C332.997 244.324 332.479 243.973 330.228 241.257C327.487 228.77 326.204 231.348 322.449 229.465C317.11 229.171 312.583 232.135 312.019 239.378C310.395 246.302 309.757 251.351 309.597 257.785C309.463 263.618 309.53 268.652 311.927 274.236C321.162 295.714 369.301 282.847 359.488 268.748" fill="#AEACD7"/>
<path d="M344.302 157.842C346.486 153.623 341.094 145.022 337.974 141.569C319.68 121.325 287.421 115.752 265.007 132.103C254.888 145.068 270.956 162.061 286.279 169.662C294.518 173.747 306.916 167.322 323.899 160.572C343.384 167.893 344.355 157.739 344.302 157.842Z" fill="#E94B39"/>
<path d="M296.807 123.191C296.807 123.191 301.412 123.077 297.409 125.144C296.8 125.396 294.009 125.995 292.389 126.002C290.4 126.013 288.504 125.119 289.408 123.932C290.212 123.113 294.073 123.634 296.807 123.191Z" fill="#1D112D"/>
<path d="M293.112 110.217C293.931 110.486 294.722 111.092 295.346 111.603C296.257 112.33 297.147 113.099 297.87 114.017C298.774 115.177 299.402 116.62 299.288 118.091C299.193 119.424 298.172 120.622 296.91 120.988C297.236 121.824 298.179 124.685 298.179 124.685C298.179 124.685 296.605 126.086 292.389 126.008C291.021 124.217 289.198 118.843 289.198 118.843C289.209 118.864 288.564 118.999 288.521 119.002C288.025 119.048 287.525 118.942 287.103 118.662C286.437 118.219 286.018 117.524 285.894 116.765C285.72 115.666 286.469 114.787 287.596 115.106C288.067 115.244 288.493 115.535 288.858 115.854C289.103 116.049 289.755 116.733 289.755 116.733C289.755 116.733 289.124 114.9 288.947 114.092C288.397 111.763 290.411 109.564 292.854 110.142C292.939 110.164 293.024 110.188 293.112 110.217Z" fill="#FACAB5"/>
<path d="M294.77 114.176C295.117 114.605 295.794 115.073 296.975 115.562C296.975 115.562 296.68 116.526 295.539 116.86" stroke="#201230" stroke-width="0.531803" stroke-linecap="round" stroke-linejoin="round"/>
<path d="M293.911 114.898C293.911 114.898 293.088 116.079 291.479 115.81" stroke="#201230" stroke-width="0.531803" stroke-linecap="round" stroke-linejoin="round"/>
<path d="M297.006 113.059C296.616 114.009 295.712 114.459 294.883 114.314" stroke="#201230" stroke-width="0.531803" stroke-linecap="round" stroke-linejoin="round"/>
<path d="M296.486 118.19C296.486 118.19 294.788 118.839 293.395 117.502" stroke="#201230" stroke-width="0.531803" stroke-linecap="round" stroke-linejoin="round"/>
<path d="M290.93 118.729C290.93 118.729 293.16 121.898 296.914 120.987" stroke="#201230" stroke-width="0.531803" stroke-linecap="round" stroke-linejoin="round"/>
<path fill-rule="evenodd" clip-rule="evenodd" d="M316.639 134.811C317.178 140.444 318.302 147.01 301.334 149.556C306.34 148.758 318.809 148.648 320.022 148.216C320.224 145.486 319.731 139.384 316.643 134.811" fill="#161616"/>
<path fill-rule="evenodd" clip-rule="evenodd" d="M296.286 145.535C296.286 145.535 289.266 139.199 284.444 139.082C278.853 138.951 269.359 138.189 265.14 142.28C263.123 144.237 264.215 146.626 269.87 145.074C267.551 146.045 264.498 146.665 266.076 150.487C266.477 151.459 266.75 151.913 268.462 151.618C269.568 151.427 271.362 150.331 272.599 149.59C272.926 149.395 268.82 152.022 269.405 154.859C269.639 155.997 270.589 156.22 271.472 155.837C271.883 155.656 270.862 157.018 271.951 157.823C274.064 159.39 274.826 157.759 277.744 156.163C281.665 154.019 289.202 150.434 301.331 149.548L296.282 145.527L296.286 145.535Z" fill="#FACAB5"/>
<path fill-rule="evenodd" clip-rule="evenodd" d="M328.209 147.216C328.209 147.216 330.021 144.468 331.485 144.174C332.946 143.883 334.584 144.816 335.52 145.284C336.456 145.752 337.392 145.518 337.449 146.745C337.505 147.971 337.034 148.152 337.034 148.152C337.034 148.152 338.385 148.73 338.211 149.783C338.037 150.836 337.275 151.478 337.275 151.478C337.275 151.478 337.906 151.719 337.566 152.704C337.225 153.69 336.307 153.537 336.296 153.711C336.286 153.888 337.027 154.13 336.484 154.952C335.942 155.775 333.942 155.452 333.942 155.452L329.014 155.576C329.464 153.647 328.794 148.227 326.525 147.932L328.213 147.213L328.209 147.216Z" fill="#FACAB5"/>
<path fill-rule="evenodd" clip-rule="evenodd" d="M288.708 140.318C287.41 135.468 290.864 133.486 294.019 134.699C297.171 135.912 292.363 138.812 293.707 142.219C295.051 145.626 296.288 145.534 296.288 145.534L288.708 140.315V140.318Z" fill="#FACAB5"/>
<path d="M282.681 149.982C276.409 150.904 274.601 152.322 271.566 155.846" stroke="black" stroke-width="0.70907" stroke-linecap="round" stroke-linejoin="round"/>
<path d="M282.832 146.707C277.524 146.945 273.816 148.384 271.604 150.412" stroke="black" stroke-width="0.70907" stroke-linecap="round" stroke-linejoin="round"/>
<path d="M301.333 149.559C295.193 144.163 289.176 138.844 281.812 139.008" stroke="black" stroke-width="0.70907" stroke-linecap="round" stroke-linejoin="round"/>
<path d="M330.808 262.084C330.808 262.084 325.015 270.412 327.557 274.765C330.109 279.116 340.27 264.512 340.27 264.512C340.27 264.512 343.876 258.893 341.572 256.103C339.834 253.997 335.115 255.929 335.115 255.929C335.115 255.929 340.157 252.136 338.2 249.849C336.246 247.562 327.245 250.281 327.245 250.281C327.245 250.281 320.665 252.543 321.317 255.029C321.969 257.517 326.543 255.95 328.773 254.745C328.773 254.745 320.335 260.226 322.157 263.676C323.98 267.125 330.811 262.087 330.811 262.087L330.808 262.084Z" fill="white"/>
<path d="M360.949 236.26C360.949 236.26 358.304 240.061 359.463 242.05C360.629 244.035 365.267 237.37 365.267 237.37C365.267 237.37 366.912 234.803 365.862 233.53C365.068 232.569 362.913 233.452 362.913 233.452C362.913 233.452 365.214 231.719 364.32 230.676C363.427 229.63 359.318 230.875 359.318 230.875C359.318 230.875 356.315 231.906 356.613 233.041C356.91 234.175 358.999 233.463 360.016 232.91C360.016 232.91 356.162 235.413 356.995 236.987C357.829 238.561 360.945 236.26 360.945 236.26H360.949Z" fill="white"/>
<path fill-rule="evenodd" clip-rule="evenodd" d="M328.952 146.213C328.761 145.656 329.821 144.628 331.118 143.834C332.416 143.04 334.359 143.267 335.515 145.284C336.67 147.305 332.728 146.131 332.728 146.131L329.005 147.209L328.952 146.213Z" fill="#FACAB5"/>
<path d="M331.23 145.524C331.23 145.524 332.684 144.74 333.319 144.74C333.953 144.74 335.52 145.29 335.52 145.29" stroke="black" stroke-width="0.70907" stroke-linecap="round" stroke-linejoin="round"/>
<path d="M334.863 147.625C335.498 147.625 337.065 148.175 337.065 148.175" stroke="black" stroke-width="0.70907" stroke-linecap="round" stroke-linejoin="round"/>
<path d="M334.869 150.51C336.025 150.598 337.401 151.559 337.401 151.559" stroke="black" stroke-width="0.70907" stroke-linecap="round" stroke-linejoin="round"/>
<path d="M334.707 153.08C335.313 153.296 335.625 153.435 336.441 153.924" stroke="black" stroke-width="0.70907" stroke-linecap="round" stroke-linejoin="round"/>
<path fill-rule="evenodd" clip-rule="evenodd" d="M287.186 114.049C288.611 113.635 290.192 114.751 290.71 116.545C291.231 118.336 290.497 120.126 289.068 120.541C287.643 120.956 286.062 119.839 285.541 118.045C285.02 116.251 285.753 114.464 287.182 114.049" fill="#AEACD7"/>
<path fill-rule="evenodd" clip-rule="evenodd" d="M286.42 116.792C286.924 116.647 287.484 117.04 287.668 117.675C287.852 118.309 287.594 118.94 287.087 119.089C286.583 119.235 286.023 118.841 285.839 118.206C285.654 117.572 285.913 116.941 286.42 116.792Z" fill="#2C1330"/>
<path fill-rule="evenodd" clip-rule="evenodd" d="M286.249 115.41C286.249 115.41 283.781 110.804 284.054 108.769C284.324 106.734 287.387 105.887 287.387 105.887C287.387 105.887 286.479 106.862 285.781 108.574C285.082 110.287 287.593 115.105 287.593 115.105L286.249 115.406V115.41Z" fill="#AEACD7"/>
<path d="M323.898 160.574C328.206 160.344 328.631 157.011 329.007 155.582C328.943 154.717 329.865 147.786 325.589 147.864C310.55 148.14 292.359 149.672 285.58 152.647" stroke="#2C1330" stroke-width="0.70907" stroke-linecap="round" stroke-linejoin="round"/>
<path d="M281.159 143.367C275.955 142.314 272.005 143.917 269.371 145.345" stroke="black" stroke-width="0.70907" stroke-linecap="round" stroke-linejoin="round"/>
<defs>
<radialGradient id="paint0_radial_338_28900" cx="0" cy="0" r="1" gradientUnits="userSpaceOnUse" gradientTransform="translate(200.5 200) rotate(90) scale(368.704)">
<stop stop-color="#FFEA00"/>
<stop offset="1" stop-color="white"/>
</radialGradient>
</defs>
</svg>
