<svg width="401" height="401" viewBox="0 0 401 401" fill="none" xmlns="http://www.w3.org/2000/svg">
<path d="M0.5 200.68C0.5 90.2227 90.0431 0.679688 200.5 0.679688C310.957 0.679688 400.5 90.2227 400.5 200.68C400.5 311.137 310.957 400.68 200.5 400.68C90.0431 400.68 0.5 311.137 0.5 200.68Z" fill="url(#paint0_radial_338_28116)"/>
<path d="M246.482 130.372C251.287 131.663 280.293 139.924 299.953 144.943C299.953 140.152 292.243 106.752 293.057 104.775C274.403 97.3753 265.84 90.7899 248.919 86.668C248.919 93.0959 246.342 126.6 246.482 130.377V130.372Z" fill="#CDA383"/>
<path d="M274.299 96.3696C274.574 98.3168 277.292 125.818 279.16 137.715C276.289 138.534 269.17 135.046 266.711 134.692C266.711 105.734 266.689 93.5298 266.527 92.7422C268.785 93.1841 270.75 94.965 274.303 96.3653" fill="#E94B38"/>
<path d="M249.947 90.3301C250.184 90.387 251.242 90.7808 252.428 91.1352C252.516 92.3166 252.428 99.1733 252.35 101.453C252.35 101.488 252.35 101.519 252.35 101.554C251.317 101.226 249.952 100.709 249.952 100.709C249.952 100.709 250.122 93.0999 249.952 90.3301" fill="black"/>
<path d="M256.057 92.1641C256.525 92.3041 257.19 92.4353 257.663 92.5797C257.715 93.1048 257.698 102.635 257.72 103.13C257.09 102.959 256.635 102.832 255.926 102.631C255.926 102.548 256.031 95.5683 256.057 92.1641Z" fill="black"/>
<path d="M254.083 91.5605C254.582 91.7137 255.103 91.8712 255.632 92.0331C255.615 92.5232 255.431 97.3321 255.436 99.288C255.436 100.373 255.3 101.375 255.239 102.434C254.81 102.312 254.381 102.185 253.961 102.058C253.961 101.725 254.048 94.7242 254.083 91.5649V91.5605Z" fill="black"/>
<path d="M262.13 94.0285C262.152 94.4354 262.441 100.885 262.397 103.839C261.513 103.874 259.798 103.48 259.593 103.432C259.584 103.283 259.334 96.4658 259.312 93.1621C260.345 93.4815 261.312 93.7791 262.135 94.0329L262.13 94.0285Z" fill="black"/>
<path d="M262.898 94.2695C263.953 94.5977 264.456 94.7508 264.456 94.7508L264.854 104.408C264.854 104.408 264.22 104.312 263.235 104.093C263.266 102.645 262.859 94.9959 262.903 94.2695H262.898Z" fill="black"/>
<path d="M217.695 136.197C217.695 131.405 222.889 98.5572 222.443 96.3649C231.164 93.7133 244.479 87.3248 248.916 86.6641C248.916 93.0919 248.036 127.039 247.958 130.775C245.669 131.362 230.07 133.147 217.695 136.197Z" fill="#7D6351"/>
<path d="M245.77 196.783C252.705 198.91 294.563 212.531 322.935 220.801C322.935 212.899 310.854 147.386 312.026 144.117C286.612 136.403 273.704 131.524 249.288 124.729C249.288 135.322 245.568 190.552 245.77 196.779H245.774L245.77 196.783Z" fill="#CDA383"/>
<path d="M242.482 313.516C251.299 316.216 307.824 328.175 349.945 304.376C349.945 294.329 331.983 224.572 333.47 220.419C301.16 210.613 275.252 202.374 244.215 193.736C244.215 207.205 242.22 305.601 242.473 313.512H242.478L242.482 313.516Z" fill="#CDA383"/>
<path d="M301.503 210.645C302.006 214.728 312.381 291.315 315.803 316.248C310.539 317.968 289.391 319.105 284.88 318.366C284.88 257.68 281.471 206.116 281.174 204.467C285.318 205.39 294.988 207.709 301.503 210.645Z" fill="#E94B38"/>
<path d="M246.875 210.038C247.309 210.143 249.251 210.865 251.422 211.517C251.579 213.687 251.422 226.263 251.273 230.446C251.273 230.507 251.269 230.568 251.269 230.63C249.37 230.026 246.871 229.076 246.871 229.076C246.871 229.076 247.182 215.118 246.871 210.033" fill="black"/>
<path d="M258.082 213.401C258.94 213.659 260.16 213.9 261.031 214.162C261.127 215.129 261.097 232.61 261.136 233.516C259.981 233.205 259.15 232.969 257.846 232.597C257.846 232.444 258.034 219.641 258.082 213.396" fill="black"/>
<path d="M254.463 212.295C255.373 212.575 256.331 212.869 257.303 213.162C257.272 214.063 256.935 222.88 256.944 226.468C256.944 228.455 256.695 230.301 256.585 232.235C255.802 232.008 255.01 231.776 254.244 231.548C254.244 230.936 254.402 218.098 254.467 212.3V212.291L254.463 212.295Z" fill="black"/>
<path d="M269.227 216.823C269.267 217.567 269.8 229.403 269.713 234.816C268.094 234.882 264.943 234.16 264.567 234.072C264.554 233.797 264.09 221.291 264.051 215.23C265.941 215.812 267.718 216.359 269.232 216.828H269.227V216.823Z" fill="black"/>
<path d="M270.641 217.262C272.575 217.861 273.498 218.146 273.498 218.146L274.229 235.867C274.229 235.867 273.069 235.688 271.253 235.29C271.31 232.633 270.562 218.596 270.641 217.266V217.262Z" fill="black"/>
<path d="M278.548 234.288C276.351 234.074 274.308 234.406 272.107 234.231C270.387 234.091 268.593 233.54 266.817 233.29C262.725 232.717 258.376 231.426 254.075 230.35C250.902 229.554 247.41 227.751 244.312 226.906C245.17 228.67 244.658 230.827 245.201 232.682C245.376 233.29 245.791 235.343 246.356 235.903C247.375 236.913 250.487 236.922 251.392 237.119C254.499 237.815 257.728 238.804 260.909 239.718C263.395 240.436 265.67 240.624 268.077 241.127C270.195 241.569 272.273 241.814 274.181 241.749C275.179 241.714 276.299 241.202 277.371 241.442C277.716 238.952 277.415 235.452 278.552 234.279L278.548 234.288Z" fill="#CDA383"/>
<path d="M275.2 218.749C268.024 216.718 261.027 215.204 253.702 212.894C251.987 212.351 250.254 211.721 248.521 211.117C247.567 210.785 245.751 210.479 244.837 209.595C244.837 208.089 244.999 206.72 244.701 205.035C246.81 206.523 249.475 206.501 251.378 206.974C254.971 207.857 258.791 209.371 262.51 210.706C265.543 211.791 268.649 213.065 271.655 214.036C273.073 214.5 274.968 214.727 276.464 215.773C276.512 216.81 275.34 218.644 275.2 218.757V218.749Z" fill="#CDA383"/>
<path d="M285.416 135.733C285.814 138.944 290.229 189.274 292.921 208.89C288.777 210.242 278.503 204.488 274.954 203.906C274.954 156.167 274.818 133.785 274.582 132.49C277.842 133.217 280.288 133.427 285.416 135.737" fill="#E94B38"/>
<path d="M250.881 132.609C251.222 132.693 252.749 133.261 254.46 133.773C254.583 135.48 254.46 145.373 254.346 148.664C254.346 148.712 254.342 148.76 254.342 148.808C252.85 148.331 250.885 147.587 250.885 147.587C250.885 147.587 251.13 136.609 250.885 132.609" fill="black"/>
<path d="M259.692 135.256C260.365 135.462 261.328 135.65 262.011 135.855C262.089 136.617 262.063 150.369 262.094 151.083C261.184 150.838 260.532 150.654 259.508 150.361C259.508 150.243 259.657 140.17 259.696 135.26" fill="black"/>
<path d="M256.848 134.387C257.566 134.606 258.319 134.837 259.084 135.069C259.058 135.778 258.796 142.714 258.8 145.54C258.8 147.102 258.603 148.555 258.52 150.078C257.903 149.899 257.282 149.715 256.678 149.535C256.678 149.054 256.805 138.955 256.853 134.395V134.387H256.848Z" fill="black"/>
<path d="M268.46 137.953C268.491 138.539 268.911 147.846 268.845 152.108C267.572 152.156 265.095 151.592 264.798 151.522C264.789 151.303 264.426 141.466 264.391 136.701C265.878 137.161 267.274 137.589 268.464 137.957H268.46V137.953Z" fill="black"/>
<path d="M269.572 138.293C271.094 138.766 271.821 138.989 271.821 138.989L272.394 152.93C272.394 152.93 271.479 152.79 270.053 152.479C270.097 150.392 269.506 139.348 269.572 138.302V138.293Z" fill="black"/>
<path d="M275.796 151.687C274.067 151.521 272.461 151.779 270.729 151.643C269.376 151.534 267.963 151.096 266.567 150.904C263.347 150.453 259.929 149.438 256.543 148.593C254.044 147.968 251.301 146.55 248.863 145.885C249.537 147.272 249.135 148.97 249.563 150.427C249.703 150.904 250.027 152.518 250.474 152.96C251.279 153.752 253.72 153.761 254.434 153.919C256.88 154.465 259.417 155.24 261.92 155.962C263.876 156.526 265.666 156.675 267.561 157.069C269.223 157.419 270.86 157.612 272.365 157.555C273.148 157.528 274.028 157.126 274.877 157.314C275.148 155.354 274.912 152.601 275.804 151.678L275.796 151.687Z" fill="#CDA383"/>
<path d="M195.772 208.777C195.772 200.874 207.976 139.501 207.333 135.887C219.917 131.515 242.885 125.818 249.282 124.729C249.282 135.322 248.009 191.283 247.9 197.448C244.6 198.411 213.629 203.745 195.768 208.772" fill="#7D6351"/>
<path d="M170.24 294.046C170.24 283.999 189.686 209.805 188.872 205.206C206.296 200.13 234.869 193.191 244.216 193.737C244.216 207.206 242.623 305.681 242.483 313.518C252.262 314.935 184.803 306.652 170.24 294.046Z" fill="#7D6351"/>
<path d="M151.993 123.975C151.993 126.732 146.217 128.964 139.089 128.964C131.961 128.964 126.186 126.732 126.186 123.975C126.186 123.551 126.326 123.131 126.588 122.737C126.763 122.632 127.341 120.79 128.251 120.361C131.87 118.663 140.608 115.114 149.591 119.674C150.239 120.002 151.656 122.772 151.6 122.733C151.862 123.131 152.002 123.546 152.002 123.975" fill="black"/>
<path d="M184.002 242.544C184.002 240.478 199.904 223.308 175.43 170.975C175.43 170.975 165.76 152.374 157.499 138.262C157.499 138.262 147.864 123.809 145.798 118.3C145.798 118.3 136.163 114.17 131.687 120.02C131.687 120.02 124.458 137.225 106.22 158.911C87.9779 180.593 78.3427 194.017 47.3672 211.914L120.673 246.674L128.589 214.32C128.589 214.32 127.77 213.778 127.652 208.3C127.477 200.021 128.904 180.466 137.191 134.473C137.191 134.473 157.499 169.92 126.865 206.059L183.998 242.539L184.002 242.544Z" fill="#DA78AE"/>
<path d="M119.381 252.528C116.703 259.192 110.442 263.73 102.316 265.795C93.0176 268.162 81.2776 267.283 69.6952 262.627C61.7927 259.45 55.0542 254.952 49.9565 249.828C41.0607 240.889 37.1663 230.041 40.82 220.953C46.2503 207.445 66.4047 202.663 86.9091 209.528C88.1081 209.931 89.307 210.368 90.506 210.854C95.7043 212.946 100.404 215.606 104.464 218.647C117.325 228.274 123.752 241.663 119.381 252.528Z" fill="black"/>
<path fill-rule="evenodd" clip-rule="evenodd" d="M155.279 76.3591C163.637 74.5957 156.373 66.3431 163.449 63.2539L173.46 74.6219C170.2 78.3588 163.991 78.0043 161.116 83.5352L155.279 76.3591Z" fill="#FACAB5"/>
<path d="M222.905 77.4321C222.542 75.9619 220.831 73.0039 220.31 71.5862C218.529 66.7467 214.893 62.5854 209.896 60.9139C206.435 59.7543 202.86 58.8179 199.355 57.7415C196.117 56.7482 192.809 55.348 189.396 55.0505C179.892 54.2191 171.6 60.9533 164.98 66.8429C163.614 68.055 162.691 68.9608 162.039 69.8884C172.532 75.6468 183.02 83.6718 186.215 85.2602C188.744 86.5204 214.539 77.4321 222.9 77.4321" fill="#F4DBC7"/>
<path d="M210.475 68.5663C210.637 67.363 185.761 76.0137 174.516 78.1272C173.089 76.8276 171.895 76.005 170.49 74.9285C180.611 71.1392 200.774 63.3548 200.678 63.8187C202.827 64.7419 208.139 67.1179 210.475 68.5663Z" fill="#E94B38"/>
<path d="M168.293 40.046C166.096 48.6092 163.3 64.5936 162.307 70.0282C165.26 68.7636 184.456 60.7123 187.62 59.1809C188.311 56.7742 188.885 24.171 188.788 23.8516C183.717 24.6567 167.452 40.0416 168.293 40.0416" fill="#E7BB98"/>
<path d="M188.392 23.5625C191.223 24.617 206.555 31.7275 220.085 48.5477C220.085 51.7725 222.426 75.7776 222.907 77.4316C219.166 74.001 218.772 73.5285 211.023 68.8902C203.278 64.252 191.367 60.1739 187.617 59.1806C187.617 54.8574 188.309 26.0479 188.387 23.5625H188.392Z" fill="#CDA383"/>
<path d="M210.475 68.5663C210.637 67.363 208.738 45.397 208.27 36.2475C206.581 34.5497 205.692 33.7927 204.244 33.0488C204.152 38.5097 200.774 63.3548 200.678 63.8186C202.826 64.7419 208.138 67.1179 210.475 68.5663Z" fill="#E94B38"/>
<path d="M190.706 33.1583C190.837 33.2283 191.445 33.469 192.119 33.7884C192.224 33.132 192.5 29.067 192.565 27.6931C192.565 27.6756 192.565 27.6537 192.565 27.6318C191.975 27.3649 191.196 27.0586 191.196 27.0586C191.196 27.0586 190.929 31.6006 190.701 33.1539" fill="black"/>
<path d="M194.184 34.8043C194.451 34.9312 194.827 35.15 195.094 35.2769C195.146 34.9925 195.593 29.3872 195.628 29.1072C195.269 28.9278 195.011 28.8009 194.608 28.5996C194.608 28.6477 194.328 32.7915 194.184 34.8043Z" fill="black"/>
<path d="M193.059 34.2789C193.343 34.4101 193.641 34.5502 193.942 34.6902C193.956 34.3926 194.083 31.4916 194.179 30.3407C194.231 29.7063 194.201 29.0543 194.218 28.4067C193.973 28.2886 193.728 28.1704 193.492 28.0566C193.474 28.2535 193.19 32.4017 193.063 34.2745L193.059 34.2789Z" fill="black"/>
<path d="M197.645 36.4147C197.676 36.1872 198.144 32.5247 198.258 30.7745C197.767 30.3631 196.796 29.8249 196.682 29.7637C196.674 29.8512 196.21 33.7412 196.039 35.6708C196.625 35.9421 197.177 36.2003 197.649 36.4191L197.645 36.4147Z" fill="black"/>
<path d="M198.082 36.6149C198.682 36.895 198.97 37.0263 198.97 37.0263L199.649 31.5304C199.649 31.5304 199.294 31.3072 198.734 30.9922C198.682 31.8542 198.091 36.1686 198.082 36.6149Z" fill="black"/>
<path d="M198.902 61.1285C196.596 60.2184 194.351 59.1813 191.997 58.3281C191.446 58.1312 190.89 57.9518 190.335 57.768C190.028 57.6673 189.446 57.3698 189.153 57.4573C189.153 57.943 189.206 58.4156 189.109 58.8925C189.788 58.875 190.641 59.4614 191.253 59.7239C192.409 60.2227 193.634 60.5684 194.828 60.9491C195.804 61.2598 196.802 61.5311 197.764 61.8724C198.22 62.0343 198.828 62.3712 199.309 62.3625C199.327 62.0387 198.946 61.1941 198.902 61.1285Z" fill="#CDA383"/>
<path d="M218.478 77.9885C215.459 80.3732 213.941 78.3779 213.77 77.0696C213.77 77.0696 211.193 77.2052 209.635 76.4745C208.248 78.1766 203.92 80.9464 199.225 81.8828L196.609 88.7964C195.663 88.3588 194.714 87.8731 193.76 87.3568C191.629 86.1972 189.669 84.9414 187.932 83.6506C188.728 81.3227 190.894 75.6343 193.069 70.9042C194.136 68.5764 195.208 66.476 196.123 65.1239C196.123 65.1239 197.917 60.2888 197.711 56.9983C197.506 53.7034 198.499 52.9595 200.407 53.2396C202.026 53.5809 202.835 57.3396 200.941 62.2404C200.941 62.2404 205.216 57.7597 211.893 58.4248C218.566 59.0899 222.001 58.9105 222.132 60.4245C222.263 61.9384 219.445 63.2993 215.393 63.3605C215.393 63.3605 220.631 63.7456 220.57 67.3468C220.57 67.3468 220.574 68.4101 219.594 69.0708C219.594 69.0708 221.318 70.0466 220.509 72.0113C220.509 72.0113 219.9 72.952 219.205 73.2452C219.205 73.2452 221.506 75.6081 218.491 77.9928L218.478 77.9885Z" fill="#FACDB9"/>
<path d="M207.814 63.4681C207.814 63.4681 211.617 62.5098 217.76 63.7088" stroke="black" stroke-width="0.875137" stroke-linecap="round" stroke-linejoin="round"/>
<path d="M209.717 68.1723C209.922 67.9141 215.606 67.1133 219.584 69.0605" stroke="black" stroke-width="0.875137" stroke-linecap="round" stroke-linejoin="round"/>
<path d="M210.947 71.9132C210.947 71.9132 216.973 70.9943 219.191 73.2346" stroke="black" stroke-width="0.875137" stroke-linecap="round" stroke-linejoin="round"/>
<path d="M213.852 77.1907C213.935 77.3133 215.856 76.7313 216.74 76.0137" stroke="black" stroke-width="0.875137" stroke-linecap="round" stroke-linejoin="round"/>
<path d="M200.936 62.2305C200.936 62.2305 198.91 63.8407 197.986 65.0484" stroke="black" stroke-width="0.875137" stroke-linecap="round" stroke-linejoin="round"/>
<path d="M206.546 92.2688C188.872 108.034 166.631 122.308 146.835 111.071L151.648 122.767C151.648 122.767 151.609 122.745 151.591 122.728C150.16 120.575 145.102 118.982 139.086 118.982C133.069 118.982 128.006 120.575 126.584 122.732C126.558 122.75 126.536 122.759 126.527 122.763L133.406 110.721L146.485 100.053C152.917 108.463 177.788 79.8156 186.846 75.6805C186.846 75.6805 211.079 75.2736 206.546 92.2644" fill="#FFF9EC"/>
<path d="M145.382 107.138L133.406 110.726C133.406 110.726 135.012 106.517 134.325 101.358C132.277 81.8902 154.515 73.839 154.515 73.839C159.805 69.8527 166.115 79.0723 166.053 79.558C163.992 96.6888 141.899 94.9123 145.382 107.142" fill="#FFF9EC"/>
<path d="M187.786 227.571C187.786 239.578 181.481 250.115 171.994 256.039C166.84 259.264 160.753 261.124 154.229 261.124C136.761 261.124 122.413 247.778 120.821 230.722C120.72 229.68 120.672 228.63 120.672 227.567C120.672 212.532 130.557 199.812 144.182 195.537C147.355 194.548 150.724 194.01 154.225 194.01C158.828 194.01 163.217 194.942 167.212 196.618C179.293 201.693 187.782 213.639 187.782 227.567" fill="black"/>
<path d="M166.105 318.603C134.443 321.009 129.625 300.706 128.369 289.281C127.113 277.856 127.901 279.711 120.672 259.023C119.74 256.358 119.049 253.856 118.581 251.501C117.623 246.736 117.561 242.562 118.218 238.751V238.733C118.218 238.733 118.226 238.703 118.235 238.641C118.244 238.606 118.248 238.558 118.261 238.501C118.27 238.462 118.274 238.418 118.283 238.379C118.318 238.191 118.366 237.941 118.432 237.631C118.445 237.587 118.454 237.539 118.463 237.49C118.52 237.232 118.576 236.979 118.638 236.725C118.638 236.712 118.638 236.703 118.646 236.694C119.163 234.611 119.898 232.633 120.821 230.721C122.269 227.72 124.177 224.893 126.435 222.079C128.22 219.848 130.224 217.625 132.377 215.35C133.152 214.527 133.878 213.717 134.561 212.925C134.561 212.925 134.578 212.903 134.609 212.864C134.968 212.448 135.305 212.037 135.633 211.63C141.295 204.616 143.334 198.809 144.187 195.541C147.36 194.552 150.729 194.014 154.229 194.014C158.833 194.014 163.222 194.946 167.217 196.622L167.479 214.667C167.479 214.667 167.689 219.222 168.24 225.947V225.961C168.91 234.196 170.083 245.682 171.99 256.043C174.471 269.525 178.195 281.094 183.652 281.094C201.531 287.312 201.876 306.683 197.658 310.687C184.089 318.226 169.881 318.559 166.105 318.607" fill="#FFF9EC"/>
<path d="M109.318 302.083C109.318 302.083 96.9694 318.326 53.2607 289.284C48.1805 285.906 44.8025 282.458 42.7941 278.953C42.7941 278.953 42.7809 278.932 42.7722 278.914C37.4207 269.524 41.9102 259.722 49.9614 249.833C53.9345 244.959 58.7697 240.058 63.7186 235.175C72.5137 226.502 81.6545 217.882 86.9141 209.533C88.113 209.936 89.312 210.378 90.5109 210.859C95.7092 212.951 100.409 215.611 104.469 218.652C102.846 225.539 99.1879 242.78 100.321 254.808C100.321 254.83 100.321 254.843 100.33 254.865C100.33 254.865 100.562 259.622 102.325 265.805C103.721 270.679 106.066 276.433 110.009 281.439C111.838 283.762 112.893 286.003 113.409 288.09C115.417 296.207 109.322 302.088 109.322 302.088" fill="#FFF9EC"/>
<path d="M100.317 254.8C100.164 253.627 97.5603 234.803 85.1465 229.631C76.2551 225.929 67.9544 231.447 63.7188 235.171C72.5139 226.498 81.6547 217.878 86.9143 209.529C88.1132 209.932 89.3121 210.374 90.5111 210.855C95.7138 212.947 100.409 215.607 104.47 218.648C102.846 225.536 99.1881 242.776 100.321 254.805" fill="#FACDB9"/>
<path d="M100.316 254.801C100.316 254.801 100.316 254.835 100.325 254.857C100.325 254.857 100.325 254.835 100.316 254.801Z" fill="#FACDB9"/>
<path d="M168.24 225.947C166.521 219.278 162.097 205.679 154.229 203.513C145.868 201.207 138.337 208.554 135.633 211.634C141.295 204.62 143.334 198.813 144.187 195.545C147.36 194.556 150.729 194.018 154.229 194.018C158.833 194.018 163.222 194.95 167.217 196.625L167.479 214.671C167.479 214.671 167.689 219.226 168.24 225.951" fill="#FACDB9"/>
<path d="M188.81 314.655C177.092 318.37 166.105 318.602 166.105 318.602C134.443 321.009 129.625 300.706 128.369 289.281C127.113 277.856 127.901 279.711 120.672 259.023C117.859 250.967 117.237 244.447 118.217 238.75V238.733C118.217 238.733 118.226 238.702 118.235 238.641C118.244 238.606 118.248 238.558 118.261 238.501C118.27 238.462 118.274 238.418 118.283 238.378C118.318 238.19 118.366 237.941 118.432 237.63C118.445 237.586 118.454 237.538 118.463 237.49C118.511 237.258 118.568 237 118.638 236.724C118.638 236.711 118.638 236.703 118.646 236.694C119.46 233.294 121.622 226.415 126.435 222.079C129.511 219.305 133.672 217.568 139.26 218.443C149.438 220.04 156.618 227.076 160.338 236.427C164.499 246.898 164.079 257.461 164.503 268.461C164.819 276.609 166.302 284.634 168.761 292.401C170.59 298.177 184.815 318.817 188.815 314.647" fill="#DA78AE"/>
<path d="M109.316 302.083C109.316 302.083 106.402 305.912 98.3948 306.525C89.9191 307.177 75.7331 304.214 53.2552 289.28C52.0212 288.462 50.8923 287.635 49.8509 286.808C49.8509 286.808 49.8509 286.799 49.8422 286.795C48.8707 286.02 47.9825 285.241 47.1774 284.458C45.2958 282.638 43.8475 280.8 42.7885 278.945C42.5435 278.673 36.5313 258.366 55.3686 261.122C74.2103 263.875 86.913 285.771 90.7154 289.28C94.5135 292.789 109.225 300.919 113.403 288.081C115.412 296.198 109.316 302.079 109.316 302.079" fill="#DA78AE"/>
<path d="M98.3947 306.524C89.919 307.176 75.733 304.214 53.2551 289.28C52.0212 288.461 50.8922 287.634 49.8508 286.803C49.8508 286.803 49.8508 286.803 49.8421 286.794C49.6977 286.702 48.2712 285.788 47.1773 284.458C43.2785 279.719 50.0302 275.711 54.4365 276.708C56.8344 277.251 58.9172 278.739 60.7156 280.423C66.8941 286.217 71.4492 293.844 78.424 298.762C84.2656 302.879 91.0785 306.476 98.3947 306.516" fill="#2C1330"/>
<path d="M187.471 315.114C181.385 319.188 173.653 318.505 166.105 318.602C134.443 321.008 129.625 300.705 128.369 289.28C127.113 277.855 127.901 279.711 120.672 259.022C119.74 256.357 119.053 253.855 118.581 251.5C118.572 251.133 117.211 244.049 119.67 239.695C123.394 233.092 131.485 229.268 138.914 230.493C151.376 232.549 156.553 244.364 157.1 254.8C159.113 292.868 164.727 300.018 164.727 300.018C172.87 318.68 187.108 315.32 187.467 315.114" fill="#2C1330"/>
<path d="M132.033 136.372C132.033 136.372 135.936 133.524 143.449 135.029" stroke="black" stroke-width="0.875137" stroke-linecap="round" stroke-linejoin="round"/>
<path fill-rule="evenodd" clip-rule="evenodd" d="M162.354 63.6915C158.871 54.4369 163.991 55.6008 165.019 58.3706C167.675 65.5292 166.485 68.4216 165.824 72.049C165.789 72.2372 161.532 70.9813 160.963 69.3755C160.429 67.8702 162.398 63.8008 162.354 63.6871" fill="#FACAB5"/>
<path d="M137.021 94.9959C137.555 96.1336 138.675 96.5186 139.935 95.8229C141.628 96.9562 144.613 96.7899 145.501 95.6172C146.389 94.4445 145.855 93.4469 145.02 91.946C144.35 90.7427 143.348 90.909 143.348 90.909C143.348 90.909 143.759 90.4102 142.665 89.3381C141.572 88.2661 140.171 88.2136 139.611 88.3186C139.782 88.7124 140.014 89.7144 139.581 90.5633C139.034 91.6222 136.723 92.5936 138.347 94.0814C137.69 93.7357 136.583 94.0551 137.025 94.9959" fill="#FACDB9"/>
<path d="M142.296 89.2803C141.701 88.2039 141.482 84.9353 134.717 88.554C132.626 89.5998 131.97 93.446 131.939 95.612C131.913 97.3447 129.817 101.935 127.721 103.738C130.022 107.549 131.383 108.061 136.765 107.986C143.333 107.75 148.934 102.775 149.507 98.583C143.604 99.4451 142.891 90.3568 142.296 89.2803Z" fill="black"/>
<path d="M169.615 254.376C170.692 254.179 171.768 254.004 172.853 253.843C175.216 253.475 177.588 253.164 179.964 252.946C181.587 252.797 183.219 252.661 184.851 252.661C186.357 252.661 188.317 252.574 189.652 253.361C189.862 253.484 190.058 253.641 190.168 253.856C190.369 254.263 190.177 254.77 189.879 255.111C188.759 256.402 187.079 257.155 185.508 257.741C183.696 258.415 181.854 259.01 180.029 259.653C178.205 260.297 176.476 260.682 174.748 261.356C173.597 261.806 172.451 262.253 171.3 262.703C171.3 262.703 194.854 256 191.161 262.38C187.468 268.764 174.949 274.575 174.949 274.575" stroke="black" stroke-width="1.31271" stroke-linecap="round" stroke-linejoin="round"/>
<path d="M101.656 270.245C102.426 270.105 103.201 269.978 103.975 269.86C105.669 269.598 107.367 269.374 109.069 269.217C110.233 269.108 111.401 269.011 112.569 269.016C113.646 269.016 115.055 268.954 116.008 269.514C116.157 269.602 116.302 269.716 116.376 269.869C116.52 270.162 116.385 270.521 116.17 270.766C115.365 271.694 114.166 272.232 113.037 272.652C111.742 273.138 110.421 273.562 109.112 274.021C107.804 274.481 106.566 274.757 105.327 275.242C104.505 275.562 103.682 275.885 102.86 276.209C102.86 276.209 119.737 271.405 117.089 275.977C114.442 280.55 105.472 284.716 105.472 284.716" stroke="black" stroke-width="1.31271" stroke-linecap="round" stroke-linejoin="round"/>
<defs>
<radialGradient id="paint0_radial_338_28116" cx="0" cy="0" r="1" gradientUnits="userSpaceOnUse" gradientTransform="translate(200.5 200.68) rotate(90) scale(368.704)">
<stop stop-color="#FFEA00"/>
<stop offset="1" stop-color="white"/>
</radialGradient>
</defs>
</svg>
