<svg width="401" height="401" viewBox="0 0 401 401" fill="none" xmlns="http://www.w3.org/2000/svg">
<path d="M0.5 200.359C0.5 89.9024 90.0431 0.359375 200.5 0.359375C310.957 0.359375 400.5 89.9024 400.5 200.359C400.5 310.816 310.957 400.359 200.5 400.359C90.0431 400.359 0.5 310.816 0.5 200.359Z" fill="url(#paint0_radial_338_29957)"/>
<path fill-rule="evenodd" clip-rule="evenodd" d="M45.8431 105.882C45.8431 105.882 54.1703 142.619 54.5184 143.659C55.5361 146.716 59.0653 147.998 64.7665 148.029C77.83 148.109 92.5678 144.897 98.6435 141.971C100.062 141.288 100.225 139.239 99.4189 138.081C95.414 132.331 69.0534 102.477 69.0534 102.477C69.0534 102.477 47.6936 102.873 46.5393 103.798C45.3805 104.724 45.8431 105.882 45.8431 105.882Z" fill="#201230"/>
<path fill-rule="evenodd" clip-rule="evenodd" d="M303.606 316.689C336.858 301.44 293.429 257.002 295.967 234.783C297.584 220.592 266.936 205.118 260.257 195.751C254.534 187.719 228.525 160.204 183.806 133.227C138.376 105.822 105.729 112.07 105.729 112.07C184.634 155.565 263.953 332.206 303.602 316.689" fill="white"/>
<path d="M198.448 91.1459C198.474 91.256 198.496 91.3617 198.518 91.4675C199.241 94.8424 198.095 98.116 195.461 100.79C195.165 101.09 194.835 101.359 194.478 101.592C193.231 102.416 191.654 102.83 190.125 102.747C189.706 102.725 189.288 102.663 188.883 102.562C188.389 102.421 187.909 102.222 187.464 101.958C186.834 101.319 186.843 101.707 185.728 100.35C185.274 99.8211 185.085 99.1338 185.085 99.1338C185.076 99.0985 185.063 99.0633 185.054 99.0236C184.926 98.4729 184.988 97.7944 185.116 97.1467C185.133 97.0674 185.146 96.9881 185.164 96.9088C185.327 96.1862 185.552 95.5253 185.649 95.1773C186.265 92.9655 186.803 91.5997 185.834 89.454C185.375 88.423 185.6 87.0131 184.93 86.1055C183.269 83.8673 187.486 81.0607 187.486 81.0607C187.521 81.0343 187.49 81.0387 189.671 82.312C190.641 82.8804 190.79 82.7526 192.178 83.1888C192.407 83.2593 193.205 83.5985 193.403 83.7351C196.245 85.7134 197.611 87.7621 198.443 91.1459H198.448Z" fill="#AEACD7"/>
<path d="M188.127 89.3041C188.127 89.3041 191.828 89.7711 192.392 91.5335C192.952 93.3002 186.462 92.4851 186.462 92.4851C186.462 92.4851 184.039 92.0886 183.845 90.7712C183.695 89.7799 185.387 88.9648 185.387 88.9648C185.387 88.9648 183.109 89.4098 182.968 88.3128C182.823 87.2157 185.779 85.4269 185.779 85.4269C185.779 85.4269 188.017 84.1844 188.533 84.9775C189.053 85.7661 187.497 86.6297 186.621 86.9425C186.621 86.9425 190.194 85.9864 190.687 87.3302C191.181 88.6784 188.123 89.3041 188.123 89.3041H188.127Z" fill="white"/>
<path d="M198.464 91.1412C198.711 92.3044 198.772 93.5028 198.605 94.7012C198.275 97.0363 197.103 99.1247 195.459 100.79C195.164 101.09 194.834 101.358 194.477 101.592C193.225 102.416 191.652 102.834 190.124 102.746C189.705 102.724 189.287 102.663 188.881 102.561C188.308 102.42 187.462 101.958 187.462 101.958C186.797 101.566 186.207 101.037 185.727 100.35C185.995 100.737 186.965 100.94 187.374 101.032C188.762 101.354 190.26 101.116 191.507 100.433C193.811 99.1776 195.305 96.5737 195.86 94.0755C196.618 90.6698 195.631 86.9688 193.688 84.1314C193.596 83.9948 193.503 83.8626 193.41 83.7305C193.521 83.8891 193.829 84.0257 193.983 84.149C194.195 84.3076 194.406 84.4751 194.613 84.6469C194.979 84.9597 195.336 85.2902 195.666 85.6382C196.292 86.3079 196.829 87.0569 197.257 87.8676C197.803 88.903 198.222 90.0045 198.464 91.1412Z" fill="#2C1330"/>
<path fill-rule="evenodd" clip-rule="evenodd" d="M201.479 52.0389C201.479 52.0389 204.704 66.7062 202.065 86.0657C199.236 106.8 182.194 125.701 197.373 133.288C206.171 137.69 241.075 137.69 244.595 132.702C248.115 127.715 231.104 88.4097 224.354 71.3985C217.609 54.3873 207.343 42.0684 207.343 42.0684L190.918 43.8263C190.918 43.8263 168.624 62.8907 167.161 69.6361C165.694 76.3815 166.28 76.6767 170.096 80.783C173.907 84.8893 180.066 89.2908 180.066 89.2908C180.066 89.2908 185.437 89.2688 188.257 84.8188C191.077 80.3689 190.777 77.6989 190.777 77.6989L182.767 74.7337L201.479 52.0433V52.0389Z" fill="#DA78AE"/>
<path fill-rule="evenodd" clip-rule="evenodd" d="M197.701 130.913C194.564 120.718 242.104 122.066 241.602 131.129C241.386 134.993 233.966 135.398 225.82 134.521C217.673 133.649 199.702 134.786 197.701 130.908" fill="#161616"/>
<path d="M204.477 177.497C204.658 177.818 204.838 178.14 205.023 178.457C210.791 188.454 220.951 194.023 233.477 194.759C234.882 194.843 236.296 194.768 237.711 194.552C246.315 193.248 260.163 180.524 259.842 173.501C259.546 171.236 250.272 162.054 245.262 158.873C238.477 154.577 225.639 138.936 224.832 130.715C223.938 121.44 207.751 129.97 207.751 129.97C207.601 129.988 206.142 131.252 206.477 135.918C205.111 140.24 201.362 143.77 200.393 147.814C197.762 159.08 198.961 167.235 204.477 177.497Z" fill="#AEACD7"/>
<path d="M225.978 149.82C225.978 149.82 217.836 159.257 220.387 164.901C222.951 170.545 237.235 153.992 237.235 153.992C237.235 153.992 242.359 147.586 239.897 143.881C238.042 141.087 232.028 142.845 232.028 142.845C232.028 142.845 238.676 138.854 236.574 135.809C234.477 132.765 223.132 134.941 223.132 134.941C223.132 134.941 214.801 136.867 215.281 139.986C215.761 143.11 221.55 141.779 224.427 140.59C224.427 140.59 213.417 146.211 215.201 150.661C216.986 155.111 225.983 149.824 225.983 149.824L225.978 149.82Z" fill="white"/>
<path d="M204.42 177.526C206.402 180.967 208.931 184.082 212.033 186.677C218.083 191.727 225.661 194.3 233.472 194.754C234.878 194.837 236.292 194.762 237.706 194.546C242.654 193.797 247.492 191.308 251.105 187.664C255.277 183.483 260.251 178.566 259.511 172.658C260.956 184.144 231.785 189.189 217.452 178.976C207.253 171.719 201.838 159.982 200.384 147.809C200.428 148.17 199.565 151.924 199.441 152.77C198.278 161.546 199.961 169.812 204.415 177.522L204.42 177.526Z" fill="#161616"/>
<path d="M281.803 172.016C282.944 176.615 283.613 181.286 283.23 186.075C282.411 196.711 276.053 206.761 266.8 212.083C255.187 218.767 238.642 217.172 227.544 210.034C217.208 203.381 199.007 184.321 195.447 174.201C194.799 172.337 196.341 170.575 198.302 170.738C199.064 170.8 199.769 171.148 200.28 171.69C207.056 178.823 219.587 193.578 231.884 194.415C266.972 196.812 268.589 131.318 268.589 131.318C268.325 132.838 270.171 136.227 270.625 137.65C272.149 142.448 273.691 147.25 275.233 152.053C277.348 158.657 280.106 165.257 281.803 172.02V172.016Z" fill="#FFEA09"/>
<path d="M185.035 26.2191C184.982 26.0693 180.184 22.1172 188.766 18.6409C188.766 18.6409 186.894 18.8348 185.96 17.2927C184.744 13.1556 191.749 17.1738 191.934 11.706C191.934 11.706 190.018 12.1554 189.819 10.9879C189.63 9.85996 191.547 7.4279 198.64 5.64792C202.442 4.69624 204.077 8.65715 204.209 11.7677C204.482 18.0814 203.434 18.3457 202.174 18.24C200.918 18.1387 185.03 26.2191 185.03 26.2191" fill="black"/>
<path fill-rule="evenodd" clip-rule="evenodd" d="M170.126 34.9118C156.714 40.732 124.952 30.0961 120.3 28.7876C108.523 25.4744 98.9309 57.9238 113.171 62.9289C123.939 66.7136 159.005 64.3917 167.874 56.3685C176.744 48.3454 191.613 28.3999 191.613 28.3999C191.613 28.3999 184.168 44.6753 185.762 46.6403C187.357 48.6053 194.812 50.8744 205.505 49.7024C216.198 48.5304 216.987 47.6889 216.661 44.0056C204.272 36.0838 208.849 24.6108 208.849 24.6108C235.884 22.963 238.038 44.7458 243.691 72.1857C250.119 103.406 304.435 89.0427 293.632 59.5364C279.551 21.0861 214.749 14.2261 203.188 16.1162C191.715 17.9931 183.542 29.0916 170.13 34.9162" fill="white"/>
<path d="M285.076 74.0156C285.076 74.0156 286.107 78.6815 284.552 82.9376C282.996 87.1893 277.123 101.566 285.609 104.707C294.13 107.853 301.351 96.3888 299.867 94.3533C298.382 92.3178 294.866 91.7626 289.931 94.5868L285.08 74.02L285.076 74.0156Z" fill="#FACCB7"/>
<path fill-rule="evenodd" clip-rule="evenodd" d="M256.776 77.6549C250.123 69.3145 288.776 56.6828 291.627 65.3007C292.843 68.9753 286.886 74.7866 278.986 76.9587C271.087 79.1309 260.054 80.5275 256.776 77.6549Z" fill="#161616"/>
<path d="M295.323 78.3552L293.107 92.4056L285.476 93.4278L272.509 91.8549L265.23 67.2744C269.835 64.7806 276.695 63.1108 279.069 62.9434L284.638 73.2972L295.323 78.3508V78.3552Z" fill="#FACCB7"/>
<path d="M320.42 82.4611L217.709 79.3594C211.18 79.3594 211.655 89.6648 216.872 90.3213L321.125 88.9554C324.306 88.5853 324.61 82.4655 320.42 82.4655" fill="#161616"/>
<path d="M202.41 194.388C203.053 192.383 202.824 189.766 202.216 187.788C201.828 186.532 201.343 185.211 200.735 184.039C200.053 182.73 198.973 181.492 197.374 181.373C193.351 181.074 193.215 186.559 193.47 189.313C193.554 190.176 193.699 191.031 193.893 191.877C194.153 193 194.51 194.124 195.158 195.075C196.704 197.34 200.418 197.979 201.969 195.375C202.154 195.062 202.304 194.727 202.41 194.384V194.388Z" fill="#201230"/>
<path fill-rule="evenodd" clip-rule="evenodd" d="M198.129 19.0894C196.142 19.9089 194.261 20.3054 194.12 20.7813C193.683 22.2484 196.798 21.5259 198.358 21.169C200.543 20.6711 200.129 18.5563 198.129 19.0894Z" fill="#161616"/>
<path d="M194.401 188.489C194.419 188.718 194.441 188.943 194.463 189.172C194.551 190.088 194.723 191 194.983 191.886C195.15 192.45 195.353 193.001 195.586 193.538C195.723 193.851 195.996 194.644 196.419 194.67C197.168 194.714 196.882 192.049 196.851 191.564C196.763 190.212 196.516 188.863 196.093 187.572C195.948 187.119 195.776 186.665 195.56 186.238C195.419 185.964 195.15 185.616 194.802 185.744C194.573 185.828 194.498 186.057 194.463 186.277C194.339 187.009 194.348 187.753 194.406 188.493L194.401 188.489Z" fill="#FFEA09"/>
<path d="M279.07 62.9483C279.07 62.9483 284.917 71.3151 290.124 72.1346C290.124 72.1346 299.165 65.4596 302.196 74.9367C302.196 74.9367 306.096 72.8527 307.92 78.5408C307.92 78.5408 310.819 77.197 312.026 80.986C312.026 80.986 313.925 80.3868 316.89 84.4535C319.855 88.5201 323.243 89.9124 322.961 91.688C322.68 93.4636 320.644 94.9483 316.502 92.4943C316.502 92.4943 319.622 96.7504 315.67 97.7681C311.753 98.7903 309.224 93.1463 309.224 93.1463C309.224 93.1463 309.391 97.6756 306.633 98.1382C303.835 98.5964 301.571 95.1863 299.764 88.2161C299.764 88.2161 299.597 97.0279 296.077 96.4728C292.556 95.9176 287.388 88.8021 293.429 78.9505C293.429 78.9505 276.995 76.1175 279.07 62.9395" fill="#FACCB7"/>
<path d="M302.192 74.9355C302.192 74.9355 298.623 84.6329 300.007 89.5543C301.373 97.04 294.975 95.9781 293.491 95.0529C288.512 91.96 291.34 80.2755 292.865 78.9229" stroke="#161616" stroke-width="1.32177" stroke-linecap="round" stroke-linejoin="round"/>
<path d="M307.921 78.5449C307.921 78.5449 307.146 87.0131 308.723 93.0227" stroke="#161616" stroke-width="1.32177" stroke-linecap="round" stroke-linejoin="round"/>
<path d="M312.021 80.9883C312.021 80.9883 312.92 87.1521 315.771 91.7651" stroke="#161616" stroke-width="1.32177" stroke-linecap="round" stroke-linejoin="round"/>
<path d="M290.124 72.1348C290.124 72.1348 284.225 76.153 281.828 81.3475" stroke="#161616" stroke-width="1.32177" stroke-linecap="round" stroke-linejoin="round"/>
<path d="M264.09 90.2506L274.109 85.0957L310.017 222.318L277.915 224.838L263.609 88.5984L264.09 90.2506Z" fill="#FFEA09"/>
<path d="M276.447 106.976C264.472 106.976 259.348 86.202 259.348 86.202L267.159 84.3515C267.159 84.3515 273.006 84.1092 275.918 84.2282C278.624 84.3383 281.783 85.4222 284.466 85.5411C284.999 86.4091 288.444 106.976 276.451 106.976H276.447Z" fill="#161616"/>
<path d="M282.453 100.221C284.471 94.8019 282.189 86.065 276.399 86.1135C273.945 86.1355 271.641 87.9111 270.879 90.2462C269.87 93.3259 270.403 96.8022 271.813 99.6749C273.126 102.393 275.734 105.447 279.144 104.028C280.704 103.376 281.81 101.975 282.457 100.226L282.453 100.221Z" fill="white"/>
<path d="M338.307 297.611C343.162 282.512 341.408 262.773 336.839 247.886C333.927 238.413 330.27 228.469 325.684 219.648C320.542 209.779 312.395 200.465 300.341 199.57C270.033 197.323 269.002 238.655 270.945 259.407C271.575 265.906 272.659 272.36 274.126 278.723C276.086 287.191 278.77 295.65 283.665 302.827C295.318 319.878 323.282 324.689 334.976 305.083C336.386 302.713 337.487 300.206 338.307 297.606V297.611Z" fill="#201230"/>
<path d="M277.955 253.164C278.087 254.874 278.241 256.592 278.413 258.31C279.078 265.223 280.356 272.088 282.334 278.745C283.612 282.979 285.114 287.138 286.864 291.196C287.89 293.54 289.965 299.532 293.129 299.721C298.782 300.056 296.614 279.983 296.367 276.33C295.702 266.131 293.834 255.98 290.675 246.251C289.569 242.824 288.278 239.405 286.656 236.184C285.608 234.113 283.572 231.5 280.964 232.461C279.232 233.1 278.66 234.818 278.395 236.475C277.483 242 277.541 247.6 277.959 253.169L277.955 253.164Z" fill="#FFEA09"/>
<path d="M104.424 41.2088C104.424 41.2088 99.6572 41.526 96.0091 44.2136C92.3654 46.8968 80.2139 56.5722 74.8211 49.3068C69.4106 42.0107 78.3899 31.8639 80.7558 32.7186C83.1218 33.5734 84.6463 36.7941 83.3201 42.3235L104.42 41.2088H104.424Z" fill="#FACCB7"/>
<path fill-rule="evenodd" clip-rule="evenodd" d="M112.838 57.1905C105.198 57.7457 113.407 29.7285 119.667 31.5349C122.337 32.306 123.364 38.1923 121.443 43.7525C119.522 49.3128 115.874 56.4107 112.843 57.1905" fill="#161616"/>
<path d="M98.7544 27.5508L84.1797 30.7363C92.194 50.5276 104.376 50.5408 117.806 51.8449C119.92 48.9723 122.106 43.227 122.317 39.9314C116.942 40.5262 111.84 37.9752 106.606 36.389L98.7588 27.5508H98.7544Z" fill="#FACCB7"/>
<path d="M120.56 41.7801C120.56 41.7801 107.007 38.1055 106.188 30.7962C106.188 30.7962 110.056 20.2484 100.112 19.9973C100.112 19.9973 101.015 15.6707 95.0451 15.5121C95.0451 15.5121 95.5209 12.353 91.5424 12.2605C91.5424 12.2605 91.5865 10.269 86.8501 8.56837C82.1138 6.86328 79.8271 4.00385 78.2013 4.77048C76.5756 5.5371 75.7252 7.91189 79.2411 11.1943C79.2411 11.1943 74.2845 9.39227 74.4167 13.4721C74.5356 17.5168 80.6598 18.3627 80.6598 18.3627C80.6598 18.3627 76.2671 19.473 76.5932 22.2531C76.9368 25.0641 80.8449 26.2845 88.0485 26.0642C88.0485 26.0642 81.8098 25.7734 81.9992 32.0739C83.5193 35.2946 90.9564 38.11 98.7152 29.5449C98.7152 29.5449 108.501 47.4769 120.564 41.7845" fill="#FACCB7"/>
<path d="M95.0389 15.5137C95.0389 15.5137 87.1303 18.6331 80.918 18.8049" stroke="black" stroke-width="1.32177" stroke-linecap="round" stroke-linejoin="round"/>
<path d="M91.5406 12.2627C91.5406 12.2627 85.3724 13.1307 80.1426 11.6855" stroke="black" stroke-width="1.32177" stroke-linecap="round" stroke-linejoin="round"/>
<path d="M106.182 30.7988C106.182 30.7988 103.689 39.8177 94.9473 46.127" stroke="black" stroke-width="1.32177" stroke-linecap="round" stroke-linejoin="round"/>
<path fill-rule="evenodd" clip-rule="evenodd" d="M146.126 95.9653C146.58 96.4323 146.968 96.0931 146.47 95.6216C146.148 95.0665 65.2204 16.7868 63.7621 14.1521C62.3037 11.5173 57.5233 15.2844 58.8891 17.8266C59.5544 18.8003 144.271 93.9298 146.122 95.9653" fill="black"/>
<path d="M85.7874 41.9886C85.7874 41.9886 90.4356 46.1346 92.3258 47.8176C88.6821 50.5008 79.8835 54.4485 74.8211 49.3068C69.4106 42.0107 78.3899 31.8639 80.7558 32.7186C83.1218 33.5734 84.6463 36.7941 83.3201 42.3235L85.7874 41.9886Z" fill="#FACCB7"/>
<path d="M100.106 19.998C100.106 19.998 91.801 26.2148 86.6857 26.2676C79.6451 28.7438 81.9185 32.8457 83.2359 33.9956C86.6769 36.996 93.9158 33.3656 97.2555 31.2375C98.0706 30.7176 97.4978 33.2422 96.4933 34.7314" stroke="black" stroke-width="1.32177" stroke-linecap="round" stroke-linejoin="round"/>
<path d="M198.544 14.4794C198.544 14.4794 200.271 14.2415 200.469 12.8536C200.518 12.5188 200.443 12.1707 200.236 11.9019C199.985 11.5759 199.518 11.3292 198.738 12.0694C197.425 13.3162 196.385 11.034 195.627 9.78711L193.204 10.8093L193.314 12.6069C193.314 12.6069 192.596 13.1488 192.953 14.1974C193.31 15.246 193.839 17.1009 194.931 17.4666C194.931 17.4666 195.46 21.1147 196.002 21.6214C198.54 21.4936 199.262 20.8063 199.262 20.8063L198.553 14.4838L198.544 14.4794Z" fill="#FACDB9"/>
<path d="M197.827 14.7637C197.809 15.1999 196.756 17.6187 194.875 17.535" stroke="black" stroke-width="0.44059" stroke-linecap="round" stroke-linejoin="round"/>
<path d="M195.33 13.2528C195.33 13.2528 195.542 12.7417 195.96 12.7461C196.383 12.7461 196.524 13.2572 196.524 13.2572" stroke="black" stroke-width="0.44059" stroke-linecap="round" stroke-linejoin="round"/>
<path d="M193.484 12.9901C193.506 12.9901 193.55 12.6773 193.978 12.6817C194.405 12.6861 194.894 13.2941 194.172 14.378L195.154 14.5145" stroke="black" stroke-width="0.44059" stroke-linecap="round" stroke-linejoin="round"/>
<path d="M194.635 15.4912C194.635 15.4912 195.454 15.7556 195.926 14.9141" stroke="black" stroke-width="0.44059" stroke-linecap="round" stroke-linejoin="round"/>
<path fill-rule="evenodd" clip-rule="evenodd" d="M56.1933 160.661C56.1933 160.661 75.7952 280.11 76.9011 283.436C87.929 316.516 209.598 297.205 196.649 263.649C188.586 242.757 108.337 151.783 108.337 151.783C108.337 151.783 62.1104 151.043 58.4139 154.004C54.7173 156.96 56.1933 160.661 56.1933 160.661Z" fill="#201230"/>
<path fill-rule="evenodd" clip-rule="evenodd" d="M63.0355 177.676L61.9516 169.451C61.2291 166.878 61.7886 158.387 62.1719 155.422C62.3746 153.88 63.0663 152.321 65.4323 151.871C78.8571 149.307 99.415 145.628 109.271 144.879C115.862 144.377 111.791 147.025 119.356 145.39C125.419 144.077 130.886 146.61 132.49 148.28C134.094 149.95 147.99 160.621 151.347 165.366C155.93 172.024 161.974 185.717 166.684 192.582C171.394 199.446 198.103 222.295 200.522 231.565C214.59 285.502 135.394 300.852 104.024 291.195C90.7442 287.106 89.4665 283.687 89.9027 278.017C90.264 273.342 89.5149 246.933 82.8973 246.263C79.139 245.884 78.6808 254.269 78.6808 254.269L67.0052 195.388C67.0052 195.388 68.0758 187.876 67.8864 180.981C67.7013 174.328 64.3661 171.112 63.0399 177.672" fill="white"/>
<path fill-rule="evenodd" clip-rule="evenodd" d="M66.951 162.981C66.951 162.981 70.8546 160.646 72.4496 159.861C74.0489 159.077 75.6923 159.386 76.7674 161.21C77.8424 163.034 82.6669 173.114 84.3059 176.855C85.9449 180.596 84.5482 183.499 83.9622 185.345L79.01 200.995C78.0891 203.277 76.829 203.678 75.7408 199.647L66.6778 165.426C66.3826 164.082 66.365 163.514 66.9466 162.976" fill="#201230"/>
<path d="M67.0801 159.573C70.3977 157.313 73.5524 154.824 73.5524 154.824C73.5524 154.824 76.2884 152.581 80.0114 151.881C83.7344 151.18 119.356 145.391 119.356 145.391" stroke="black" stroke-width="0.881181" stroke-linecap="round" stroke-linejoin="round"/>
<path fill-rule="evenodd" clip-rule="evenodd" d="M161.802 189.41C162.538 192.525 160.991 192.613 159.868 192.82C135.781 197.27 111.429 201.042 86.6329 208.514C83.844 209.765 81.3811 208.404 82.4473 205.425L87.0867 186.33C88.3997 183.026 90.0739 181.44 92.3826 181.026L148.65 170.588C150.875 170.125 152.047 170.927 153.277 172.668L161.806 189.41H161.802Z" fill="#201230"/>
<path d="M80.9707 214.779C84.2795 230.107 87.8439 244.149 94.7568 251.494" stroke="black" stroke-width="1.32177" stroke-linecap="round" stroke-linejoin="round"/>
<path fill-rule="evenodd" clip-rule="evenodd" d="M79.5878 259.102C79.8345 265.398 80.8214 273.395 83.4694 276.413C89.8888 283.731 87.5052 259.375 85.3947 254.057C81.4559 244.126 79.341 252.806 79.5878 259.102Z" fill="white"/>
<path d="M83.2096 252.709C80.5264 259.635 82.4122 268.918 83.8485 272.549" stroke="black" stroke-width="0.881181" stroke-linecap="round" stroke-linejoin="round"/>
<path fill-rule="evenodd" clip-rule="evenodd" d="M56.9897 133.865C57.0822 137.015 57.536 140.998 58.8402 142.421C62.008 145.88 61.8141 133.812 60.7876 131.213C58.871 126.362 56.8971 130.71 56.9853 133.861" fill="white"/>
<path d="M58.8326 130.533C57.4579 134.098 58.3523 138.693 59.0529 140.469" stroke="black" stroke-width="0.881181" stroke-linecap="round" stroke-linejoin="round"/>
<path fill-rule="evenodd" clip-rule="evenodd" d="M48.8139 111.253C48.5892 112.795 48.8492 115.223 49.4836 116.064C51.0257 118.1 51.3473 111.403 50.9023 109.927C50.0652 107.169 49.0651 109.522 48.8139 111.253Z" fill="white"/>
<path fill-rule="evenodd" clip-rule="evenodd" d="M77.1415 98.7867C82.0013 101.465 84.5082 103.95 86.7112 106.59C89.6147 110.075 91.3858 114.088 92.2626 115.512C92.2626 115.512 99.268 120.23 102.343 125.865C105.419 131.501 103.317 136.695 96.1751 139.925C89.0331 143.154 68.8496 145.723 63.8181 145.031C58.7821 144.344 60.3683 142.383 60.7119 137.263C61.0556 132.144 59.0465 126.773 57.2974 128.121C55.5482 129.465 55.7112 134.924 55.7112 134.924L50.2259 117.419C50.2259 117.419 51.7151 113.088 50.5519 109.638C49.684 107.07 48.8997 107.982 48.6045 109.925C48.6045 109.925 48.2917 108.577 48.1199 107.656C47.3488 103.558 48.8909 100.694 54.2617 99.9983C57.0462 99.637 75.4453 97.8482 77.146 98.7867" fill="#7D83BF"/>
<path fill-rule="evenodd" clip-rule="evenodd" d="M50.1607 105.056C50.1607 105.056 55.1041 117.785 55.4477 117.785C55.7914 117.785 58.4349 109.312 58.0428 108.383C57.6507 107.453 55.3728 101.906 54.0511 102.056C52.7293 102.201 50.1562 105.061 50.1562 105.061" fill="#201230"/>
<path fill-rule="evenodd" clip-rule="evenodd" d="M59.8681 109.862C59.8813 109.818 60.1324 109.232 60.7272 109.139C65.3931 108.43 85.8541 106.84 86.3696 107.452C86.9512 108.139 89.9648 112.541 90.5376 114.651C90.5464 114.678 90.9297 115.867 90.2248 115.902C84.8187 116.162 60.9519 118.022 58.2731 119.885C55.8895 119.828 59.8637 109.858 59.8637 109.858" fill="#201230"/>
<path d="M58.6523 121.463C60.5116 126.384 62.8952 128.838 64.6488 130.565C69.9271 135.751 94.7808 131.05 99.3144 127.208" stroke="black" stroke-width="0.881181" stroke-linecap="round" stroke-linejoin="round"/>
<path fill-rule="evenodd" clip-rule="evenodd" d="M69.7116 136.584C70.6721 136.695 70.8836 137.734 70.1874 138.906C69.4869 140.078 68.1431 140.942 67.1826 140.827C66.2221 140.717 66.0106 139.677 66.7067 138.505C67.4073 137.333 68.7511 136.47 69.7116 136.584Z" fill="#FBFCF7"/>
<path fill-rule="evenodd" clip-rule="evenodd" d="M74.9557 135.772C75.9162 135.882 76.1277 136.922 75.4315 138.094C74.731 139.266 73.3872 140.129 72.4267 140.015C71.4662 139.905 71.2548 138.865 71.9509 137.693C72.6514 136.521 73.9952 135.657 74.9557 135.772Z" fill="#FBFCF7"/>
<path fill-rule="evenodd" clip-rule="evenodd" d="M94.153 132.684C95.1135 132.794 95.325 133.834 94.6288 135.006C93.9283 136.178 92.5845 137.041 91.624 136.927C90.6635 136.817 90.452 135.777 91.1482 134.605C91.8487 133.433 93.1925 132.569 94.153 132.684Z" fill="#FBFCF7"/>
<path fill-rule="evenodd" clip-rule="evenodd" d="M99.401 131.875C100.362 131.986 100.573 133.025 99.8769 134.197C99.1763 135.369 97.8325 136.233 96.872 136.118C95.9115 136.008 95.7001 134.968 96.3962 133.796C97.0967 132.624 98.4405 131.761 99.401 131.875Z" fill="#FBFCF7"/>
<path d="M49.8961 109.84C49.0502 111.664 49.3586 114.109 49.6626 115.065" stroke="black" stroke-width="0.881181" stroke-linecap="round" stroke-linejoin="round"/>
<path fill-rule="evenodd" clip-rule="evenodd" d="M44.9043 89.3653C44.9043 89.3653 45.4815 97.7057 45.5432 97.8952C45.7282 98.4459 46.3627 98.6794 47.3936 98.6838C49.7508 98.6971 62.3473 97.8511 63.4443 97.3224C63.6999 97.199 63.7307 96.829 63.5853 96.6219C62.8628 95.5821 54.9277 89.5151 54.9277 89.5151C54.9277 89.5151 46.1335 89.2111 45.9088 89.0613C45.6841 88.9115 44.9043 89.3698 44.9043 89.3698" fill="#201230"/>
<path fill-rule="evenodd" clip-rule="evenodd" d="M45.512 89.7804C45.4856 90.0976 45.5252 90.5999 45.609 90.7761C45.8116 91.1947 45.8425 89.8112 45.7808 89.5072C45.6662 88.9388 45.5429 89.4235 45.5164 89.7804" fill="white"/>
<path fill-rule="evenodd" clip-rule="evenodd" d="M45.4204 89.2776C45.4645 88.8017 46.6188 87.1936 47.196 86.449C47.3811 86.211 47.7027 86.0524 48.2754 86.0304L53.9723 85.8013C54.9592 85.7616 57.5807 85.9775 58.1623 86.8984C58.7439 87.8192 59.7969 89.4406 59.7969 89.4406C59.7969 89.4406 63.5155 91.0047 63.9473 91.5554C65.2911 93.2649 63.3877 96.3843 62.2642 96.2433C62.2642 96.2433 49.0773 98.3978 47.3458 97.336C47.0462 97.1509 47.1079 96.7588 46.8964 96.2697C46.9449 96.1772 47.077 93.7319 47.0726 93.5865C47.0242 91.8726 46.328 90.5024 45.8875 92.6921C45.7597 91.996 45.8346 92.322 45.7861 91.6083C45.7729 91.3968 45.7288 91.247 45.7685 91.0443C45.9712 89.9825 45.9183 89.3348 45.72 89.1454C45.6319 89.0617 45.5482 89.2027 45.5218 89.2952C45.4777 89.282 45.4425 89.2599 45.416 89.2687" fill="#E94B39"/>
<path fill-rule="evenodd" clip-rule="evenodd" d="M47.1699 89.6865C47.1699 89.6865 47.7207 88.3163 48.1789 87.4131C48.3595 87.0518 48.5181 86.8976 48.9147 86.8183C50.0338 86.5892 54.6115 86.6509 56.5721 86.7037C57.4665 86.7258 57.6516 87.1003 57.6516 87.1003L59.1364 89.4178C56.5721 90.0786 49.9853 90.788 47.1699 89.6953" fill="#201230"/>
<path fill-rule="evenodd" clip-rule="evenodd" d="M46.2012 88.4936C46.2012 88.4936 46.5052 89.4717 46.6153 89.41C46.7211 89.3484 47.8446 86.8943 47.8446 86.8943L47.4745 86.6211L46.2012 88.4936Z" fill="#201230"/>
<path fill-rule="evenodd" clip-rule="evenodd" d="M63.5386 180.594C63.6135 185.194 64.0937 189.186 65.0146 190.715C67.2396 194.411 67.1999 180.872 66.5522 178.184C65.345 173.166 63.4769 176.906 63.5386 180.594Z" fill="white"/>
<path d="M65.1017 177.363C63.8812 180.862 64.3218 185.549 64.7624 187.382" stroke="black" stroke-width="0.881181" stroke-linecap="round" stroke-linejoin="round"/>
<path fill-rule="evenodd" clip-rule="evenodd" d="M99.7756 265.777C99.7756 265.777 105.371 271.069 134.344 268.54C153.272 266.888 174.632 259.195 184.884 253.234C193.463 248.246 197.64 240.84 197.64 240.84C197.966 248.541 192.3 256.992 184.131 262.702C163 277.475 131.273 279.317 119.814 278.325C98.2952 276.457 99.7756 265.782 99.7756 265.782" fill="#FFE907"/>
<path d="M269.346 134.545L275.994 205.33" stroke="#161616" stroke-width="1.32177" stroke-linejoin="round"/>
<path d="M31.5684 143.654L49.963 232.962" stroke="black" stroke-width="1.32177" stroke-linecap="round" stroke-linejoin="round"/>
<path d="M208.633 264.711L246.475 314.868" stroke="black" stroke-width="1.32177" stroke-linecap="round" stroke-linejoin="round"/>
<path fill-rule="evenodd" clip-rule="evenodd" d="M46.1679 93.4498C46.0974 94.212 46.1767 95.4104 46.375 95.8245C46.8508 96.8291 46.9477 93.5247 46.8111 92.7977C46.5556 91.4363 46.2472 92.595 46.1679 93.4542" fill="white"/>
<path fill-rule="evenodd" clip-rule="evenodd" d="M48.7277 93.6519C48.7277 93.6519 49.3578 94.0396 53.5786 94.0793C56.3367 94.1013 59.6368 93.7444 61.2934 93.4228C62.6812 93.154 63.514 92.6914 63.514 92.6914C63.3113 93.2025 62.2318 93.7224 60.8792 94.044C57.3853 94.8723 52.79 94.771 51.1862 94.6256C48.1726 94.348 48.7277 93.6519 48.7277 93.6519Z" fill="white"/>
<defs>
<radialGradient id="paint0_radial_338_29957" cx="0" cy="0" r="1" gradientUnits="userSpaceOnUse" gradientTransform="translate(200.5 200.359) rotate(90) scale(368.704)">
<stop stop-color="#FFEA00"/>
<stop offset="1" stop-color="white"/>
</radialGradient>
</defs>
</svg>
