<svg width="403" height="401" viewBox="0 0 403 401" fill="none" xmlns="http://www.w3.org/2000/svg">
<path d="M2.78906 200.361C2.78906 89.9044 92.3321 0.361328 202.789 0.361328C313.246 0.361328 402.789 89.9044 402.789 200.361C402.789 310.818 313.246 400.361 202.789 400.361C92.3321 400.361 2.78906 310.818 2.78906 200.361Z" fill="url(#paint0_radial_338_32487)"/>
<path fill-rule="evenodd" clip-rule="evenodd" d="M311.739 189.185L300.861 205.158C300.861 205.158 256.854 187.458 245.857 182.314C234.86 177.17 223.94 177.368 223.94 177.368L223.512 164.581C223.512 164.581 236.121 158.716 237.362 157.475C238.602 156.234 246.034 152.879 246.034 152.879C246.034 152.879 289.307 160.15 301.545 169.903C313.783 179.655 311.743 189.185 311.743 189.185" fill="#2C1330"/>
<path fill-rule="evenodd" clip-rule="evenodd" d="M144.782 237.746C142.082 230.986 144.926 223.591 148.846 220.904L142.312 200.236C142.312 200.236 147.032 173.732 163.368 154.49C179.703 135.249 198.038 120.381 199.645 119.05C201.772 117.281 205.511 117.64 206.298 117.904C227.069 124.956 243.091 130.319 261.586 142.19C262.336 142.673 263.338 145.459 261.788 147.883L258.812 152.532C272.077 155.756 311.598 166.547 315.37 181.386C317.019 186.094 313.898 191.019 311.499 191.164L309.005 189.688C309.005 189.688 313.787 183.954 307.472 176.592C298.556 166.201 250.391 151.354 245.795 154.635C241.219 157.895 244.579 162.998 244.579 162.998C245.197 164.49 243.742 165.484 242.637 165.958L226.323 172.912C226.323 172.912 226.306 178.493 223.087 182.631C219.868 186.77 225.692 205.941 225.692 205.941L221.389 205.739L184.353 221.716L172.053 233.315C172.053 233.315 161.274 223.336 153.99 225.496C146.702 227.656 151.546 238.715 150.466 243.303C149.386 247.89 149.926 247.89 149.926 247.89L144.786 237.742L144.782 237.746Z" fill="white"/>
<path fill-rule="evenodd" clip-rule="evenodd" d="M154.159 217.81C155.231 216.618 156.463 215.332 157.795 214.013C162.506 209.335 168.462 204.203 172.947 201.239L160.14 173.939C160.14 173.939 150.849 183.985 148.335 193.527C145.824 203.069 154.159 217.806 154.159 217.806" fill="#2C1330"/>
<path fill-rule="evenodd" clip-rule="evenodd" d="M164.375 170.115L176.432 198.618C188.093 186.685 199.548 177.534 211.106 168.997L198.687 130.123C176.547 145.053 168.753 155.448 164.371 170.115" fill="#2C1330"/>
<path fill-rule="evenodd" clip-rule="evenodd" d="M205.493 125.423L211.602 152.228C212.241 155.023 213.844 156.478 216.8 157.113C219.755 157.748 227.562 157.748 227.562 157.748C227.562 157.748 239.347 151.189 242.121 150.571C244.895 149.957 256.016 152.001 256.016 152.001L258.795 147.171C259.796 145.431 259.306 143.654 257.331 142.686C249.199 138.696 216.788 124.772 207.785 122.224C204.685 121.565 205.493 125.423 205.493 125.423Z" fill="#2C1330"/>
<path fill-rule="evenodd" clip-rule="evenodd" d="M257.648 160.543C262.338 160.543 266.139 164.941 266.139 170.362C266.139 175.782 262.338 180.18 257.648 180.18C252.957 180.18 249.156 175.782 249.156 170.362C249.156 164.941 252.957 160.543 257.648 160.543Z" fill="black"/>
<path fill-rule="evenodd" clip-rule="evenodd" d="M256.518 160.543C260.587 160.543 263.884 164.941 263.884 170.362C263.884 175.782 260.587 180.18 256.518 180.18C252.45 180.18 249.152 175.782 249.152 170.362C249.152 164.941 252.45 160.543 256.518 160.543Z" fill="#FFE907"/>
<path fill-rule="evenodd" clip-rule="evenodd" d="M299.627 179.204C304.215 180.177 307.022 185.268 305.893 190.573C304.767 195.878 300.134 199.385 295.546 198.413C290.959 197.44 288.152 192.349 289.281 187.044C290.406 181.739 295.039 178.227 299.627 179.204Z" fill="black"/>
<path fill-rule="evenodd" clip-rule="evenodd" d="M298.526 178.968C302.504 179.813 304.816 184.801 303.691 190.102C302.566 195.407 298.427 199.022 294.446 198.177C290.468 197.332 288.155 192.348 289.281 187.043C290.406 181.738 294.544 178.123 298.526 178.968Z" fill="#FFE907"/>
<path fill-rule="evenodd" clip-rule="evenodd" d="M209.006 257.423C215.741 260.078 227.081 256.611 234.162 251.108C244.117 242.77 249.224 219.967 239.224 209.827C228.779 191.748 213.21 186.603 199.451 194.509L209.006 257.419V257.423Z" fill="black"/>
<path fill-rule="evenodd" clip-rule="evenodd" d="M267.947 253.316C279.027 255.649 290.589 242.117 294.971 232.681L264.205 217.611C264.205 217.611 256.369 232.137 255.866 235.748C255.491 238.436 255.178 242.809 257.164 246.09C259.502 249.948 264.456 252.578 267.947 253.312" fill="black"/>
<path fill-rule="evenodd" clip-rule="evenodd" d="M168.794 258.592C171.68 258.576 175.072 255.076 176.568 251.436C178.563 246.053 177.273 235.418 171.836 232.735L160.958 226.989C156.103 224.05 147.731 220.542 151.21 240.517L168.79 258.592H168.794Z" fill="black"/>
<path fill-rule="evenodd" clip-rule="evenodd" d="M153.077 229.734C156.94 227.834 163.687 232.726 168.143 240.661C172.599 248.596 173.081 256.568 169.219 258.468C165.357 260.368 158.609 255.476 154.153 247.541C149.697 239.606 149.215 231.634 153.077 229.734Z" fill="#2C1330"/>
<path fill-rule="evenodd" clip-rule="evenodd" d="M155.669 236.536C157.166 235.802 160.303 238.51 162.677 242.591C165.051 246.668 165.764 250.571 164.268 251.305C162.772 252.039 159.635 249.331 157.261 245.25C154.886 241.173 154.173 237.27 155.669 236.536Z" fill="black"/>
<path fill-rule="evenodd" clip-rule="evenodd" d="M156.589 236.626C157.748 236.057 160.472 238.848 162.678 242.859C164.879 246.874 165.724 250.587 164.565 251.156C163.407 251.725 160.678 248.935 158.477 244.924C156.276 240.909 155.431 237.195 156.589 236.626Z" fill="#FFE907"/>
<path fill-rule="evenodd" clip-rule="evenodd" d="M229.006 204.003L221.875 203.549C221.875 203.549 220.626 186.068 221.096 181.814C221.57 177.56 226.784 176.538 226.784 176.538C226.784 176.538 229.117 174.699 228.821 179.493C228.524 184.287 229.002 204.003 229.002 204.003" fill="#2C1330"/>
<path fill-rule="evenodd" clip-rule="evenodd" d="M227.566 206.486L226 180.271C226.095 178.028 227.653 176.404 229.648 177.014C256.651 184.603 289.433 194.533 311.543 213.568C312.999 214.817 313.044 218.477 311.098 220.752L301.746 234.944L227.566 206.486Z" fill="white"/>
<path fill-rule="evenodd" clip-rule="evenodd" d="M232.495 188.234C232.4 189.636 231.72 195.225 232.952 195.341C241.221 196.111 252.73 201.886 252.701 201.177C252.351 193.412 235.306 188.387 232.495 188.234Z" fill="#FFE907"/>
<path fill-rule="evenodd" clip-rule="evenodd" d="M301.745 234.945C301.745 234.945 300.995 237.971 297.866 237.419C297.037 237.274 246.193 210.448 222.611 206.788C222.611 206.788 220.95 202.225 222.425 202.188C239.964 201.747 289.164 224.455 301.745 234.945Z" fill="#2C1330"/>
<path fill-rule="evenodd" clip-rule="evenodd" d="M217.575 169.612C211.557 172.139 187.134 196.125 187.134 196.125L184.352 221.722L172.052 233.322C172.052 233.322 165.226 221.45 158.659 221.273C153.688 221.137 145.263 225.44 143.964 229.389C140.964 238.524 151.198 252.217 152.476 250.861L154.706 248.495C154.706 248.495 144.117 228.643 156.561 228.441C169.005 228.235 169.925 238.94 169.925 238.94L190.39 225.078L189.182 200.202L216.66 177.539C216.66 177.539 216.458 181.752 218.465 184.159C220.472 186.566 219.421 185.226 219.421 185.226C219.421 185.226 219.759 179.517 220.761 177.514C221.099 176.838 223.597 167.09 217.579 169.616" fill="white"/>
<path fill-rule="evenodd" clip-rule="evenodd" d="M151.502 71.1118C153.452 72.4844 158.204 80.4151 161.84 83.6673C165.29 86.7547 165.537 90.4521 171.592 89.3392C173.365 89.0135 174.461 64.3682 159.857 68.3047C157.223 69.0137 153.625 69.6361 151.502 71.1118Z" fill="#FCEA28"/>
<path d="M174.181 85.5795C160.228 98.2463 157.561 74.2564 157.94 72.8096C158.414 70.9959 159.82 67.9704 164.028 68.4032C171.386 74.1781 171.534 67.7766 174.115 72.6529C177.165 78.4155 173.628 82.8384 174.185 85.5795" fill="black"/>
<path d="M169.343 98.7073C168.919 95.5334 167.769 86.8937 168.873 82.2812L159.619 82.9655L156.569 97.0215C155.131 103.959 166.639 99.5647 169.347 98.7032" fill="#FACDB9"/>
<path d="M166.493 85.6729C166.193 87.1692 164.127 90.4008 158.278 91.1964C157.578 91.3118 156.102 91.2788 155.83 90.236C155.488 88.9334 155.199 87.6968 154.63 84.832C154.16 82.466 155.467 81.1923 156.325 80.4504C156.139 78.4801 157.05 74.4117 162.182 73.9212C167.314 73.4265 167.623 78.0967 167.136 80.4916C168.319 79.3787 170.64 78.6285 170.57 80.8461C170.479 83.7974 167.812 85.2937 166.489 85.6729" fill="#FACDB9"/>
<path d="M155.187 70.4021C157.038 68.1267 164.144 67.5455 165.336 69.3303C166.506 71.0822 165.579 72.595 168.588 73.1102C165.15 74.2396 159.115 76.2058 158.641 75.1382C157.895 75.7318 158.163 80.8472 154.144 78.2586C145.686 76.7746 153.336 72.6774 155.187 70.3979" fill="black"/>
<path d="M156.023 78.7121C157.45 77.5827 159.057 78.1597 159.478 79.0707" stroke="black" stroke-width="0.550204" stroke-miterlimit="22.93" stroke-linecap="round"/>
<path d="M161.357 79.2648C162.784 78.1354 164.387 78.7125 164.812 79.6234" stroke="black" stroke-width="0.550204" stroke-miterlimit="22.93" stroke-linecap="round"/>
<path d="M159.777 78.8438C160.494 81.1191 155.618 82.298 158.767 84.0787" stroke="black" stroke-width="0.550204" stroke-miterlimit="22.93" stroke-linecap="round"/>
<path d="M160.362 85.3061C159.282 86.7983 157.448 86.4767 157.217 84.9805" stroke="black" stroke-width="0.550204" stroke-miterlimit="22.93" stroke-linecap="round"/>
<path d="M158.333 80.1343C157.979 81.2513 156.915 81.3997 156.96 79.9941" stroke="black" stroke-width="0.550204" stroke-miterlimit="22.93" stroke-linecap="round"/>
<path d="M162.642 80.5835C162.287 81.7006 161.224 81.849 161.265 80.4434" stroke="black" stroke-width="0.550204" stroke-miterlimit="22.93" stroke-linecap="round"/>
<path d="M156.926 91.1471C164.617 91.3779 167.985 86.3615 168.311 84.7539" stroke="black" stroke-width="0.550204" stroke-miterlimit="22.93" stroke-linecap="round"/>
<path fill-rule="evenodd" clip-rule="evenodd" d="M65.0222 129.831C75.4055 174.958 74.0617 176.055 121.399 187.036C121.399 187.036 150.244 147.292 151.209 133.508C152.169 119.724 138.039 129.213 138.039 129.213L109.54 98.2483C98.4103 91.0224 62.9076 101.814 65.0222 129.827" fill="#E94B39"/>
<path d="M156.566 97.0279C156.368 100.734 167.497 102.119 168.742 93.5943C208.218 78.1616 205.151 108.269 197.86 129.394C190.922 153.136 172.748 198.181 142.316 200.238C106.067 202.068 90.2923 167.266 90.7952 145.391C90.7334 143.648 90.8529 141.92 91.1332 140.214C94.3896 120.342 115.247 110.029 131.821 117.337C135.832 119.105 135.028 121.5 137.571 128.137C139.253 119.402 140.37 101.014 156.57 97.0321" fill="#E94B39"/>
<path d="M135.054 119.661C134.675 129.212 98.1374 147.806 96.5793 138.767C93.2405 132.609 124.638 107.831 135.054 119.661Z" fill="black"/>
<path d="M135.02 120.082C141.066 150.75 168.952 149.426 174.586 120.704" stroke="black" stroke-width="1.10041" stroke-miterlimit="22.93" stroke-linecap="round"/>
<path d="M106.105 101.251C105.725 110.802 69.1882 129.396 67.6301 120.357C64.2913 114.198 95.6884 89.4213 106.105 101.251Z" fill="black"/>
<path d="M74.0527 73.5915C89.9141 76.3285 90.9034 96.6128 95.9487 112.705C91.8349 115.31 87.783 118.01 82.0452 120.162C79.9306 117.214 76.2538 106.868 71.4105 107.12C55.9696 107.928 50.545 98.9953 49.2178 96.588C48.2656 94.8609 63.8219 97.9895 64.3166 96.1841C67.9439 82.8618 64.5392 71.951 74.0527 73.5915Z" fill="#FACDB9"/>
<path d="M210.822 168.093C208.072 159.49 201.679 142.635 200.377 113.406C200.442 129.404 175.179 160.52 166.947 176.18C169.387 181.951 171.42 190.174 181.444 193.641C192.78 183.216 200.554 176.246 210.826 168.088" fill="#E94B39"/>
<path d="M170.41 184.368C179.631 177.884 189.025 175.044 194.12 130.803C193.848 155.572 189.573 179.595 174.685 189.739C174.685 189.739 171.226 186.289 170.41 184.368Z" fill="black"/>
<path fill-rule="evenodd" clip-rule="evenodd" d="M189.721 145.25C189.721 145.25 190.908 156.874 192.685 157.467C194.466 158.061 204.453 157.653 204.453 157.653L201.683 142.636C201.683 142.636 190.076 142.397 189.602 143.11C189.128 143.823 189.721 145.245 189.721 145.245" fill="white"/>
<path fill-rule="evenodd" clip-rule="evenodd" d="M304.977 219.507C304.437 220.843 301.238 225.752 300.315 224.944C294.115 219.512 284.692 216.807 285.022 216.193C288.645 209.458 302.916 217.562 304.977 219.507Z" fill="#FFE907"/>
<path fill-rule="evenodd" clip-rule="evenodd" d="M199.68 155.687C199.68 155.687 200.508 161.38 201.696 162.448C202.883 163.515 212.371 164.109 212.371 164.109C212.371 164.109 213.678 160.551 211.778 160.077C209.882 159.603 204.779 161.974 203.118 159.249C201.456 156.52 201.456 154.979 201.456 154.979L199.676 155.692L199.68 155.687Z" fill="white"/>
<path fill-rule="evenodd" clip-rule="evenodd" d="M203.456 193.688C213.493 193.688 223.53 208.044 225.871 225.757C228.212 243.469 221.972 257.826 211.935 257.826C201.898 257.826 191.861 243.469 189.519 225.757C187.178 208.044 193.419 193.688 203.456 193.688Z" fill="#2C1330"/>
<path fill-rule="evenodd" clip-rule="evenodd" d="M202.833 207.809C206.715 207.809 210.986 215.245 212.371 224.42C213.756 233.596 211.728 241.032 207.845 241.032C203.962 241.032 199.692 233.596 198.307 224.42C196.922 215.245 198.95 207.809 202.833 207.809Z" fill="black"/>
<path fill-rule="evenodd" clip-rule="evenodd" d="M204.728 208.758C207.741 208.758 211.055 215.984 212.127 224.895C213.198 233.807 211.628 241.033 208.615 241.033C205.601 241.033 202.287 233.807 201.216 224.895C200.144 215.984 201.714 208.758 204.728 208.758Z" fill="#FFE907"/>
<path fill-rule="evenodd" clip-rule="evenodd" d="M168.49 234.576L190.139 220.018L189.652 226.708L169.921 238.937L168.49 234.576Z" fill="#2C1330"/>
<path d="M206.862 189.986C206.862 189.986 202.654 177.967 205.151 174.22C207.649 170.473 232.204 154.051 232.204 154.051" stroke="#2C1330" stroke-width="1.10041" stroke-linecap="round" stroke-linejoin="round"/>
<path fill-rule="evenodd" clip-rule="evenodd" d="M150.716 86.7214L75.082 94.3017L81.0465 50.6211L152.909 78.8896C155.44 79.883 154.628 84.8253 150.712 86.7214" fill="#FFE907"/>
<path fill-rule="evenodd" clip-rule="evenodd" d="M19.8933 28.5653C35.7506 47.0895 23.8545 91.1823 15.9609 101.001C23.5536 103.42 32.0738 104.117 39.1347 100.704C46.1957 97.2911 49.9384 92.2128 51.8634 78.0991C53.7884 63.9896 50.1074 43.1447 50.1074 43.1447C44.8107 35.8158 30.6228 27.4153 19.8933 28.5653Z" fill="#FFE907"/>
<path fill-rule="evenodd" clip-rule="evenodd" d="M19.894 28.5661C29.5518 29.5059 36.4973 46.4802 35.4091 66.4842C34.3209 86.4882 25.6153 101.941 15.9575 101.002C6.29968 100.062 -0.645862 83.0875 0.442341 63.0835C1.53054 43.0796 10.2362 27.6263 19.894 28.5661Z" fill="#1D112D"/>
<path fill-rule="evenodd" clip-rule="evenodd" d="M20.217 34.9206C26.9976 35.5801 31.7626 49.6154 30.8599 66.2682C29.9572 82.921 23.7248 95.8847 16.9441 95.2251C10.1635 94.5656 5.39845 80.5303 6.30116 63.8775C7.20387 47.2247 13.4363 34.2611 20.217 34.9206Z" fill="#FFE907"/>
<path fill-rule="evenodd" clip-rule="evenodd" d="M21.2793 37.1357C27.4128 37.7334 31.6832 51.0845 30.8217 66.9582C29.9602 82.832 24.2883 95.2144 18.1548 94.6209C12.0213 94.0232 7.75094 80.6721 8.61243 64.7983C9.47393 48.9246 15.1458 36.5421 21.2793 37.1357Z" fill="white"/>
<path fill-rule="evenodd" clip-rule="evenodd" d="M57.4621 31.5801C73.3193 50.1043 58.509 93.4222 50.6113 103.241C54.2593 108.562 68.3729 107.148 73.2987 103.719C74.5559 103.286 80.7471 98.4304 86.0274 81.1139C91.3076 63.7975 83.8592 47.0622 83.8592 47.0622C79.2096 40.4877 68.5048 32.3344 57.4579 31.5801" fill="#FFE907"/>
<path fill-rule="evenodd" clip-rule="evenodd" d="M56.3752 37.9421C63.836 38.6016 69.075 52.6369 68.0816 69.2897C67.0882 85.9425 60.2334 98.9062 52.7726 98.2466C45.3118 97.5871 40.0728 83.5518 41.0662 66.899C42.0596 50.2462 48.9144 37.2825 56.3752 37.9421Z" fill="#FFE907"/>
<path fill-rule="evenodd" clip-rule="evenodd" d="M57.54 40.1513C64.2836 40.749 68.9826 54.1001 68.0346 69.9739C67.0865 85.8476 60.8499 98.23 54.1064 97.6365C47.3628 97.0388 42.6638 83.6877 43.6118 67.814C44.5599 51.9402 50.7964 39.5578 57.54 40.1513Z" fill="#FFE907"/>
<path d="M57.54 40.1513C64.2836 40.749 68.9826 54.1001 68.0346 69.9739C67.0865 85.8476 60.8499 98.23 54.1064 97.6365C47.3628 97.0388 42.6638 83.6877 43.6118 67.814C44.5599 51.9402 50.7964 39.5578 57.54 40.1513Z" stroke="#2C1330" stroke-width="0.498852" stroke-linecap="round" stroke-linejoin="round"/>
<path fill-rule="evenodd" clip-rule="evenodd" d="M105.733 111.376C105.733 111.376 95.3461 104.418 96.0592 94.6943C96.7723 84.9705 99.2743 73.9278 98.7509 69.3235C98.2232 64.7192 94.8515 57.9922 89.6289 54.6369C93.112 51.1827 101.978 56.5412 101.978 56.5412C101.978 56.5412 102.65 52.4935 107.399 54.7028C112.147 56.9081 112.16 59.1999 112.16 59.1999C112.16 59.1999 113.664 55.8446 117.316 57.7078C120.968 59.5709 121.677 63.969 121.677 63.969C121.677 63.969 123.817 62.7902 126.146 64.9089C127.102 65.7786 128 67.8808 128.726 71.9533C129.765 77.7818 128.932 84.9128 128.932 84.9128C133.59 94.01 124.517 108.754 124.517 108.754L132.221 124.974C132.221 124.974 124.884 132.274 121.071 133.548C117.943 131.512 108.372 115.98 105.733 111.376Z" fill="#FACAB5"/>
<path d="M101.98 56.541C106.849 60.2467 108.703 73.1237 108.139 79.315" stroke="black" stroke-width="1.10041" stroke-linecap="round" stroke-linejoin="round"/>
<path d="M110.523 56.7227C115.391 60.4283 117.242 73.3054 116.682 79.4966" stroke="black" stroke-width="1.10041" stroke-linecap="round" stroke-linejoin="round"/>
<path d="M121.678 63.9648C123.166 69.0926 123.566 75.8197 123.417 81.4997" stroke="black" stroke-width="1.10041" stroke-linecap="round" stroke-linejoin="round"/>
<path d="M73.3027 103.721C89.5557 90.9429 90.2935 61.2853 83.8632 47.0645" stroke="#2C1330" stroke-width="1.10041" stroke-linecap="round" stroke-linejoin="round"/>
<path d="M96.5776 138.766C93.3171 154.582 92.8019 167.739 103.057 182.079" stroke="black" stroke-width="1.10041" stroke-linecap="round" stroke-linejoin="round"/>
<path fill-rule="evenodd" clip-rule="evenodd" d="M57.461 31.5817C67.1888 32.5215 74.1879 49.4958 73.0915 69.4998C71.9992 89.5038 63.2235 104.957 53.4956 104.017C43.7677 103.077 36.7686 86.1031 37.8651 66.0992C38.9574 46.0952 47.7331 30.6419 57.461 31.5817Z" fill="#1D112D"/>
<path fill-rule="evenodd" clip-rule="evenodd" d="M57.788 37.9421C64.6181 38.6016 69.4202 52.6369 68.5093 69.2897C67.5983 85.9425 61.3206 98.9062 54.4904 98.2466C47.6562 97.5871 42.8582 83.5518 43.7692 66.899C44.6801 50.2462 50.9579 37.2825 57.788 37.9421Z" fill="#FFE907"/>
<path fill-rule="evenodd" clip-rule="evenodd" d="M58.8575 40.1513C65.0364 40.749 69.3397 54.1001 68.47 69.9739C67.6002 85.8476 61.8913 98.23 55.7125 97.6365C49.5336 97.0388 45.2303 83.6877 46.1 67.814C46.9697 51.9402 52.6787 39.5578 58.8575 40.1513Z" fill="white"/>
<path fill-rule="evenodd" clip-rule="evenodd" d="M114.434 291.986C114.434 291.986 154.8 272.036 214.647 268.169C274.494 264.303 328.109 294.212 328.109 294.212L384.77 325.139C384.77 325.139 340.372 330.3 311.588 335.164C303.884 336.466 292.713 335.419 285.067 331.895C274.152 326.862 213.427 289.608 183.295 286.071C153.164 282.534 114.434 291.982 114.434 291.982" fill="white"/>
<path fill-rule="evenodd" clip-rule="evenodd" d="M331.031 251.437C337.771 253.651 336.134 264.355 335.285 268.799C338.892 257.303 356.674 262.195 348.369 280.225C355.31 270.798 367.54 294.965 359.011 301.89C373.41 292.117 376.423 311.754 366.579 315.711C366.023 315.934 329.152 295.134 315.5 288.597C311.724 286.791 306.258 243.3 331.031 251.437Z" fill="#50AE32"/>
<path fill-rule="evenodd" clip-rule="evenodd" d="M114.775 277.489C101.593 262.79 104.833 253.243 116.783 266.665C120.249 270.556 122.121 272.802 122.146 272.238C122.381 266.739 130.484 258.198 135.142 269.834C135.369 270.395 136.156 269.323 139.998 264.06C146.317 255.412 154.524 262.064 153.246 268.128C163.019 253.763 189.96 269.979 168.13 274.678C164.227 275.519 137.438 283.96 119.808 288.528C111.779 290.609 105.687 289.191 105.67 284.941C105.625 271.055 121.28 284.744 114.767 277.489" fill="#50AE32"/>
<path fill-rule="evenodd" clip-rule="evenodd" d="M161.162 66.9772C167.914 62.3029 176.862 66.8 176.211 74.3803C175.605 79.3885 178.012 89.0298 171.561 89.5492C174.113 72.6491 162.637 67.5089 151.504 71.1074C154.789 68.4323 158.841 67.2781 161.162 66.9731" fill="#E94B39"/>
<path d="M161.162 66.9782C166.005 66.8298 174.958 71.2527 175.362 77.2007" stroke="black" stroke-width="0.498852" stroke-linecap="round" stroke-linejoin="round"/>
<path d="M157.796 214.014C166.922 218.676 175.821 221.833 184.63 223.729L172.449 231.92C159.189 225.613 154.799 219.784 154.16 217.81C155.356 216.495 156.53 215.259 157.796 214.014Z" fill="#284A9A"/>
<mask id="mask0_338_32487" style="mask-type:luminance" maskUnits="userSpaceOnUse" x="154" y="214" width="31" height="18">
<path d="M157.796 214.014C166.922 218.676 175.821 221.833 184.63 223.729L172.449 231.92C159.189 225.613 154.799 219.784 154.16 217.81C155.356 216.495 156.53 215.259 157.796 214.014Z" fill="white"/>
</mask>
<g mask="url(#mask0_338_32487)">
<path d="M162.141 228.739L165.492 214.773C172.549 218.149 180.009 220.672 186.679 222.964L174.573 232.181C174.573 232.181 165.265 230.862 162.141 228.739Z" fill="black"/>
</g>
<defs>
<radialGradient id="paint0_radial_338_32487" cx="0" cy="0" r="1" gradientUnits="userSpaceOnUse" gradientTransform="translate(202.789 200.361) rotate(90) scale(368.704)">
<stop stop-color="#FFEA00"/>
<stop offset="1" stop-color="white"/>
</radialGradient>
</defs>
</svg>
