<svg width="413" height="401" viewBox="0 0 413 401" fill="none" xmlns="http://www.w3.org/2000/svg">
<path d="M8.5 200.32C8.5 89.8634 98.0431 0.320312 208.5 0.320312C318.957 0.320312 408.5 89.8634 408.5 200.32C408.5 310.777 318.957 400.32 208.5 400.32C98.0431 400.32 8.5 310.777 8.5 200.32Z" fill="url(#paint0_radial_338_31974)"/>
<path opacity="0.7" fill-rule="evenodd" clip-rule="evenodd" d="M7.32031 225.207C7.32031 225.207 21.2403 224.801 32.5745 253.571C43.9088 282.337 2.57259 262.376 14.776 289.4C38.7461 342.472 341.635 345.403 365.968 300.847C365.968 300.847 278.08 288.155 213.752 239.389C149.424 190.628 201.082 188.688 136.055 169.235C82.1788 153.118 7.95363 224.054 7.32031 225.207Z" fill="white"/>
<path d="M362.307 80.5105C399.926 95.7101 421.057 153.259 378.367 207.69C335.677 262.121 263.509 300.504 215.459 281.793C186.746 274.879 144.261 209.083 199.709 147.044C255.158 85.0049 324.688 65.3108 362.307 80.5105Z" stroke="black" stroke-width="0.839338" stroke-linecap="round" stroke-linejoin="round"/>
<path fill-rule="evenodd" clip-rule="evenodd" d="M100.027 98.2618C113.947 89.5875 143.098 82.6952 180.511 94.178C190.728 105.988 138.808 107.753 121.18 109.631C112.379 110.57 104.675 105.442 100.027 98.2574" fill="#E94B39"/>
<path d="M132.674 97.6124C134.561 99.2153 146.485 100.163 145.778 95.8391C145.074 91.515 136.745 90.5279 133.731 91.943C130.722 93.3582 129.128 94.5986 132.67 97.608" fill="#161616"/>
<path fill-rule="evenodd" clip-rule="evenodd" d="M123.699 81.267C123.699 81.267 120.009 72.8722 121.638 65.447C123.267 58.0219 135.436 58.2883 136.296 59.1575C137.458 60.3324 137.095 60.8303 138.078 62.6561L129.404 79.7907L123.704 81.2626L123.699 81.267Z" fill="#E94B39"/>
<path d="M148.709 74.6369C147.491 76.0084 144.931 75.5192 143.892 75.1872L136.589 74.0997L132.051 83.9271L123.586 82.6168C122.874 80.8042 124.398 81.5947 124.682 77.0261C125.036 71.3174 127.443 64.3771 135.388 63.5516C139.891 63.0843 138.454 60.7039 138.925 62.6955C139.982 62.0579 142.97 61.0882 146.447 62.3112C150.793 63.8443 151.225 71.8066 148.714 74.6413" fill="#161616"/>
<path d="M132.729 97.6176L131.982 88.6157L140.823 85.7461L144.675 98.05C139.639 103.798 132.729 97.6176 132.729 97.6176Z" fill="#FACDB9"/>
<path d="M144.32 76.7357C144.433 75.207 144.158 71.2498 142.756 69.577C139.952 68.8563 132.155 69.5857 129.032 74.0539C131.352 78.8147 130.138 81.859 129.242 82.7893C127.526 81.5402 125.268 79.0331 123.704 81.2694C121.751 84.0603 125.551 88.8343 129.862 87.1047C134.68 93.962 139.69 93.8048 143.267 92.1581C145.909 90.9395 146.359 87.6157 146.639 85.5585V85.5497C146.918 83.4969 147.394 80.7671 146.669 79.2821C146.088 78.094 144.866 77.0938 144.328 76.74" fill="#FACDB9"/>
<path d="M145.744 88.7384C143.726 95.6787 133.029 93.3638 130.016 87.166" stroke="#161616" stroke-width="0.839338" stroke-linecap="round" stroke-linejoin="round"/>
<path d="M142.899 85.9609C141.881 88.123 137.994 88.0356 137.111 86.223" stroke="#161616" stroke-width="0.839338" stroke-linecap="round" stroke-linejoin="round"/>
<path d="M141.865 77.5166C142.765 78.1456 144.145 77.6695 144.429 76.8047" stroke="#161616" stroke-width="0.839338" stroke-linecap="round" stroke-linejoin="round"/>
<path d="M135.35 79.6075C136.594 81.0532 138.477 79.8215 138.18 78.5898" stroke="#161616" stroke-width="0.839338" stroke-linecap="round" stroke-linejoin="round"/>
<path d="M138.616 76.4691C136.363 74.2983 133.144 75.9318 132.523 77.5959" stroke="#161616" stroke-width="0.839338" stroke-linecap="round" stroke-linejoin="round"/>
<path d="M144.432 73.6328C139.02 73.8687 141.038 78.3762 143.558 81.8529C143.558 81.8529 143.393 82.7614 142.322 83.268C141.252 83.7747 140.121 83.0933 140.121 83.0933" stroke="#161616" stroke-width="0.839338" stroke-linecap="round" stroke-linejoin="round"/>
<path d="M112.719 210.395C113.082 208.692 116.104 209.875 117.292 209.508C117.581 209.321 120.433 202.009 123.814 205.324C126.77 208.22 124.613 210.316 126.591 211.478C128.57 212.64 135.506 213.369 135.541 216.715C136.615 222.633 129.531 225.206 125.696 224.022C121.865 222.839 120.223 221.1 114.497 218.03C110.964 216.134 112.265 212.526 112.719 210.395Z" fill="#2C1330"/>
<path d="M113.34 209.016C113.703 207.312 115.078 206.264 116.668 204.006C116.957 203.818 121.054 200.63 124.434 203.945C125.736 205.22 125.998 207.491 128.815 209.946C130.549 211.453 135.581 212.838 135.616 216.183C135.642 218.786 130.082 220.769 126.247 219.586C122.416 218.402 122.508 216.528 116.782 213.458C113.248 211.562 112.886 211.147 113.336 209.016" fill="#E94B39"/>
<path d="M117.233 201.557C116.984 202.732 118.531 204.06 120.688 204.514C122.846 204.973 124.44 204.313 124.689 203.134C124.798 202.61 123.597 201.418 121.439 200.959C119.282 200.5 117.478 200.374 117.229 201.553" fill="#2C1330"/>
<path d="M97.457 212.582L103.139 169.992L116.972 174.779L103.703 214.648C102.074 217.12 98.7499 215.303 97.4614 212.582" fill="#FACDB9"/>
<path d="M117.645 203.125L122.86 176.766L131.687 177.15L123.331 204.326C122.471 204.885 118.841 204.488 117.649 203.12" fill="#FACDB9"/>
<path d="M124.696 203.136C124.394 204.555 124.752 204.63 123.739 205.901C122.652 207.525 116.336 205.818 116.711 204.04L117.24 201.555C118.638 203.708 123.333 204.328 124.7 203.136" fill="#161616"/>
<path d="M131.941 195.169L139.92 169.766L97.0161 163.865L90.8926 192.78C94.1116 200.362 106.485 201.502 112.53 199.218L116.675 188.442L116.811 198.27C116.811 198.27 124.035 200.777 131.941 195.164" fill="#E94B39"/>
<path d="M92.543 149.934L98.2035 152.987C96.0371 154.603 95.1199 158.735 94.9365 164.911C93.8402 159.858 93.3335 156.534 92.543 149.93" fill="#161616"/>
<path fill-rule="evenodd" clip-rule="evenodd" d="M101.444 101.84C101.444 101.84 121.265 98.5382 139.675 98.5382C158.085 98.5382 179.32 91.9299 187.816 90.5147C196.311 89.0996 205.75 93.345 205.75 98.0665C205.75 102.788 167.991 182.075 167.991 182.075C167.991 182.075 127.323 198.786 104.859 193.611C92.8569 190.505 87.454 185.945 85.0168 177.092C82.5796 168.238 77.845 139.595 84.9251 127.326C92.0052 115.053 101.444 101.84 101.444 101.84Z" fill="#FFE907"/>
<path fill-rule="evenodd" clip-rule="evenodd" d="M196.185 96.4188C189.743 97.4452 187.052 99.2097 155.399 103.826C123.746 108.443 118.597 108.316 111.993 115.864C93.9497 136.484 100.659 178.877 104.86 193.609C104.86 193.609 119.374 197.309 137.404 192.251C155.434 187.193 167.991 182.074 167.991 182.074L205.75 98.0654C205.471 96.6502 203.339 94.3965 196.19 96.4188" fill="#2C1330"/>
<path fill-rule="evenodd" clip-rule="evenodd" d="M123.804 114.665C123.044 114.15 121.982 115.146 121.882 116.203L121.113 124.274L139.017 121.588L140.633 114.665C140.724 113.787 140.03 112.97 138.554 112.936L123.804 114.665Z" fill="#FFE907"/>
<path fill-rule="evenodd" clip-rule="evenodd" d="M181.059 94.1707L181.316 90.6634L195.59 90.2441L195.201 93.5942C194.035 95.6732 184.208 96.6254 181.059 94.1664" fill="#1D112D"/>
<path fill-rule="evenodd" clip-rule="evenodd" d="M181.536 91.4906C179.951 88.7564 186.874 87.9659 193.058 88.5817C195.854 88.8612 199.213 92.683 185.62 92.4166C184.319 92.3904 181.715 91.8051 181.532 91.4906" fill="#E94B39"/>
<path fill-rule="evenodd" clip-rule="evenodd" d="M182.657 87.1294C180.556 82.9888 181.889 56.9659 217.944 59.4904C227.649 60.1718 241.735 63.9368 249.789 76.8653C251.3 79.2894 220.338 91.0866 220.246 90.9512C218.088 87.8894 211.161 86.6533 206.339 86.8848C201.146 87.1338 191.03 92.2484 182.662 87.1294" fill="#FACAB5"/>
<path fill-rule="evenodd" clip-rule="evenodd" d="M187.119 101.201C161.673 106.635 140.839 122.782 131.99 139.004C123.141 155.23 120.188 178.532 122.551 189.739C124.91 200.947 136.414 215.404 136.414 215.404C136.414 215.404 134.663 254.281 161.337 273.967C188.006 293.652 203.948 300.247 254.111 291.359C304.275 282.471 380.811 230.831 404.54 173.64C428.27 116.449 393.643 87.9014 369.677 74.8638C329.778 53.1562 275.12 64.6302 240.768 79.8823C213.444 93.728 205.748 98.0695 205.748 98.0695L187.119 101.206V101.201Z" fill="#FFE907"/>
<path fill-rule="evenodd" clip-rule="evenodd" d="M131.155 64.7705C131.155 64.7705 138.13 58.8173 136.925 50.4662C138.628 46.0198 152.281 48.2954 153.037 51.7809C153.797 55.2707 151.404 62.7701 146.568 63.7353C142.764 63.1544 137.226 62.2372 131.15 64.7705" fill="#E94B39"/>
<path d="M205.745 98.0645C160.378 130.757 143.488 192.342 136.412 215.404" stroke="black" stroke-width="1.25901" stroke-linecap="round" stroke-linejoin="round"/>
<path d="M171.437 105.152C142.623 125.253 129.188 166.453 125.117 197.202" stroke="black" stroke-width="1.25901" stroke-linecap="round" stroke-linejoin="round"/>
<path d="M133.842 160.238L151.138 172.765" stroke="black" stroke-width="0.839338" stroke-linecap="round" stroke-linejoin="round"/>
<path d="M131.92 166.104L148.688 178.805" stroke="black" stroke-width="0.839338" stroke-linecap="round" stroke-linejoin="round"/>
<path d="M128.773 177.57L144.663 189.603" stroke="black" stroke-width="0.839338" stroke-linecap="round" stroke-linejoin="round"/>
<path d="M127.102 185.199L142.367 196.333" stroke="black" stroke-width="0.839338" stroke-linecap="round" stroke-linejoin="round"/>
<path fill-rule="evenodd" clip-rule="evenodd" d="M362.304 80.5105C399.924 95.7101 415.399 149.49 372.708 203.921C330.018 258.351 261.047 295.18 212.998 276.464C184.285 269.55 144.259 209.083 199.707 147.044C255.155 85.0049 324.685 65.3108 362.304 80.5105Z" fill="white"/>
<path fill-rule="evenodd" clip-rule="evenodd" d="M353.805 80.2919C389.747 94.8146 396.408 148.311 355.622 200.308C314.836 252.311 253.308 280.539 207.403 262.662C179.969 252.171 147.512 211.42 198.466 143.855C249.42 76.2911 317.867 65.7692 353.805 80.2919Z" fill="#2C1330"/>
<mask id="mask0_338_31974" style="mask-type:luminance" maskUnits="userSpaceOnUse" x="171" y="74" width="213" height="195">
<path d="M353.805 80.2919C389.747 94.8146 396.408 148.311 355.622 200.308C314.836 252.311 253.308 280.539 207.403 262.662C179.969 252.171 147.512 211.42 198.466 143.855C249.42 76.2911 317.867 65.7692 353.805 80.2919Z" fill="white"/>
</mask>
<g mask="url(#mask0_338_31974)">
<path opacity="0.18" fill-rule="evenodd" clip-rule="evenodd" d="M397.644 75.1406C321.178 115.201 228.089 175.987 159.607 189.916L165.81 223.067L406.275 80.5522L397.64 75.1406H397.644Z" fill="white"/>
<path opacity="0.18" fill-rule="evenodd" clip-rule="evenodd" d="M395.093 98.0996L96.3398 277.286L98.3446 298.897L418.687 131.325L395.093 98.0996Z" fill="white"/>
</g>
<path fill-rule="evenodd" clip-rule="evenodd" d="M74.5624 99.6399C59.2098 100.081 60.4502 122.54 64.901 128.017C64.901 128.017 54.4621 127.89 60.8084 141.705C63.9881 148.419 66.7267 152.721 66.7267 152.721C66.7267 152.721 58.7818 155.049 61.8479 163.946C64.9184 172.843 73.0293 180.041 79.4324 180.124C92.1294 180.29 84.9576 167.838 82.8567 165.741C82.8567 165.741 87.7704 165.335 87.635 159.369C87.4996 153.402 84.6737 152.481 81.197 146.833C82.0836 149.139 90.2775 149.489 91.3825 144.287C92.4832 139.085 91.2908 136.543 88.5828 131.105C89.6311 131.293 94.9378 134.992 99.9171 126.934C104.896 118.875 105.259 94.6257 100.773 88.6201C91.6053 76.3424 76.0561 84.4795 74.5668 99.6443" fill="#FACAB5"/>
<path d="M64.9004 128.018C68.1543 135.801 73.6227 142.108 80.6679 147.362" stroke="#2C1330" stroke-width="1.25901" stroke-linecap="round" stroke-linejoin="round"/>
<path d="M74.5633 99.8613C72.3358 110.816 79.3241 130.077 89.6232 131.287" stroke="black" stroke-width="1.25901" stroke-linecap="round" stroke-linejoin="round"/>
<path d="M66.7227 152.723C73.0253 162.105 80.2539 164.686 83.7175 165.559" stroke="black" stroke-width="1.25901" stroke-linecap="round" stroke-linejoin="round"/>
<path d="M107.465 221.507C107.613 220.796 107.609 215.262 105.141 213.095C104.377 211.449 97.2746 210.981 96.4666 211.999C95.4533 213.27 89.8975 224.853 91.2035 229.212C92.4614 233.414 98.7728 238.895 103.516 234.772C107.43 230.287 107.32 222.219 107.469 221.507" fill="#2C1330"/>
<path d="M105.694 221.01C105.847 220.298 106.358 212.615 105.593 210.968C104.829 209.322 97.7271 208.854 96.919 209.872C95.9057 211.143 92.6299 220.079 92.9182 223.499C92.2674 229.846 99.5004 231.916 101.785 231.658C104.065 231.401 105.545 221.722 105.694 221.01Z" fill="#E94B39"/>
<path d="M96.888 210.01C96.4905 211.893 98.3294 213.88 101.002 214.443C103.675 215.011 105.724 213.849 106.121 211.967C106.3 211.133 104.877 209.329 102.204 208.761C99.5305 208.193 97.2855 208.128 96.8836 210.01" fill="#2C1330"/>
<path d="M105.894 212.509C105.348 213.876 105.121 214.942 103.828 215.785C101.954 217.615 97.77 216.357 97.0799 214.356C96.3155 212.71 96.844 210.225 96.844 210.225C98.0189 213.444 104.217 213.998 105.894 212.513" fill="#161616"/>
<path d="M99.9105 222.414C99.9105 222.414 103.776 224.776 103.518 227.013C103.256 229.249 96.4774 225.104 96.4774 225.104C96.4774 225.104 93.9922 223.457 94.4333 221.898C94.7653 220.723 97.0409 220.666 97.0409 220.666C97.0409 220.666 94.2979 220.02 94.6867 218.736C95.0754 217.447 99.2422 216.945 99.2422 216.945C99.2422 216.945 102.339 216.687 102.518 217.819C102.697 218.954 100.548 219.133 99.4213 219.042C99.4213 219.042 103.855 219.767 103.732 221.505C103.606 223.243 99.9105 222.409 99.9105 222.409V222.414Z" fill="white"/>
<path d="M124.9 210.626C124.9 210.626 120.441 211.416 119.152 209.573C117.868 207.725 125.691 206.336 125.691 206.336C125.691 206.336 128.643 205.926 129.342 207.385C129.871 208.485 128.202 210.036 128.202 210.036C128.202 210.036 130.683 208.699 131.246 209.922C131.81 211.141 129.019 214.281 129.019 214.281C129.019 214.281 126.87 216.526 125.983 215.797C125.097 215.068 126.586 213.504 127.495 212.827C127.495 212.827 123.695 215.22 122.638 213.836C121.581 212.451 124.9 210.626 124.9 210.626Z" fill="white"/>
<path d="M135.174 59.582C133.72 62.2638 132.75 63.2728 130.68 64.4084" stroke="black" stroke-width="0.839338" stroke-linecap="round" stroke-linejoin="round"/>
<path fill-rule="evenodd" clip-rule="evenodd" d="M43.6354 300.746C49.0907 303.393 67.5749 314.103 71.5714 312.172C73.812 311.089 75.3626 309.657 76.0308 308.469C76.0308 308.469 79.9487 309.665 80.5864 309.67C90.7544 309.696 102.958 300.305 104.447 298.126C105.937 295.951 105.823 288.019 112.117 277.549C118.407 267.08 124.277 255.139 125.583 248.342C126.893 241.546 119.319 231.614 108.474 222.922C97.3497 214.008 82.8925 206.744 70.8245 205.796C60.5341 204.988 50.3049 205.63 42.146 208.657C33.8866 211.719 27.8111 216.995 25.7758 224.835C22.928 224.464 10.7682 227.216 5.95063 234.567C7.22601 238.122 12.1965 242.503 13.6815 246.032C3.94585 249.64 1.67026 254.667 6.71499 256.995C18.9359 261.577 24.3475 268.976 28.9249 275.767C30.3881 279.541 31.8818 283.302 33.4018 287.062C32.1046 287.377 28.1736 287.276 31.7202 290.408C36.4243 294.75 41.2288 296.868 43.6485 300.742" fill="#7D83BF"/>
<path fill-rule="evenodd" clip-rule="evenodd" d="M6.09205 254.029C4.28818 254.798 5.56793 256.562 5.58103 258.628C5.5985 262.123 3.30981 268.368 0.802734 268.775C4.03922 270.958 7.29755 271.967 7.75616 272.037C9.67796 270.085 11.2591 264.123 7.81294 259.484C9.87014 256.864 9.52945 254.3 8.1973 253.885C6.11389 253.234 6.09205 254.029 6.09205 254.029Z" fill="#E94B39"/>
<path fill-rule="evenodd" clip-rule="evenodd" d="M57.5216 296.051C61.2386 299.523 66.5541 311.914 67.9255 312.408C68.5021 307.905 61.4963 294.077 59.985 292.417C53.4989 285.297 29.459 280.174 30.2495 282.057C30.9571 283.747 29.9962 283.515 31.4463 286.97C35.4471 286.822 54.8704 293.574 57.526 296.051" fill="#2C1330"/>
<path fill-rule="evenodd" clip-rule="evenodd" d="M90.665 287.622C109.695 264.062 118.339 241.568 88.586 221.232C76.1467 212.733 59.7721 208.968 44.8607 208.072C43.8168 208.282 42.8166 208.513 41.8513 208.775C31.6832 211.51 25.8305 217.039 23.1094 225.002C61.0169 225.569 84.144 251.042 90.6694 287.626" fill="#2C1330"/>
<path fill-rule="evenodd" clip-rule="evenodd" d="M67.4124 209.163C67.4124 209.163 64.8267 198.314 72.6973 196.933C80.568 195.549 97.2178 202.301 102.922 207.167C108.626 212.033 112.719 230.91 111.885 231.12C111.05 231.325 105.717 232.006 104.888 232.203C104.058 232.395 101.332 213.618 99.0348 210.478C96.7373 207.333 82.7999 202.253 77.8818 201.624C72.8677 200.982 72.8022 203.651 73.1079 207.958C71.2036 208.032 69.9238 209.041 67.4124 209.172" fill="#2C1330"/>
<path fill-rule="evenodd" clip-rule="evenodd" d="M66.1992 252.429L72.0563 217.553C72.5543 214.578 83.0543 215.43 90.6585 219.239C98.2627 223.043 92.7856 229.594 92.7856 229.594L80.9141 259.361L66.1992 252.433V252.429Z" fill="#FFE907"/>
<path d="M73.6934 220.504C79.3932 225.745 87.4954 227.899 90.4829 226.492C94.7633 224.474 90.1379 222.146 85.2285 220.452C83.2762 219.779 79.8999 219.591 82.5642 222.972" stroke="black" stroke-width="0.839338" stroke-linecap="round" stroke-linejoin="round"/>
<path fill-rule="evenodd" clip-rule="evenodd" d="M31.6448 192.162L62.7649 189.528C66.9798 189.17 66.412 188.567 67.6131 192.245C73.99 211.751 69.0195 232.017 66.4818 243.74C58.2137 241.059 48.893 239.853 40.3366 238.11C40.3104 226.698 36.7682 212.074 27.5435 196.892C25.5606 193.629 27.2989 192.529 31.6405 192.158" fill="#DA78AE"/>
<path fill-rule="evenodd" clip-rule="evenodd" d="M23.3167 190.863L53.0828 188.015C57.1142 187.631 56.4547 187.015 58.2847 190.789C68.0029 210.819 66.8324 231.68 66.483 243.743C57.9659 241.022 48.6888 239.825 40.0626 238.07C37.9748 226.333 31.8949 211.313 20.1894 195.746C17.6736 192.401 19.163 191.261 23.3167 190.863Z" fill="#2C1330"/>
<path fill-rule="evenodd" clip-rule="evenodd" d="M15.5883 189.649L44.0965 186.609C47.9576 186.199 47.2107 185.565 49.626 189.435C62.4453 209.95 64.8039 231.361 66.4855 243.744C57.7369 240.983 48.5035 239.795 39.803 238.031C35.8022 225.997 27.3681 210.606 13.3564 194.681C10.347 191.257 11.605 190.082 15.584 189.654" fill="#DA78AE"/>
<path fill-rule="evenodd" clip-rule="evenodd" d="M18.3477 192.921L44.0038 190.719C46.7161 190.431 46.192 189.929 47.9085 192.589C59.0943 209.942 62.488 232.606 63.8813 242.966C57.8276 241.472 49.8696 239.59 42.9468 238.638C40.8197 227.098 27.0657 205.967 16.9501 196.275C15.2466 194.646 16.2862 193.139 18.3477 192.916" fill="white"/>
<path fill-rule="evenodd" clip-rule="evenodd" d="M39.1688 194.638C44.7027 195.503 49.398 200.202 49.66 205.134C49.9177 210.065 45.6417 213.358 40.1078 212.493C34.5739 211.628 29.8786 206.929 29.6165 201.998C29.3588 197.066 33.6348 193.773 39.1688 194.638Z" fill="#DA78AE"/>
<path d="M57.0258 235.472C56.7157 230.083 55.139 224.186 51.8457 217.617" stroke="black" stroke-width="0.839338" stroke-linecap="round" stroke-linejoin="round"/>
<path d="M50.3357 236.341C49.3486 230.89 47.073 225.112 43.0547 218.879" stroke="black" stroke-width="0.839338" stroke-linecap="round" stroke-linejoin="round"/>
<path d="M69.3332 273.576C69.9141 274.213 69.8704 275.201 69.2327 275.786L70.1587 276.799C70.7964 276.218 71.7835 276.262 72.3688 276.9C72.9497 277.537 72.906 278.524 72.2683 279.11L73.1943 280.123C73.832 279.542 74.8191 279.586 75.4044 280.223C75.9853 280.861 75.9416 281.848 75.3039 282.434L76.2298 283.447C76.8675 282.866 77.8546 282.91 78.4399 283.547C79.0208 284.185 78.9772 285.172 78.3395 285.757L79.2654 286.771C79.9031 286.19 80.8902 286.233 81.4755 286.871C82.0564 287.509 82.0127 288.496 81.375 289.081L82.7116 290.544L124.764 252.126L123.428 250.663C122.79 251.244 121.803 251.2 121.217 250.562C120.637 249.925 120.68 248.937 121.318 248.352L120.392 247.339C119.754 247.92 118.767 247.876 118.186 247.238C117.605 246.601 117.649 245.614 118.287 245.028L117.361 244.015C116.723 244.596 115.736 244.552 115.151 243.915C114.57 243.277 114.613 242.29 115.251 241.704L114.325 240.691C113.687 241.272 112.7 241.228 112.115 240.591C111.534 239.953 111.578 238.966 112.216 238.381L111.29 237.367C110.652 237.948 109.665 237.905 109.08 237.267C108.499 236.629 108.542 235.642 109.18 235.057L107.677 233.41L65.625 271.829L67.1275 273.475C67.7652 272.894 68.7523 272.938 69.3376 273.576" fill="#D1D8DD"/>
<path d="M106.364 237.596L69.8711 270.93L84.0018 286.399L120.494 253.065L106.364 237.596Z" stroke="#669BD3" stroke-width="0.419669" stroke-miterlimit="10"/>
<path d="M94.5801 245.373L94.8422 245.661" stroke="#C4C8D0" stroke-width="0.419669" stroke-miterlimit="10"/>
<path d="M95.377 246.244L111.144 263.501" stroke="#C4C8D0" stroke-width="0.419669" stroke-miterlimit="10"/>
<path d="M111.41 263.797L111.672 264.081" stroke="#C4C8D0" stroke-width="0.419669" stroke-miterlimit="10"/>
<path d="M100.714 245.813L100.285 246.205L111.338 258.31L111.767 257.918L100.714 245.813Z" fill="#535252"/>
<path d="M101.915 249.596L101.486 249.988L107.705 256.789L108.134 256.397L101.915 249.596Z" fill="#535252"/>
<path d="M100.399 257.101L91.0176 265.67L91.3446 266.028L100.726 257.459L100.399 257.101Z" fill="#535252"/>
<path d="M99.3035 255.835L89.9238 264.406L90.2509 264.764L99.6305 256.193L99.3035 255.835Z" fill="#535252"/>
<path d="M98.1902 254.632L88.8105 263.203L89.1376 263.561L98.5172 254.99L98.1902 254.632Z" fill="#535252"/>
<path d="M97.0729 253.432L92.0938 257.98L92.4207 258.338L97.3999 253.79L97.0729 253.432Z" fill="#535252"/>
<path d="M88.7077 267.753L79.3281 276.324L79.6552 276.682L89.0348 268.111L88.7077 267.753Z" fill="#535252"/>
<path d="M87.5823 266.577L78.2012 275.146L78.5281 275.504L87.9093 266.935L87.5823 266.577Z" fill="#535252"/>
<path d="M86.4651 265.361L77.084 273.93L77.411 274.288L86.7921 265.719L86.4651 265.361Z" fill="#535252"/>
<path d="M85.36 264.143L80.3809 268.691L80.7078 269.049L85.687 264.501L85.36 264.143Z" fill="#535252"/>
<path d="M103.196 260.097L82.1055 279.369L83.1809 280.546L104.271 261.274L103.196 260.097Z" fill="#535252"/>
<path d="M59.2546 275.188C59.901 275.76 59.9621 276.747 59.39 277.394L60.4208 278.307C60.9929 277.66 61.98 277.599 62.6265 278.171C63.2729 278.743 63.334 279.731 62.7619 280.377L63.7926 281.285C64.3648 280.639 65.3519 280.578 65.9983 281.15C66.6448 281.722 66.7059 282.709 66.1337 283.356L67.1645 284.269C67.7367 283.622 68.7238 283.561 69.3702 284.133C70.0167 284.705 70.0778 285.692 69.5056 286.339L70.5364 287.252C71.1086 286.605 72.0957 286.544 72.7421 287.116C73.3885 287.689 73.4497 288.676 72.8775 289.322L74.3625 290.637L112.122 247.99L110.637 246.676C110.064 247.322 109.077 247.383 108.431 246.811C107.784 246.239 107.723 245.252 108.295 244.605L107.265 243.692C106.692 244.339 105.705 244.4 105.059 243.828C104.413 243.256 104.351 242.269 104.924 241.622L103.893 240.714C103.321 241.36 102.333 241.421 101.687 240.849C101.041 240.277 100.979 239.29 101.552 238.643L100.525 237.73C99.9531 238.377 98.966 238.438 98.3195 237.866C97.6731 237.294 97.612 236.307 98.1841 235.66L97.1534 234.752C96.5812 235.398 95.5941 235.459 94.9477 234.887C94.3012 234.315 94.2401 233.328 94.8123 232.681L93.1438 231.205L55.3848 273.852L57.0532 275.328C57.6254 274.681 58.6125 274.62 59.2589 275.192" fill="#E8EDF5"/>
<path d="M92.2787 235.467L59.5156 272.473L75.2029 286.361L107.966 249.355L92.2787 235.467Z" stroke="#74A8DB" stroke-width="0.419669" stroke-miterlimit="10"/>
<path d="M88.4126 255.499L79.9902 265.012L80.3532 265.333L88.7756 255.82L88.4126 255.499Z" fill="#535252"/>
<path d="M87.1743 254.403L78.752 263.916L79.1149 264.237L87.5373 254.724L87.1743 254.403Z" fill="#535252"/>
<path d="M85.94 253.311L77.5176 262.824L77.8806 263.146L86.303 253.633L85.94 253.311Z" fill="#535252"/>
<path d="M81.377 244.477L81.6652 244.734" stroke="#C4C8D0" stroke-width="0.419669" stroke-miterlimit="10"/>
<path d="M82.2598 245.26L99.7612 260.756" stroke="#C4C8D0" stroke-width="0.419669" stroke-miterlimit="10"/>
<path d="M100.057 261.018L100.349 261.275" stroke="#C4C8D0" stroke-width="0.419669" stroke-miterlimit="10"/>
<path d="M87.5237 244.264L87.1387 244.699L99.4137 255.563L99.7987 255.128L87.5237 244.264Z" fill="#535252"/>
<path d="M89.1214 247.876L88.7363 248.311L95.6365 254.42L96.0216 253.985L89.1214 247.876Z" fill="#535252"/>
<path d="M84.7086 252.222L80.2383 257.271L80.6013 257.593L85.0716 252.544L84.7086 252.222Z" fill="#535252"/>
<path d="M77.899 267.374L69.4766 276.887L69.8396 277.208L78.2619 267.695L77.899 267.374Z" fill="#535252"/>
<path d="M76.6607 266.274L68.2383 275.787L68.6013 276.108L77.0237 266.595L76.6607 266.274Z" fill="#535252"/>
<path d="M75.4322 265.18L67.0098 274.693L67.3728 275.015L75.7951 265.502L75.4322 265.18Z" fill="#535252"/>
<path d="M74.191 264.095L69.7207 269.145L70.0837 269.466L74.554 264.417L74.191 264.095Z" fill="#535252"/>
<path d="M91.4967 258.227L72.5586 279.617L73.7522 280.674L92.6903 259.283L91.4967 258.227Z" fill="#535252"/>
<path fill-rule="evenodd" clip-rule="evenodd" d="M5.93945 234.574C5.93945 234.574 14.9981 223.497 27.8786 225.209C60.2347 229.507 72.5692 243.064 83.3793 263.951C88.0833 274.171 90.3415 280.636 90.6603 287.624L77.8934 298.88L5.93945 234.578V234.574Z" fill="#7D83BF"/>
<path d="M6.0957 254.028C24.6105 242.034 56.3595 255.993 67.0168 271.477C73.7081 281.195 76.0492 297.81 76.0318 308.472" stroke="black" stroke-width="0.839338" stroke-linecap="round" stroke-linejoin="round"/>
<defs>
<radialGradient id="paint0_radial_338_31974" cx="0" cy="0" r="1" gradientUnits="userSpaceOnUse" gradientTransform="translate(208.5 200.32) rotate(90) scale(368.704)">
<stop stop-color="#FFEA00"/>
<stop offset="1" stop-color="white"/>
</radialGradient>
</defs>
</svg>
