<svg width="401" height="405" viewBox="0 0 401 405" fill="none" xmlns="http://www.w3.org/2000/svg">
<path d="M0.789062 205C0.789062 94.5431 90.3321 5 200.789 5C311.246 5 400.789 94.5431 400.789 205C400.789 315.457 311.246 405 200.789 405C90.3321 405 0.789062 315.457 0.789062 205Z" fill="url(#paint0_radial_338_32946)"/>
<path fill-rule="evenodd" clip-rule="evenodd" d="M190.962 247.594C287.819 247.594 366.334 257.849 366.334 270.505C366.334 283.16 287.819 293.415 190.962 293.415C94.1054 293.415 15.5898 283.16 15.5898 270.505C15.5898 257.849 94.1054 247.594 190.962 247.594Z" fill="#D0A26E"/>
<path d="M310.657 290.23C317.733 274.849 304.482 245.731 292.937 252.35L282.094 255.971C284.634 258.43 290.355 264.536 292.937 269.299C295.52 274.063 296.833 284.71 297.692 290.23C302.088 298.183 308.818 294.228 310.657 290.23Z" fill="#2C1330"/>
<path d="M284.026 256.398L249.814 270.568C250.422 274.181 252.564 281.488 256.301 281.796C260.97 282.181 275.983 277.341 282.448 283.336C290.884 291.156 297.871 293.311 301.535 293.311C302.053 292.366 302.78 283.562 301.535 276.434C300.291 269.311 296.203 252.703 284.021 256.393" fill="#E94B39"/>
<path fill-rule="evenodd" clip-rule="evenodd" d="M200.513 224.21C223.483 211.352 285.124 203.899 299.671 207.628C341.014 218.228 293.95 276.538 239.774 285.226L187.006 283.961C157.417 278.261 96.1263 254.966 101.856 221.961C114.448 186.646 190.555 218.202 200.509 224.21" fill="white"/>
<path d="M242.327 285.315C222.025 302.453 205.191 253.755 201.193 243.963C196.357 211.56 262.628 268.177 242.327 285.315Z" fill="#161616"/>
<path d="M246.242 275.644L219.082 281.532V262.679L237.011 256.086C239.824 258.284 246.238 269.491 246.238 275.644" fill="#FACDB9"/>
<path d="M190.342 264.951C191.317 261.18 202.935 260.671 206.244 258.815C205.675 255.929 197.346 251.054 193.511 251.811C179.349 253.291 184.258 264.741 176.779 263.634C146.711 256.079 131.553 286.044 150.465 306.974C151.393 307.74 161.283 312.772 169.694 307.038C174.902 300.505 154.917 299.205 154.031 294.326C152.924 288.225 156.259 275.423 169.215 269.111C176.967 265.336 189.128 269.642 190.342 264.951Z" fill="#2C1330"/>
<path d="M193.688 257.932C195.373 256.722 201.402 256.359 206.242 258.817L214.631 256.684C224.714 257.205 235.087 275.993 220.438 286.179C205.511 287.876 205.028 289.061 191.884 293.939C179.71 301.461 175.999 308.879 166.528 310.769C148.458 314.481 141.163 295.876 150.177 278.854C154.897 265.039 171.919 268.066 183.456 266.176C187.95 265.441 187.407 262.439 193.688 257.932Z" fill="#E94B39"/>
<path d="M240.597 214.676C211.513 216.9 182.471 218.824 177.011 213.086C175.548 212.667 159.792 209.041 156.846 208.57C159.916 213.252 183.172 229.591 205.672 233.08C211.765 226.298 234.389 222.582 240.597 214.676Z" fill="black"/>
<path d="M223.671 138.678C226.279 128.861 217.232 120.168 206.127 120.839C191.384 123.952 199.435 136.698 191.397 137.866C178.052 139.807 176.846 148.017 183.529 152.699C188.874 156.444 195.942 163.748 198.807 161.708C194.95 164.453 190.075 169.088 201.441 165.655C212.806 162.221 226.878 158.189 228.319 153.759C232.492 149.616 227.639 139.991 223.675 138.678" fill="#1D112D"/>
<path d="M242.707 211.454C230.833 200.995 225.873 196.386 222.521 174.382C222.521 174.382 235.203 207.486 263.265 202.017C275.597 199.614 313.195 170.701 314.396 150.677C315.119 129.986 264.877 119.604 259.828 141.039C256.082 156.56 252.362 183.776 246.448 180.253C239.286 170.521 230.837 138.802 206.674 144.639C182.486 144.99 176.157 168.34 156.963 180.945C150.72 178.564 137.73 139.405 128.657 130.165C113.033 115.614 75.8324 121.844 73.998 146.593C78.7443 182.057 125.783 198.438 150.57 198.836C172.625 199.191 187.685 175.156 190.494 170.594C190.935 180.407 175.61 209.188 161.081 209.581C173.434 219.835 185.808 225.688 203.891 225.44C220.242 227.181 239.898 219.159 242.707 211.454Z" fill="#DA78AE"/>
<path d="M208.431 144.499C204.699 144.794 203.232 141.168 202.501 137.157C202.124 139.047 199.875 138.264 199.166 135.874C198.456 133.484 201.068 132.539 202.047 134.138C202.047 134.138 204.151 132.971 205.396 131.679C206.777 130.247 207.914 128.451 207.914 128.451C209.59 131.431 211.852 132.248 214.067 132.834C215.747 130.209 217.295 132.945 216.872 134.754C216.449 136.558 214.696 137.422 213.704 136.267C213.46 138.807 213.096 144.131 208.427 144.503" fill="#FACDB9"/>
<path fill-rule="evenodd" clip-rule="evenodd" d="M201.861 147.972C205.722 152.175 216.745 149.31 216.232 146.877C215.672 144.239 198.829 144.675 201.861 147.972Z" fill="#161616"/>
<path d="M212.972 149.389L211.873 140.795L205.621 141.825L204.715 149.655C206.844 150.48 211.997 150.052 212.972 149.389Z" fill="#FACDB9"/>
<path d="M205.845 135.31C205.362 136.37 203.993 136.097 203.634 135.712M207.889 133.707C208.744 132.274 210.655 132.42 211.292 133.014M208.953 134.656C209.706 135.374 210.984 134.852 211.164 134.232M208.599 138.076C207.931 138.115 206.371 138.303 206.503 137.427C207.162 136.875 207.085 134.669 206.097 134.04C205.109 133.407 203.839 133.801 203.211 134.784" stroke="black" stroke-width="0.68858" stroke-miterlimit="22.93" stroke-linecap="round"/>
<path d="M207.588 140.241C209.251 141.331 210.855 139.916 210.927 138.406" stroke="black" stroke-width="0.68858" stroke-miterlimit="22.93" stroke-linecap="round"/>
<path d="M279.721 150.838C268.514 148.465 262.241 140.392 266.119 135.868C271.811 131.058 277.557 130.767 288.764 133.14C299.971 135.514 308.545 144.348 304.752 147.725C303.127 150.462 298.073 153.904 279.721 150.843" fill="#1D112D"/>
<path d="M308.623 109.48C307.096 109.031 305.057 106.427 304.475 104.059C305.142 105.029 300.845 109.587 300.888 110.421C301.55 108.775 306.959 109.049 308.618 109.48M311.971 130.804C307.652 134.336 303.556 135.811 295.214 136.038C292.439 138.184 288.471 145.996 288.128 151.884C282.442 151.504 281.095 151.555 275.549 149.622C278.687 143.64 281.424 133.143 282.531 129.684C286.884 116.112 290.142 120.076 291.519 115.612C293.392 109.536 298.01 103.644 297.51 99.8811C297.108 96.8709 298.72 95.9131 299.866 96.3107C300.221 88.8964 305.942 90.5084 308.375 92.424C310.466 100.865 313.142 104.815 316.708 106.432C320.202 109.395 317.589 112.089 317.358 113.282C317.127 114.47 318.35 115.565 318.235 117.147C318.119 118.729 317.311 119.225 316.956 120.696C316.602 122.167 317.11 122.376 316.999 123.843C316.841 125.904 315.798 127.683 311.975 130.809L311.971 130.804Z" fill="#FACDB9"/>
<path d="M311.739 124.96C309.161 122.63 304.983 121.771 302.08 120.642C300.891 120.18 299.998 119.376 300.045 117.897C300.092 116.486 300.742 114.579 303.23 114.827" stroke="black" stroke-width="1.21514" stroke-miterlimit="22.93" stroke-linecap="round"/>
<path d="M316.706 112.427C315.782 111.537 315.248 111.105 309.201 109.707C306.756 109.143 297.511 99.8811 301.338 91.9023" stroke="black" stroke-width="1.21514" stroke-miterlimit="22.93" stroke-linecap="round"/>
<path d="M316.437 119.315C315.958 118.708 314.629 117.613 311.058 116.758C307.488 115.903 304.375 115.257 302.96 114.727C301.848 114.312 300.369 113.256 301.121 110.746" stroke="black" stroke-width="1.21514" stroke-miterlimit="22.93" stroke-linecap="round"/>
<path d="M306.546 128.26C305.64 127.854 303.57 126.832 302.553 125.977" stroke="black" stroke-width="1.21514" stroke-miterlimit="22.93" stroke-linecap="round"/>
<path d="M300.688 119.951C298.845 120.99 298.332 122.953 298.64 124.257C299.213 126.72 301.817 128.875 303.399 128.464C304.22 128.251 304.532 127.708 304.639 127.31" stroke="black" stroke-width="1.21514" stroke-miterlimit="22.93" stroke-linecap="round"/>
<path d="M283.414 125.417C281.079 117.627 295.39 114.407 295.677 110.443L295.651 130.288C295.194 125.439 283.392 129.852 283.418 125.413" fill="#FACDB9"/>
<path d="M204.427 288.467C203.854 287.565 203.298 286.654 202.751 285.735C201.549 283.734 200.395 281.698 199.322 279.629C198.586 278.213 197.863 276.785 197.265 275.31C196.713 273.95 195.909 272.202 196.132 270.709C196.166 270.474 196.234 270.235 196.393 270.059C196.688 269.726 197.213 269.713 197.633 269.858C199.215 270.397 200.514 271.641 201.622 272.847C202.9 274.237 204.115 275.691 205.368 277.102C206.62 278.517 207.604 279.941 208.852 281.254C209.682 282.13 210.511 283.002 211.341 283.879C211.341 283.879 196.602 265.022 203.738 266.019C210.879 267.011 220.744 276.208 220.744 276.208" stroke="black" stroke-width="1.21514" stroke-linecap="round" stroke-linejoin="round"/>
<path d="M298.224 127.286C300.687 129.488 293.127 121.065 286.572 127.59" stroke="black" stroke-width="1.21514" stroke-linecap="round" stroke-linejoin="round"/>
<path d="M276.338 272.817C276.53 273.869 276.74 274.912 276.966 275.964C277.445 278.247 277.98 280.526 278.596 282.775C279.019 284.31 279.459 285.85 280.024 287.342C280.541 288.719 281.14 290.54 282.32 291.489C282.504 291.639 282.713 291.767 282.953 291.789C283.393 291.832 283.791 291.485 284 291.092C284.796 289.621 284.907 287.829 284.898 286.187C284.89 284.297 284.796 282.407 284.757 280.522C284.714 278.632 284.471 276.917 284.492 275.109C284.505 273.903 284.522 272.701 284.535 271.495C284.535 271.495 286.532 295.342 291.09 289.766C295.652 284.186 296.648 270.734 296.648 270.734" stroke="black" stroke-width="1.21514" stroke-linecap="round" stroke-linejoin="round"/>
<path d="M103.77 145.52C117.837 139.23 121.249 135.074 117.371 130.55C111.68 125.74 105.933 125.449 94.7261 127.822C83.519 130.195 74.4926 142.946 78.2896 146.32C81.21 149.552 88.1327 150.236 103.774 145.52" fill="#1D112D"/>
<path d="M74.8611 104.162C76.3876 103.713 78.4272 101.109 79.0087 98.7403C78.3417 99.7109 82.6389 104.269 82.5962 105.103C81.9334 103.457 76.5244 103.73 74.8654 104.162M71.5131 125.486C75.8317 129.018 79.928 130.493 88.2703 130.72C91.0453 132.866 95.6718 141.7 96.0139 147.588C99.8151 146.976 105.023 145.27 108.033 143.513C104.895 137.531 102.06 127.821 100.953 124.366C96.5997 110.794 93.3414 114.758 91.9646 110.294C90.0918 104.218 85.4738 98.3255 85.9741 94.5627C86.3761 91.5525 84.764 90.5947 83.6181 90.9924C83.2632 83.578 77.5421 85.19 75.1091 87.1056C73.0182 95.5462 70.3415 99.4971 66.7754 101.113C63.282 104.077 65.8946 106.77 66.1255 107.959C66.3564 109.148 65.1335 110.242 65.2489 111.824C65.3644 113.407 66.1725 113.903 66.5274 115.373C66.8823 116.844 66.3735 117.054 66.4847 118.52C66.6429 120.581 67.6862 122.36 71.5088 125.486H71.5131Z" fill="#FACDB9"/>
<path d="M71.752 119.65C74.3303 117.32 78.5078 116.46 81.4112 115.331C82.5999 114.869 83.4935 114.066 83.4465 112.586C83.3994 111.175 82.7495 109.268 80.2609 109.516" stroke="black" stroke-width="1.21514" stroke-miterlimit="22.93" stroke-linecap="round"/>
<path d="M66.7871 107.106C67.7107 106.217 68.2452 105.785 74.2913 104.387C76.7371 103.822 85.9815 94.5608 82.1546 86.582" stroke="black" stroke-width="1.21514" stroke-miterlimit="22.93" stroke-linecap="round"/>
<path d="M67.0508 113.999C67.5297 113.391 68.8595 112.297 72.4298 111.442C76.0002 110.586 79.113 109.941 80.5283 109.411C81.6401 108.996 83.1195 107.94 82.367 105.43" stroke="black" stroke-width="1.21514" stroke-miterlimit="22.93" stroke-linecap="round"/>
<path d="M76.9395 122.943C77.8459 122.537 79.9155 121.515 80.9331 120.66" stroke="black" stroke-width="1.21514" stroke-miterlimit="22.93" stroke-linecap="round"/>
<path d="M82.8083 114.633C84.6512 115.672 85.1643 117.634 84.8565 118.939C84.2835 121.402 81.6795 123.557 80.0974 123.146C79.2765 122.937 78.9643 122.389 78.8574 121.992" stroke="black" stroke-width="1.21514" stroke-miterlimit="22.93" stroke-linecap="round"/>
<path d="M100.076 120.099C102.41 112.308 88.099 109.089 87.8125 105.125L87.8424 124.969C88.3 120.121 100.101 124.533 100.076 120.095" fill="#FACDB9"/>
<path d="M85.258 121.964C82.7951 124.166 90.3549 115.742 96.9098 122.267" stroke="black" stroke-width="1.21514" stroke-linecap="round" stroke-linejoin="round"/>
<path d="M204.094 143.05C205.984 144.948 210.123 144.123 211.299 142.746" stroke="#1D112D" stroke-width="0.68858" stroke-miterlimit="22.93" stroke-linecap="round"/>
<path fill-rule="evenodd" clip-rule="evenodd" d="M197.976 140.139C197.976 140.139 198.694 140.708 201.375 138.929C204.056 137.15 207.819 128.432 207.819 128.432L197.848 134.024L197.976 140.139Z" fill="#1D112D"/>
<path d="M43.9671 39.2229C35.4324 44.8158 29.8952 55.8604 33.4869 65.6949C37.6388 77.0174 50.368 87.0871 63.696 85.0646C84.2415 81.9517 79.9357 52.6791 69.2289 41.7243C61.3015 33.6087 51.4712 34.2971 43.9628 39.2186L43.9671 39.2229Z" fill="#5A9CD5"/>
<path d="M48.309 52.3336C49.5619 52.6928 50.789 53.2786 52.106 53.8344C49.874 49.6569 53.0595 44.4104 57.4851 44.962C66.892 46.1379 66.0283 59.0382 66.3874 65.1527C66.7637 71.3955 65.0534 76.9883 57.0788 73.713C51.7639 71.5366 46.8681 67.5472 42.8915 63.6433C39.0731 59.9105 38.1752 53.3171 44.76 52.0856C46.0129 51.8504 47.1674 52.0044 48.309 52.3336Z" fill="white"/>
<path d="M253.323 24.4291C252.242 20.3157 252.669 15.5823 255.123 11.4133C257.603 7.2016 262.277 4.08877 268.088 3.19938C273.877 2.82311 279.449 4.92256 283.041 8.95471C286.573 12.9227 288.065 18.3702 287.368 23.7321C286.222 29.0898 282.989 33.8061 278.855 37.0772C274.681 40.3781 270.299 41.9602 266.993 41.2419C263.722 40.4551 261.469 37.7656 259.113 34.8067C256.753 31.8392 254.405 28.5425 253.323 24.4248" fill="#FFD700"/>
<path d="M269.234 35.4896C271.667 35.2501 274.306 33.8733 276.563 31.3719C278.915 28.6952 280.206 25.4199 280.164 22.2686C280.121 19.1173 278.671 16.1498 276.221 14.1059C273.767 12.2801 270.808 11.596 268.106 12.0963C265.399 12.5965 263.077 14.1957 261.722 16.5004C260.486 18.6939 260.366 20.9687 260.901 22.9826C261.435 25.0051 262.56 26.8566 264.15 28.1137C265.562 29.3836 267.229 29.9823 268.845 29.9053C270.466 29.8283 272.108 29.033 273.369 27.468C275.665 24.569 275.268 20.5839 272.959 18.5956C270.761 16.9066 267.845 17.3342 266.558 19.284C265.433 21.0115 265.998 22.9484 267.114 23.8079C268.067 24.5861 269.106 24.3851 269.564 23.7395C269.726 23.5129 269.739 23.3889 269.752 23.252C269.354 23.2349 268.944 23.0639 268.632 22.7304C268.02 22.0762 267.982 21.0585 268.559 20.4385C269.068 19.8997 269.752 19.8313 270.192 19.8826C270.684 19.9382 271.176 20.1477 271.586 20.4898C273.207 21.8966 273.019 24.3894 271.868 25.8988C270.201 28.0752 267.349 28.0538 265.395 26.3136C262.812 24.368 261.931 20.5924 263.757 17.5694C264.839 15.7949 266.656 14.6618 268.721 14.3582C270.778 14.0589 273.006 14.619 274.827 16.0001C276.811 17.6549 277.936 20.0408 277.987 22.5508C278.039 25.065 277.085 27.669 275.319 29.7556C273.361 32.039 270.996 33.1592 268.756 33.1934C266.545 33.2277 264.343 32.2998 262.5 30.521C260.341 28.8149 258.823 26.3991 257.997 23.778C257.185 21.1911 257.211 18.1766 258.716 15.2348C260.396 12.0834 263.471 9.77019 267.126 9.00053C270.774 8.23088 274.81 9.11598 278.107 11.5319C281.378 14.2983 283.238 18.2022 283.191 22.2173C283.148 26.2152 281.271 30.3414 278.141 33.6638C275.084 36.798 271.706 38.4955 268.76 38.735C268.965 37.6617 269.11 36.5842 269.23 35.4939" fill="#220F0C"/>
<mask id="mask0_338_32946" style="mask-type:luminance" maskUnits="userSpaceOnUse" x="308" y="42" width="44" height="47">
<path d="M344.791 47.568C328.278 35.2834 312.628 48.8594 309.387 65.6849C304.487 91.105 332.793 95.6503 347.058 77.0973C351.774 70.9656 352.851 64.6887 350.983 57.2529C349.799 53.1609 347.866 50.4414 344.791 47.568Z" fill="white"/>
</mask>
<g mask="url(#mask0_338_32946)">
<path d="M301.415 68.0647C310.616 56.8448 317.047 46.7752 327.57 36.265C332.231 31.6129 330.238 31.6599 334.818 36.3078C343.506 45.1332 352.191 53.9629 360.879 62.7883C353.315 70.2326 348.235 75.5261 341.505 83.8684C337.815 88.4393 334.206 92.9332 330.332 97.3588C315.298 88.5419 312.6 86.0063 302.223 71.7762C300.568 69.51 300.26 70.1984 301.419 68.0605" fill="#E3E3E2"/>
<mask id="mask1_338_32946" style="mask-type:luminance" maskUnits="userSpaceOnUse" x="316" y="43" width="45" height="54">
<path d="M359.89 63.9847C352.707 72.0062 358.783 67.6705 349.483 61.1027C336.587 51.9994 329.01 71.0869 328.005 81.2678C327.475 86.634 327.894 91.1579 329.583 96.2804C327.458 94.6128 318.961 88.0835 318.252 86.1038C316.285 80.6221 316.674 69.4792 318.175 63.5956C320.582 54.163 327.727 41.16 339.375 43.5545C343.107 44.3242 346.361 48.7626 349.171 51.5804C352.168 54.5863 355.772 58.6013 358.996 61.2139L360.057 62.0734L360.493 62.9841L359.886 63.9847H359.89Z" fill="white"/>
</mask>
<g mask="url(#mask1_338_32946)">
<path d="M360.502 41.1621H316.289V96.2867H360.502V41.1621Z" fill="url(#paint1_linear_338_32946)"/>
</g>
<path d="M351.744 61.6643C353.471 63.4046 354.895 65.4185 355.969 67.6249L333.811 97.2097L328.299 89.9578C327.35 86.9219 326.739 83.2703 326.773 78.8918C326.905 62.3142 339.823 49.5465 351.748 61.66" fill="#161616"/>
</g>
<mask id="mask2_338_32946" style="mask-type:luminance" maskUnits="userSpaceOnUse" x="184" y="0" width="34" height="34">
<path d="M217.022 18.7056C217.818 9.65782 211.126 1.68332 202.083 0.892278C193.039 0.0969648 185.06 6.78871 184.269 15.8322C183.474 24.8757 190.161 32.8545 199.209 33.6455C208.257 34.4408 216.231 27.7491 217.022 18.7056Z" fill="white"/>
</mask>
<g mask="url(#mask2_338_32946)">
<path d="M217.022 18.7056C217.818 9.65782 211.126 1.68332 202.083 0.892278C193.039 0.0969648 185.06 6.78871 184.269 15.8322C183.474 24.8757 190.161 32.8545 199.209 33.6455C208.257 34.4408 216.231 27.7491 217.022 18.7056Z" fill="#605CA6"/>
<path d="M218.115 10.9541C215.746 7.18708 208.96 2.40665 202.341 3.21051C200.575 3.42431 200.703 4.29659 200.101 5.05769C199.267 6.11383 197.039 6.38321 196.834 6.88777C196.543 7.61039 197.509 8.97867 198.104 9.26088C199.053 9.70985 200.049 8.18763 201.289 8.09784C202.516 8.00805 206.989 8.81619 207.635 10.0733C208.644 11.4159 208.34 13.417 207.647 13.6394C206.903 13.8745 205.39 12.0659 204.24 12.0958C203.594 12.1129 202.273 12.827 201.541 12.673C200.913 12.5447 200.618 11.1465 200.096 10.7018C199.622 10.2956 196.71 10.6676 195.944 10.937C195.012 11.262 192.729 13.9601 192.584 14.9906C192.412 16.1878 194.649 18.8303 195.624 19.1082C196.646 19.399 198.57 18.6122 199.177 19.1168C199.904 19.7239 199.955 28.9128 201.653 29.0753C202.726 29.1779 206.018 25.4194 206.549 24.6797C207.288 23.6364 207.049 21.8491 207.327 21.2633C207.677 20.5321 209.55 19.694 209.691 18.8987C209.82 18.1846 207.596 15.9099 208.229 15.5336C208.729 15.2386 211.162 16.6752 212.03 16.2391C212.774 15.8671 212.992 13.6779 214.04 12.1172C214.241 11.8221 214.583 11.6511 214.938 11.681C215.793 11.758 216.682 12.4079 217.345 16.6795C217.495 17.5347 219.141 15.7431 219.141 15.7431L218.11 10.9498L218.115 10.9541Z" fill="#FEE14B"/>
<path d="M209.361 24.0456C208.878 23.8745 208.198 25.0974 207.993 25.5635C207.805 25.9954 207.403 27.2354 207.83 27.4321C208.348 27.6715 209.216 26.3417 209.425 25.8115C209.584 25.401 209.785 24.191 209.366 24.0456" fill="#FEE14B"/>
<path d="M184.208 17.6777C184.738 19.9696 187.641 19.5548 188.001 21.0899C188.407 22.8173 186.363 24.254 187.321 26.9008C184.67 29.0815 182.48 22.7104 182.48 22.7104L184.204 17.682L184.208 17.6777Z" fill="#FEE14B"/>
</g>
<path d="M127.794 43.2293C124.215 41.566 120.568 38.1068 117.318 34.0105C113.966 29.7903 111.315 24.9414 110.815 20.3149C110.541 15.7055 112.859 12.2164 116.938 10.4376C121.218 8.57335 126.978 8.40659 132.673 10.2025C138.125 11.977 142.161 15.3677 143.931 19.5025C145.659 23.5389 145.424 28.3322 143.577 32.8218C141.973 37.3243 139.369 40.6724 136.662 42.6222C134.114 44.4608 131.147 44.8798 127.794 43.2208" fill="#E84625"/>
<path d="M130.327 9.55078C125.149 13.5744 120.437 17.4569 116.794 21.7285C113.412 25.6965 111.107 30.0365 109.26 34.2482C112.231 35.4455 115.105 36.6385 117.863 37.8186C119.034 35.3985 120.364 32.9356 122.057 30.5966C123.819 28.1594 125.966 25.8461 128.249 23.4901C128.163 23.4089 128.074 23.3277 127.98 23.2464C127.167 25.2646 126.385 27.27 125.765 29.3053C125.149 31.3278 124.7 33.3717 124.285 35.4113C126.231 36.6983 128.099 37.9768 129.887 39.2553C131.922 37.096 134.197 34.9538 136.685 32.8244C136.587 32.7132 136.501 32.602 136.412 32.4909C135.086 35.6165 133.94 38.7507 132.995 41.9021C134.787 42.3425 136.548 42.7786 138.276 43.219C139.965 43.6509 141.632 44.0828 143.262 44.5061C143.193 42.4365 143.095 40.367 142.975 38.2889C141.594 38.0409 140.2 37.7929 138.793 37.5364C138.883 37.8656 138.981 38.1949 139.071 38.5241C139.832 36.895 140.628 35.2616 141.513 33.6539C142.411 32.0248 143.398 30.4171 144.416 28.7965C143.27 26.7441 142.039 24.6831 140.705 22.6136C137.262 24.8841 134.086 27.1674 131.174 29.4678C131.281 29.5875 131.383 29.6987 131.494 29.8142C132.32 27.8644 133.196 25.906 134.205 23.9861C135.227 22.0363 136.394 20.1122 137.596 18.1838C135.347 15.3189 132.918 12.4456 130.323 9.55506" fill="#FFDD06"/>
<path d="M130.327 9.55078C125.149 13.5744 120.437 17.4569 116.794 21.7285C113.412 25.6965 111.107 30.0365 109.26 34.2482C112.231 35.4455 115.105 36.6385 117.863 37.8186C119.034 35.3985 120.364 32.9355 122.057 30.5966C123.819 28.1594 125.966 25.8461 128.249 23.4901C128.163 23.4089 128.074 23.3277 127.98 23.2464C127.167 25.2646 126.385 27.27 125.765 29.3053C125.149 31.3278 124.7 33.3717 124.285 35.4113C126.231 36.6983 128.099 37.9768 129.887 39.2553C131.922 37.096 134.197 34.9538 136.685 32.8244C136.587 32.7132 136.501 32.602 136.412 32.4909C135.086 35.6165 133.94 38.7507 132.995 41.9021C134.436 42.257 135.864 42.6076 137.262 42.9539C138.178 40.5808 139.165 38.1906 140.345 35.8474C141.547 33.4743 142.954 31.1397 144.416 28.7922C143.27 26.7398 142.039 24.6788 140.705 22.6093C137.262 24.8798 134.086 27.1631 131.174 29.4635C131.281 29.5833 131.383 29.6944 131.494 29.8099C132.32 27.8601 133.196 25.9017 134.205 23.9819C135.227 22.0321 136.394 20.1079 137.596 18.1795C135.347 15.3147 132.918 12.4413 130.323 9.55078" fill="#FFDD06"/>
<path fill-rule="evenodd" clip-rule="evenodd" d="M277.23 300.925C277.23 300.925 298.264 239.335 303.634 233.994C309.009 228.658 318.228 229.872 318.228 229.872L393.402 228.389C393.402 228.389 399.225 231.215 395.112 236.483C390.994 241.751 347.462 295.139 347.462 295.139L277.23 300.92V300.925Z" fill="#A8A7A7"/>
<path fill-rule="evenodd" clip-rule="evenodd" d="M232.227 294.898L277.23 300.919L347.461 295.138L294.462 284.486C294.462 284.486 238.982 285.91 236.207 288.138C233.432 290.361 232.231 294.898 232.231 294.898" fill="#A8A7A7"/>
<path fill-rule="evenodd" clip-rule="evenodd" d="M339.949 251.933C345.307 251.638 348.198 256.388 346.402 262.55C344.606 268.711 338.808 273.945 333.45 274.244C328.092 274.54 325.202 269.789 326.998 263.627C328.794 257.466 334.592 252.232 339.954 251.933" fill="white"/>
<path d="M238.154 290.609L278.651 293.247L282.542 285.688" stroke="black" stroke-width="1.21514" stroke-linecap="round" stroke-linejoin="round"/>
<path fill-rule="evenodd" clip-rule="evenodd" d="M73.9215 264.736C90.8796 264.736 104.627 266.451 104.627 268.563C104.627 270.676 90.8796 272.39 73.9215 272.39C56.9634 272.39 43.2207 270.676 43.2207 268.563C43.2207 266.451 56.9676 264.736 73.9215 264.736Z" fill="#161616"/>
<path fill-rule="evenodd" clip-rule="evenodd" d="M25.9204 249.718C23.0171 269.562 56.7452 272.444 70.8171 271.46C126.746 267.557 104.746 240.071 84.6196 239.892C80.7457 239.857 27.6906 237.617 25.9204 249.718Z" fill="#E94B39"/>
<path fill-rule="evenodd" clip-rule="evenodd" d="M42.0808 242.187C42.0808 242.187 38.968 238.582 38.8867 237.685C38.8055 236.782 38.9295 235.555 40.9349 235.799C42.9403 236.043 44.4967 236.043 44.4967 236.043C48.3835 232.156 49.6363 233.246 54.3654 233.34C54.3654 233.34 58.8294 229.616 59.4836 230.065C60.1378 230.514 60.4671 236.782 60.4671 236.782C60.4671 236.782 65.1107 242.324 62.4511 245.428C59.7872 248.537 54.6391 251.111 50.5556 251.111C41.4009 251.111 41.1145 250.593 42.0808 242.187Z" fill="#FFE907"/>
<path fill-rule="evenodd" clip-rule="evenodd" d="M54.6707 256.476C53.3409 254.065 57.527 250.422 60.0968 249.797C66.0317 248.356 78.8893 251.148 83.2849 248.519C84.2256 247.959 88.1166 245.008 88.2534 243.918C88.604 248.215 86.8723 251.546 83.5115 254.056C77.3286 258.665 61.4351 252.175 58.4634 253.906C56.4238 255.095 56.4922 255.51 55.1239 256.716C55.0256 256.805 54.7776 256.669 54.675 256.476" fill="#FFE907"/>
<path fill-rule="evenodd" clip-rule="evenodd" d="M82.7872 230.984C72.1745 222.338 50.3376 230.44 50.902 246.663C50.9405 247.753 55.2206 248.019 55.6653 249.314C55.567 249.472 55.9475 249.857 55.986 249.909C54.4809 249.686 49.6962 250.862 49.6663 252.743C49.6192 255.899 56.4906 252.064 57.5638 251.491C61.6302 249.314 64.7687 249.331 69.2711 249.494C69.9553 249.519 70.5325 250.238 73.2434 250.238C79.7257 250.238 81.8422 250.571 87.0331 246.253C91.4544 242.575 86.426 233.694 82.7786 230.984" fill="#FFE907"/>
<path d="M47.043 244.898C47.8853 245.651 49.6555 245.202 49.9249 243.77" stroke="black" stroke-width="1.21514" stroke-linecap="round" stroke-linejoin="round"/>
<path d="M54.5195 242.259C55.0797 242.674 57.4784 242.742 57.688 240.574" stroke="black" stroke-width="1.21514" stroke-linecap="round" stroke-linejoin="round"/>
<path fill-rule="evenodd" clip-rule="evenodd" d="M52.0098 243.314C50.2389 244.097 53.9005 245.855 53.8021 243.635C53.7593 242.689 52.2109 243.382 52.0098 243.314Z" fill="#161616"/>
<path d="M51.6367 247.776C52.7057 247.951 53.4326 247.079 53.1632 246.074C53.6635 246.857 55.3182 247.083 55.6902 245.938" stroke="black" stroke-width="1.21514" stroke-linecap="round" stroke-linejoin="round"/>
<path d="M42.4414 240.544C43.0486 239.235 43.3393 238.346 44.6221 237.486" stroke="black" stroke-width="1.21514" stroke-linecap="round" stroke-linejoin="round"/>
<path d="M56.2051 233.738C57.2826 234.247 57.8513 234.495 58.6894 234.914" stroke="black" stroke-width="1.21514" stroke-linecap="round" stroke-linejoin="round"/>
<path d="M69.1067 238.865C67.8154 241.067 66.5241 245.809 68.5936 247.883" stroke="black" stroke-width="1.21514" stroke-linecap="round" stroke-linejoin="round"/>
<path d="M54.6707 256.477C53.3409 254.065 57.527 250.422 60.0968 249.798C66.0317 248.357 78.8893 251.149 83.2849 248.52" stroke="black" stroke-width="1.21514" stroke-linecap="round" stroke-linejoin="round"/>
<path d="M59.485 230.068C60.1392 230.517 60.4685 236.786 60.4685 236.786C60.4685 236.786 65.1121 242.327 62.4482 245.432C59.7844 248.54 54.6362 251.114 50.5527 251.114" stroke="black" stroke-width="1.21514" stroke-linecap="round" stroke-linejoin="round"/>
<path fill-rule="evenodd" clip-rule="evenodd" d="M77.3173 249.688C74.7133 249.222 68.975 248.927 67.6196 244.369C68.7056 245.4 64.4212 249.162 60.094 249.8C59.7947 249.842 67.8248 249.051 77.3173 249.688Z" fill="#161616"/>
<path d="M207.488 156.316C208.378 167.382 207.775 182.677 207.775 194.389" stroke="black" stroke-width="1.21514" stroke-linecap="round" stroke-linejoin="round"/>
<defs>
<radialGradient id="paint0_radial_338_32946" cx="0" cy="0" r="1" gradientUnits="userSpaceOnUse" gradientTransform="translate(200.789 205) rotate(90) scale(368.704)">
<stop stop-color="#FFEA00"/>
<stop offset="1" stop-color="white"/>
</radialGradient>
<linearGradient id="paint1_linear_338_32946" x1="325.358" y1="53.3398" x2="347.439" y2="79.3927" gradientUnits="userSpaceOnUse">
<stop stop-color="#3F509E"/>
<stop offset="1" stop-color="#294A9A"/>
</linearGradient>
</defs>
</svg>
