<svg width="76" height="75" viewBox="0 0 76 75" fill="none" xmlns="http://www.w3.org/2000/svg">
<circle opacity="0.5" cx="38" cy="37.5" r="37.5" fill="white"/>
<path d="M58.0175 40.4999C59.6743 40.4903 61.0096 39.1393 60.9999 37.4825C60.9903 35.8257 59.6393 34.4904 57.9825 34.5001L58.0175 40.4999ZM15.867 35.6245C14.7023 36.8029 14.7134 38.7023 15.8918 39.867L35.0947 58.8472C36.2731 60.0119 38.1726 60.0008 39.3373 58.8225C40.502 57.6441 40.4909 55.7446 39.3125 54.5799L22.2432 37.7086L39.1145 20.6393C40.2792 19.461 40.2681 17.5615 39.0897 16.3968C37.9113 15.2321 36.0119 15.2431 34.8472 16.4215L15.867 35.6245ZM58 37.5L57.9825 34.5001L17.9832 34.7334L18.0007 37.7334L18.0182 40.7333L58.0175 40.4999L58 37.5Z" fill="black"/>
</svg>
