<svg width="213" height="50" viewBox="0 0 213 50" fill="none" xmlns="http://www.w3.org/2000/svg">
<g clip-path="url(#clip0_443_30990)">
<path d="M18.0003 42.5155H24.2101V6.87793H15.1777C6.09395 6.87793 1.32113 11.5441 1.32113 18.4153C1.32113 23.9019 3.93848 27.1324 8.60866 30.4654L0.5 42.5155H7.223L16.2554 29.0296L13.1249 26.9273C9.32715 24.3634 7.47961 22.3636 7.47961 18.0563C7.47961 14.2618 10.1483 11.698 15.229 11.698H18.0003V42.5155ZM137.731 43.0282C140.554 43.0282 142.556 42.5155 144.044 41.4386V36.4648C142.504 37.5416 140.657 38.2082 138.091 38.2082C133.728 38.2082 131.932 34.8239 131.932 29.4911C131.932 23.9019 134.139 21.0304 138.142 21.0304C140.503 21.0304 142.812 21.8508 144.044 22.62V17.441C142.761 16.7231 140.503 16.2104 137.475 16.2104C129.674 16.2104 125.62 21.7995 125.62 29.6449C125.62 38.2595 129.571 43.0282 137.731 43.0282ZM119.051 42.5155H125.979L116.177 28.8245L124.799 16.7231H118.64L110.018 28.8245V16.7231H103.911V42.5155H110.018V30.0552L119.051 42.5155ZM82.9723 31.7986H99.8054V28.5681C99.8054 19.5946 95.8537 16.2104 89.7466 16.2104C82.3051 16.2104 78.764 21.9021 78.764 29.6962C78.764 38.6697 83.1775 43.0282 90.9783 43.0282C94.8787 43.0282 97.7526 42.0027 99.5488 40.772V35.7982C97.65 37.0801 94.4681 38.2082 91.4915 38.2082C86.7187 38.2082 85.0764 35.7982 85.0764 30.8243V27.9528C85.0764 23.4404 86.5647 21.0304 89.6439 21.0304C92.6719 21.0304 93.5956 23.543 93.5956 26.7734V28.5168L95.6485 27.2862H82.9723V31.7986ZM68.4485 37.6954H59.8267C61.5202 33.7984 61.9821 26.7734 61.9821 22.3123V21.5432H68.4485V37.6954ZM77.2757 37.6954H74.5557V16.7231H56.7474V18.928C56.7474 25.2351 56.3369 33.3882 54.1814 37.6954H52.2825V48.4123H57.9278V42.5155H71.6304V48.4123H77.2757V37.6954ZM43.6093 16.7231V26.9273H35.4494V16.7231H29.3422V42.5155H35.4494V31.7473H43.6093V42.5155H49.7165V16.7231H43.6093Z" fill="white"/>
<path d="M192.661 43.4077C185.97 43.4077 184.683 37.7282 188.698 29.9189C192.609 22.0588 199.918 16.3286 206.352 16.3286C212.837 16.3286 214.278 21.9574 210.264 29.9189C206.352 37.7789 199.558 43.4077 192.661 43.4077ZM184.323 10.2941C186.948 10.2941 186.227 16.3286 182.83 22.3124H189.933C197.653 6.23732 191.786 0 185.146 0C174.389 0 162.294 10.6998 154.676 24.4422C146.698 38.8438 147.625 50 157.867 50C169.499 50 180.771 39.7059 188.749 25.3043H173.565L170.58 30.071H180.565L180.926 25.7606C176.036 34.1785 170.374 39.6552 167.183 39.6552C164.043 39.6552 165.279 33.4178 170.168 25C175.11 16.5314 180.926 10.2941 184.323 10.2941ZM204.19 29.8681C206.764 25.6085 207.072 22.5659 205.528 22.5659C203.83 22.5659 201.102 25.7099 198.58 29.8681C195.955 34.0771 195.646 37.1197 197.242 37.1197C198.94 37.1197 201.668 33.9757 204.19 29.8681Z" fill="white"/>
</g>
<defs>
<clipPath id="clip0_443_30990">
<rect width="212" height="50" fill="white" transform="translate(0.5)"/>
</clipPath>
</defs>
</svg>
